<svg xmlns="http://www.w3.org/2000/svg" xmlns:xlink="http://www.w3.org/1999/xlink" contentStyleType="text/css" data-diagram-type="ACTIVITY" height="1430px" preserveAspectRatio="none" style="width:1410px;height:1430px;background:#FFF9EE;" version="1.1" viewBox="0 0 1410 1430" width="1410px" zoomAndPan="magnify"><title>Stock management activity - V15 actual (item lifecycle + signed delta)</title><defs/><g><rect fill="#FFF9EE" height="1430" style="stroke:transparent;stroke-width:1;" width="1410" x="0" y="0"/><text fill="#000000" font-family="Tahoma" font-size="14" font-weight="bold" lengthAdjust="spacing" textLength="496.4941" x="455.7275" y="34.0068">Stock management activity - V15 actual (item lifecycle + signed delta)</text><rect fill="transparent" height="21.7266" style="stroke:transparent;stroke-width:1;" width="1377.9492" x="15" y="50.1162"/><ellipse cx="259.9331" cy="86.8428" fill="#222222" rx="10" ry="10" style="stroke:#222222;stroke-width:1;"/><rect fill="#F1F1F1" height="41.7266" rx="12.5" ry="12.5" style="stroke:#181818;stroke-width:0.5;" width="239.4629" x="140.2017" y="116.8428"/><text fill="#000000" font-family="Tahoma" font-size="18" lengthAdjust="spacing" textLength="219.4629" x="150.2017" y="144.8516">Login with stock permission</text><rect fill="#F1F1F1" height="41.7266" rx="12.5" ry="12.5" style="stroke:#181818;stroke-width:0.5;" width="423.8662" x="48" y="178.5693"/><text fill="#000000" font-family="Tahoma" font-size="18" lengthAdjust="spacing" textLength="403.8662" x="58" y="206.5781">Read quantity / threshold / target / active / history</text><rect fill="#F1F1F1" height="41.7266" rx="12.5" ry="12.5" style="stroke:#181818;stroke-width:0.5;" width="414.8486" x="52.5088" y="295.1035"/><text fill="#000000" font-family="Tahoma" font-size="18" lengthAdjust="spacing" textLength="394.8486" x="62.5088" y="323.1123">Create item, edit metadata or set active / inactive</text><polygon fill="#F1F1F1" points="125.4077,242.2402,394.4585,242.2402,406.4585,254.2402,394.4585,266.2402,125.4077,266.2402,113.4077,254.2402,125.4077,242.2402" style="stroke:#181818;stroke-width:0.5;"/><text fill="#000000" font-family="Tahoma" font-size="18" lengthAdjust="spacing" textLength="26.4727" x="263.9331" y="284.249">yes</text><text fill="#000000" font-family="Tahoma" font-size="18" lengthAdjust="spacing" textLength="269.0508" x="125.4077" y="261.3857">Manager changes item metadata?</text><text fill="#000000" font-family="Tahoma" font-size="18" lengthAdjust="spacing" textLength="19.8105" x="93.5972" y="250.5225">no</text><polygon fill="#F1F1F1" points="259.9331,607.9541,271.9331,619.9541,259.9331,631.9541,247.9331,619.9541,259.9331,607.9541" style="stroke:#181818;stroke-width:0.5;"/><rect fill="#F1F1F1" height="41.7266" rx="12.5" ry="12.5" style="stroke:#181818;stroke-width:0.5;" width="262.0332" x="128.9165" y="651.9541"/><text fill="#000000" font-family="Tahoma" font-size="18" lengthAdjust="spacing" textLength="242.0332" x="138.9165" y="679.9629">Choose stock-in or adjustment</text><rect fill="#F1F1F1" height="41.7266" rx="12.5" ry="12.5" style="stroke:#181818;stroke-width:0.5;" width="349.9678" x="84.9492" y="713.6807"/><text fill="#000000" font-family="Tahoma" font-size="18" lengthAdjust="spacing" textLength="329.9678" x="94.9492" y="741.6895">Enter quantity or signed delta and reason</text><line style="stroke:#000000;stroke-width:1.5;" x1="15" x2="15" y1="50.1162" y2="1418.8818"/><rect fill="#F1F1F1" height="41.7266" rx="12.5" ry="12.5" style="stroke:#181818;stroke-width:0.5;" width="306.2949" x="763.8132" y="356.8301"/><text fill="#000000" font-family="Tahoma" font-size="18" lengthAdjust="spacing" textLength="286.2949" x="773.8132" y="384.8389">Validate request and lock StockItem</text><polygon fill="#F1F1F1" points="719.4089,420.501,1114.5125,420.501,1126.5125,432.501,1114.5125,444.501,719.4089,444.501,707.4089,432.501,719.4089,420.501" style="stroke:#181818;stroke-width:0.5;"/><text fill="#000000" font-family="Tahoma" font-size="18" lengthAdjust="spacing" textLength="395.1035" x="719.4089" y="439.6465">SKU duplicate, or SKU/unit changed after history?</text><text fill="#000000" font-family="Tahoma" font-size="18" lengthAdjust="spacing" textLength="26.4727" x="680.9363" y="428.7832">yes</text><text fill="#000000" font-family="Tahoma" font-size="18" lengthAdjust="spacing" textLength="19.8105" x="1126.5125" y="428.7832">no</text><rect fill="#F1F1F1" height="41.7266" rx="12.5" ry="12.5" style="stroke:#181818;stroke-width:0.5;" width="143.7764" x="625.5208" y="454.501"/><text fill="#000000" font-family="Tahoma" font-size="18" lengthAdjust="spacing" textLength="123.7764" x="635.5208" y="482.5098">Reject with 409</text><rect fill="#F1F1F1" height="41.7266" rx="12.5" ry="12.5" style="stroke:#181818;stroke-width:0.5;" width="337.417" x="967.804" y="454.501"/><text fill="#000000" font-family="Tahoma" font-size="18" lengthAdjust="spacing" textLength="317.417" x="977.804" y="482.5098">Save metadata / opening target / active</text><rect fill="#F1F1F1" height="41.7266" rx="12.5" ry="12.5" style="stroke:#181818;stroke-width:0.5;" width="316.71" x="978.1575" y="516.2275"/><text fill="#000000" font-family="Tahoma" font-size="18" lengthAdjust="spacing" textLength="296.71" x="988.1575" y="544.2363">Keep quantity and history unchanged</text><polygon fill="#F1F1F1" points="916.9607,563.9541,928.9607,575.9541,916.9607,587.9541,904.9607,575.9541,916.9607,563.9541" style="stroke:#181818;stroke-width:0.5;"/><rect fill="#F1F1F1" height="41.7266" rx="12.5" ry="12.5" style="stroke:#181818;stroke-width:0.5;" width="148.4082" x="842.7566" y="775.4072"/><text fill="#000000" font-family="Tahoma" font-size="18" lengthAdjust="spacing" textLength="128.4082" x="852.7566" y="803.416">Validate request</text><rect fill="#F1F1F1" height="41.7266" rx="12.5" ry="12.5" style="stroke:#181818;stroke-width:0.5;" width="360.7344" x="736.5935" y="837.1338"/><text fill="#000000" font-family="Tahoma" font-size="18" lengthAdjust="spacing" textLength="340.7344" x="746.5935" y="865.1426">Lock StockItem in StockService transaction</text><rect fill="#F1F1F1" height="41.7266" rx="12.5" ry="12.5" style="stroke:#181818;stroke-width:0.5;" width="407.5537" x="713.1838" y="953.668"/><text fill="#000000" font-family="Tahoma" font-size="18" lengthAdjust="spacing" textLength="387.5537" x="723.1838" y="981.6768">Reject with 409 without changing item or history</text><ellipse cx="916.9607" cy="1031.0313" fill="transparent" rx="11" ry="11" style="stroke:#222222;stroke-width:1;"/><ellipse cx="916.9607" cy="1031.0313" fill="#222222" rx="6" ry="6" style="stroke:#222222;stroke-width:1;"/><polygon fill="#F1F1F1" points="860.9832,900.8047,972.9382,900.8047,984.9382,912.8047,972.9382,924.8047,860.9832,924.8047,848.9832,912.8047,860.9832,900.8047" style="stroke:#181818;stroke-width:0.5;"/><text fill="#000000" font-family="Tahoma" font-size="18" lengthAdjust="spacing" textLength="26.4727" x="920.9607" y="942.8135">yes</text><text fill="#000000" font-family="Tahoma" font-size="18" lengthAdjust="spacing" textLength="111.9551" x="860.9832" y="919.9502">Item inactive?</text><text fill="#000000" font-family="Tahoma" font-size="18" lengthAdjust="spacing" textLength="19.8105" x="984.9382" y="909.0869">no</text><rect fill="#F1F1F1" height="41.7266" rx="12.5" ry="12.5" style="stroke:#181818;stroke-width:0.5;" width="385.8359" x="724.0427" y="1084.0313"/><text fill="#000000" font-family="Tahoma" font-size="18" lengthAdjust="spacing" textLength="365.8359" x="734.0427" y="1112.04">Calculate next balance from current plus delta</text><polygon fill="#F1F1F1" points="824.7327,1147.7021,1009.1887,1147.7021,1021.1887,1159.7021,1009.1887,1171.7021,824.7327,1171.7021,812.7327,1159.7021,824.7327,1147.7021" style="stroke:#181818;stroke-width:0.5;"/><text fill="#000000" font-family="Tahoma" font-size="18" lengthAdjust="spacing" textLength="184.4561" x="824.7327" y="1166.8477">Next balance negative?</text><text fill="#000000" font-family="Tahoma" font-size="18" lengthAdjust="spacing" textLength="26.4727" x="786.26" y="1155.9844">yes</text><text fill="#000000" font-family="Tahoma" font-size="18" lengthAdjust="spacing" textLength="19.8105" x="1021.1887" y="1155.9844">no</text><rect fill="#F1F1F1" height="41.7266" rx="12.5" ry="12.5" style="stroke:#181818;stroke-width:0.5;" width="407.5537" x="481.8662" y="1181.7021"/><text fill="#000000" font-family="Tahoma" font-size="18" lengthAdjust="spacing" textLength="387.5537" x="491.8662" y="1209.7109">Reject with 400 without changing item or history</text><rect fill="#F1F1F1" height="41.7266" rx="12.5" ry="12.5" style="stroke:#181818;stroke-width:0.5;" width="168.4824" x="1064.0371" y="1181.7021"/><text fill="#000000" font-family="Tahoma" font-size="18" lengthAdjust="spacing" textLength="148.4824" x="1074.0371" y="1209.7109">Save item quantity</text><rect fill="#F1F1F1" height="41.7266" rx="12.5" ry="12.5" style="stroke:#181818;stroke-width:0.5;" width="477.7168" x="909.4199" y="1243.4287"/><text fill="#000000" font-family="Tahoma" font-size="18" lengthAdjust="spacing" textLength="457.7168" x="919.4199" y="1271.4375">Save IN / ADJUSTMENT with actor, reason, balance_after</text><rect fill="#F1F1F1" height="41.7266" rx="12.5" ry="12.5" style="stroke:#181818;stroke-width:0.5;" width="288.2773" x="1004.1396" y="1305.1553"/><text fill="#000000" font-family="Tahoma" font-size="18" lengthAdjust="spacing" textLength="268.2773" x="1014.1396" y="1333.1641">Commit item and history together</text><polygon fill="#F1F1F1" points="916.9607,1352.8818,928.9607,1364.8818,916.9607,1376.8818,904.9607,1364.8818,916.9607,1352.8818" style="stroke:#181818;stroke-width:0.5;"/><ellipse cx="916.9607" cy="1407.8818" fill="transparent" rx="11" ry="11" style="stroke:#222222;stroke-width:1;"/><ellipse cx="916.9607" cy="1407.8818" fill="#222222" rx="6" ry="6" style="stroke:#222222;stroke-width:1;"/><line style="stroke:#000000;stroke-width:1.5;" x1="475.8662" x2="475.8662" y1="50.1162" y2="1418.8818"/><line style="stroke:#000000;stroke-width:1.5;" x1="1391.1367" x2="1391.1367" y1="50.1162" y2="1418.8818"/><line style="stroke:#A54A2E;stroke-width:1;" x1="259.9331" x2="259.9331" y1="96.8428" y2="116.8428"/><polygon fill="#A54A2E" points="255.9331,106.8428,259.9331,116.8428,263.9331,106.8428,259.9331,110.8428" style="stroke:#A54A2E;stroke-width:1;"/><line style="stroke:#A54A2E;stroke-width:1;" x1="259.9331" x2="259.9331" y1="158.5693" y2="178.5693"/><polygon fill="#A54A2E" points="255.9331,168.5693,259.9331,178.5693,263.9331,168.5693,259.9331,172.5693" style="stroke:#A54A2E;stroke-width:1;"/><line style="stroke:#A54A2E;stroke-width:1;" x1="259.9331" x2="259.9331" y1="266.2402" y2="295.1035"/><polygon fill="#A54A2E" points="255.9331,285.1035,259.9331,295.1035,263.9331,285.1035,259.9331,289.1035" style="stroke:#A54A2E;stroke-width:1;"/><line style="stroke:#A54A2E;stroke-width:1;" x1="113.4077" x2="34" y1="254.2402" y2="254.2402"/><polygon fill="#A54A2E" points="30,425.001,34,435.001,38,425.001,34,429.001" style="stroke:#A54A2E;stroke-width:1;"/><line style="stroke:#A54A2E;stroke-width:1;" x1="34" x2="34" y1="254.2402" y2="619.9541"/><line style="stroke:#A54A2E;stroke-width:1;" x1="34" x2="247.9331" y1="619.9541" y2="619.9541"/><polygon fill="#A54A2E" points="237.9331,615.9541,247.9331,619.9541,237.9331,623.9541,241.9331,619.9541" style="stroke:#A54A2E;stroke-width:1;"/><line style="stroke:#A54A2E;stroke-width:1;" x1="259.9331" x2="259.9331" y1="220.2959" y2="242.2402"/><polygon fill="#A54A2E" points="255.9331,232.2402,259.9331,242.2402,263.9331,232.2402,259.9331,236.2402" style="stroke:#A54A2E;stroke-width:1;"/><line style="stroke:#A54A2E;stroke-width:1;" x1="259.9331" x2="259.9331" y1="631.9541" y2="651.9541"/><polygon fill="#A54A2E" points="255.9331,641.9541,259.9331,651.9541,263.9331,641.9541,259.9331,645.9541" style="stroke:#A54A2E;stroke-width:1;"/><line style="stroke:#A54A2E;stroke-width:1;" x1="259.9331" x2="259.9331" y1="693.6807" y2="713.6807"/><polygon fill="#A54A2E" points="255.9331,703.6807,259.9331,713.6807,263.9331,703.6807,259.9331,707.6807" style="stroke:#A54A2E;stroke-width:1;"/><line style="stroke:#A54A2E;stroke-width:1;" x1="1136.5125" x2="1136.5125" y1="496.2275" y2="516.2275"/><polygon fill="#A54A2E" points="1132.5125,506.2275,1136.5125,516.2275,1140.5125,506.2275,1136.5125,510.2275" style="stroke:#A54A2E;stroke-width:1;"/><line style="stroke:#A54A2E;stroke-width:1;" x1="707.4089" x2="697.4089" y1="432.501" y2="432.501"/><line style="stroke:#A54A2E;stroke-width:1;" x1="697.4089" x2="697.4089" y1="432.501" y2="454.501"/><polygon fill="#A54A2E" points="693.4089,444.501,697.4089,454.501,701.4089,444.501,697.4089,448.501" style="stroke:#A54A2E;stroke-width:1;"/><line style="stroke:#A54A2E;stroke-width:1;" x1="1126.5125" x2="1136.5125" y1="432.501" y2="432.501"/><line style="stroke:#A54A2E;stroke-width:1;" x1="1136.5125" x2="1136.5125" y1="432.501" y2="454.501"/><polygon fill="#A54A2E" points="1132.5125,444.501,1136.5125,454.501,1140.5125,444.501,1136.5125,448.501" style="stroke:#A54A2E;stroke-width:1;"/><line style="stroke:#A54A2E;stroke-width:1;" x1="697.4089" x2="697.4089" y1="496.2275" y2="575.9541"/><line style="stroke:#A54A2E;stroke-width:1;" x1="697.4089" x2="904.9607" y1="575.9541" y2="575.9541"/><polygon fill="#A54A2E" points="894.9607,571.9541,904.9607,575.9541,894.9607,579.9541,898.9607,575.9541" style="stroke:#A54A2E;stroke-width:1;"/><line style="stroke:#A54A2E;stroke-width:1;" x1="1136.5125" x2="1136.5125" y1="557.9541" y2="575.9541"/><line style="stroke:#A54A2E;stroke-width:1;" x1="1136.5125" x2="928.9607" y1="575.9541" y2="575.9541"/><polygon fill="#A54A2E" points="938.9607,571.9541,928.9607,575.9541,938.9607,579.9541,934.9607,575.9541" style="stroke:#A54A2E;stroke-width:1;"/><line style="stroke:#A54A2E;stroke-width:1;" x1="916.9607" x2="916.9607" y1="398.5566" y2="420.501"/><polygon fill="#A54A2E" points="912.9607,410.501,916.9607,420.501,920.9607,410.501,916.9607,414.501" style="stroke:#A54A2E;stroke-width:1;"/><line style="stroke:#A54A2E;stroke-width:1;" x1="916.9607" x2="916.9607" y1="817.1338" y2="837.1338"/><polygon fill="#A54A2E" points="912.9607,827.1338,916.9607,837.1338,920.9607,827.1338,916.9607,831.1338" style="stroke:#A54A2E;stroke-width:1;"/><line style="stroke:#A54A2E;stroke-width:1;" x1="916.9607" x2="916.9607" y1="995.3945" y2="1020.0313"/><polygon fill="#A54A2E" points="912.9607,1010.0313,916.9607,1020.0313,920.9607,1010.0313,916.9607,1014.0313" style="stroke:#A54A2E;stroke-width:1;"/><line style="stroke:#A54A2E;stroke-width:1;" x1="916.9607" x2="916.9607" y1="924.8047" y2="953.668"/><polygon fill="#A54A2E" points="912.9607,943.668,916.9607,953.668,920.9607,943.668,916.9607,947.668" style="stroke:#A54A2E;stroke-width:1;"/><line style="stroke:#A54A2E;stroke-width:1;" x1="984.9382" x2="1130.7375" y1="912.8047" y2="912.8047"/><polygon fill="#A54A2E" points="1126.7375,990.0313,1130.7375,1000.0313,1134.7375,990.0313,1130.7375,994.0313" style="stroke:#A54A2E;stroke-width:1;"/><line style="stroke:#A54A2E;stroke-width:1;" x1="1130.7375" x2="1130.7375" y1="912.8047" y2="1064.0313"/><line style="stroke:#A54A2E;stroke-width:1;" x1="1130.7375" x2="916.9607" y1="1064.0313" y2="1064.0313"/><line style="stroke:#A54A2E;stroke-width:1;" x1="916.9607" x2="916.9607" y1="1064.0313" y2="1084.0313"/><polygon fill="#A54A2E" points="912.9607,1074.0313,916.9607,1084.0313,920.9607,1074.0313,916.9607,1078.0313" style="stroke:#A54A2E;stroke-width:1;"/><line style="stroke:#A54A2E;stroke-width:1;" x1="916.9607" x2="916.9607" y1="878.8604" y2="900.8047"/><polygon fill="#A54A2E" points="912.9607,890.8047,916.9607,900.8047,920.9607,890.8047,916.9607,894.8047" style="stroke:#A54A2E;stroke-width:1;"/><line style="stroke:#A54A2E;stroke-width:1;" x1="1148.2783" x2="1148.2783" y1="1223.4287" y2="1243.4287"/><polygon fill="#A54A2E" points="1144.2783,1233.4287,1148.2783,1243.4287,1152.2783,1233.4287,1148.2783,1237.4287" style="stroke:#A54A2E;stroke-width:1;"/><line style="stroke:#A54A2E;stroke-width:1;" x1="1148.2783" x2="1148.2783" y1="1285.1553" y2="1305.1553"/><polygon fill="#A54A2E" points="1144.2783,1295.1553,1148.2783,1305.1553,1152.2783,1295.1553,1148.2783,1299.1553" style="stroke:#A54A2E;stroke-width:1;"/><line style="stroke:#A54A2E;stroke-width:1;" x1="812.7327" x2="685.6431" y1="1159.7021" y2="1159.7021"/><line style="stroke:#A54A2E;stroke-width:1;" x1="685.6431" x2="685.6431" y1="1159.7021" y2="1181.7021"/><polygon fill="#A54A2E" points="681.6431,1171.7021,685.6431,1181.7021,689.6431,1171.7021,685.6431,1175.7021" style="stroke:#A54A2E;stroke-width:1;"/><line style="stroke:#A54A2E;stroke-width:1;" x1="1021.1887" x2="1148.2783" y1="1159.7021" y2="1159.7021"/><line style="stroke:#A54A2E;stroke-width:1;" x1="1148.2783" x2="1148.2783" y1="1159.7021" y2="1181.7021"/><polygon fill="#A54A2E" points="1144.2783,1171.7021,1148.2783,1181.7021,1152.2783,1171.7021,1148.2783,1175.7021" style="stroke:#A54A2E;stroke-width:1;"/><line style="stroke:#A54A2E;stroke-width:1;" x1="685.6431" x2="685.6431" y1="1223.4287" y2="1364.8818"/><line style="stroke:#A54A2E;stroke-width:1;" x1="685.6431" x2="904.9607" y1="1364.8818" y2="1364.8818"/><polygon fill="#A54A2E" points="894.9607,1360.8818,904.9607,1364.8818,894.9607,1368.8818,898.9607,1364.8818" style="stroke:#A54A2E;stroke-width:1;"/><line style="stroke:#A54A2E;stroke-width:1;" x1="1148.2783" x2="1148.2783" y1="1346.8818" y2="1364.8818"/><line style="stroke:#A54A2E;stroke-width:1;" x1="1148.2783" x2="928.9607" y1="1364.8818" y2="1364.8818"/><polygon fill="#A54A2E" points="938.9607,1360.8818,928.9607,1364.8818,938.9607,1368.8818,934.9607,1364.8818" style="stroke:#A54A2E;stroke-width:1;"/><line style="stroke:#A54A2E;stroke-width:1;" x1="916.9607" x2="916.9607" y1="1125.7578" y2="1147.7021"/><polygon fill="#A54A2E" points="912.9607,1137.7021,916.9607,1147.7021,920.9607,1137.7021,916.9607,1141.7021" style="stroke:#A54A2E;stroke-width:1;"/><line style="stroke:#A54A2E;stroke-width:1;" x1="916.9607" x2="916.9607" y1="1376.8818" y2="1396.8818"/><polygon fill="#A54A2E" points="912.9607,1386.8818,916.9607,1396.8818,920.9607,1386.8818,916.9607,1390.8818" style="stroke:#A54A2E;stroke-width:1;"/><line style="stroke:#A54A2E;stroke-width:1;" x1="259.9331" x2="259.9331" y1="336.8301" y2="341.8301"/><line style="stroke:#A54A2E;stroke-width:1;" x1="259.9331" x2="916.9607" y1="341.8301" y2="341.8301"/><line style="stroke:#A54A2E;stroke-width:1;" x1="916.9607" x2="916.9607" y1="341.8301" y2="356.8301"/><polygon fill="#A54A2E" points="912.9607,346.8301,916.9607,356.8301,920.9607,346.8301,916.9607,350.8301" style="stroke:#A54A2E;stroke-width:1;"/><line style="stroke:#A54A2E;stroke-width:1;" x1="916.9607" x2="916.9607" y1="587.9541" y2="593.5225"/><line style="stroke:#A54A2E;stroke-width:1;" x1="916.9607" x2="259.9331" y1="593.5225" y2="593.5225"/><line style="stroke:#A54A2E;stroke-width:1;" x1="259.9331" x2="259.9331" y1="593.5225" y2="607.9541"/><polygon fill="#A54A2E" points="255.9331,597.9541,259.9331,607.9541,263.9331,597.9541,259.9331,601.9541" style="stroke:#A54A2E;stroke-width:1;"/><line style="stroke:#A54A2E;stroke-width:1;" x1="259.9331" x2="259.9331" y1="755.4072" y2="760.4072"/><line style="stroke:#A54A2E;stroke-width:1;" x1="259.9331" x2="916.9607" y1="760.4072" y2="760.4072"/><line style="stroke:#A54A2E;stroke-width:1;" x1="916.9607" x2="916.9607" y1="760.4072" y2="775.4072"/><polygon fill="#A54A2E" points="912.9607,765.4072,916.9607,775.4072,920.9607,765.4072,916.9607,769.4072" style="stroke:#A54A2E;stroke-width:1;"/><text fill="#000000" font-family="Tahoma" font-size="18" lengthAdjust="spacing" textLength="170.1914" x="160.3374" y="68.125">Manager / Supervisor</text><text fill="#000000" font-family="Tahoma" font-size="18" lengthAdjust="spacing" textLength="57.6387" x="904.6821" y="68.125">System</text><!--SRC=[ZLHDKzim4BtxLsodbp0D4w2XBScXauPaXb9og85hPx4tja2MZ3wWwV3ZkvATn1CofJVPUjhtzksJtjK6Ymf1uafx1xOYXmeJ-o1KZGOhi2Nc-bce0fOeBNLsxZ1xA8psAfzggGsydy_dPxDP1v7J4hrqSwtS0Yk2QonrXVi1gVX3SFobivb9j7RYd15ttj55fbN477KW4sFqSyi-EHrEJcQxvx-zARA1QPEJQI77dpzEXgST26PEctz3lAKCBRscEvbzEX_k0NQhjTATS98WTJfxW8gdK515oWLsyIJS2WxXzlWqV7gKq1EEAf1YITagusCVm8f2KSwUIeS7oSjLh61W0AcloJm9gyrBOXqQbun-w48eU1Qk11lv6549QuLMusJqap27Hu_A1Te1kDAGBRNCmnfDGOuNKHRneXHSmgp6YLX2RysQbQWAiX1LXb3bwF3h0PSY1RqLsOC4HbD3w2XY-a2vS1iai2sMt9P4g6OvJk0bNLa-yS85Rb6AF9GmzEZ9Cbxb84C_qSKBXl61e2kzl87Srr9a3E-7ylndu1LpDb9pmALZuMqtErA1FRcdp3MM3O_Ek2pnTO2Uqd4xHPQvKJy0NPCAbsR7hd70NXBLMtk3v9OKl6h5XF8g5qlkTlySj-GDRZGjjUPVSPg7F5lk4FDxRrt84Czqfa9t6zRWRoSlKGLFmuRvRmn-vUyu9AVhBi-b-KY3iep06LGsz1eA1UDRLDF-RW1sJ8sBy0n55u9zCJxQR3CM6gptT8yoyp8eLVJRyTCaKR6QfT5ymRqnuHxLqjkcsqRPeejKLE3R2e_-Gs4d5aqg8c9j_7ZzzsB14vsSVxz9hwzcY-k68Juq_NOG_RMuNp6PuUHKLnKdDbRiviPf3baPC8qVmQI_]--></g></svg>