<svg xmlns="http://www.w3.org/2000/svg" xmlns:xlink="http://www.w3.org/1999/xlink" version="1.1" data-diagram-type="ACTIVITY" style="width:1359px;height:1368px;background:#FFFFFF;" width="1359px" height="1368px" viewBox="0 0 1359 1368" zoomAndPan="magnify" preserveAspectRatio="none" contentStyleType="text/css"><?plantuml 1.2026.8?><defs/><g font-family="sans-serif" lengthAdjust="spacing"><g class="title" data-source-line="1"><text x="431.499" y="34.533" fill="#000" font-size="14" textLength="494.765" font-weight="700">Kitchen/Serving order fulfillment - role and State guards (develop d84f071)</text></g><rect x="20" y="56.064" width="1312.762" height="22.641" fill="none" style="stroke:none;"/><ellipse cx="132.167" cy="93.705" rx="10" ry="10" fill="#222" style="stroke:#222;stroke-width:1;"/><rect x="26" y="123.705" width="212.334" height="35.094" fill="#F1F1F1" style="stroke:#181818;stroke-width:0.5;" rx="12.5" ry="12.5"/><text x="36" y="146.162" fill="#000" font-size="12" textLength="192.334">ส่งคำสั่งอาหารผ่าน QR</text><line x1="20" y1="56.064" x2="20" y2="1347.205" style="stroke:#000;stroke-width:1.5;"/><rect x="401.941" y="178.799" width="99.008" height="35.094" fill="#F1F1F1" style="stroke:#181818;stroke-width:0.5;" rx="12.5" ry="12.5"/><text x="411.941" y="201.256" fill="#000" font-size="12" textLength="79.008">สร้าง Order</text><rect x="327.433" y="233.893" width="248.023" height="35.094" fill="#F1F1F1" style="stroke:#181818;stroke-width:0.5;" rx="12.5" ry="12.5"/><text x="337.433" y="256.35" fill="#000" font-size="12" textLength="228.023">ตั้งสถานะเริ่มต้น = RECEIVED</text><polygon points="388.332,344.08,514.558,344.08,526.558,356.08,514.558,368.08,388.332,368.08,376.332,356.08,388.332,344.08" fill="#F1F1F1" style="stroke:#181818;stroke-width:0.5;stroke-linejoin:miter;stroke-miterlimit:10;"/><text x="388.332" y="360.581" fill="#000" font-size="11" textLength="126.226">role = KITCHEN_STAFF?</text><text x="326.832" y="353.663" fill="#000" font-size="11" textLength="49.5">อนุญาต</text><text x="526.558" y="353.663" fill="#000" font-size="11" textLength="49.5">ปฏิเสธ</text><rect x="248.334" y="378.08" width="201.365" height="35.094" fill="#F1F1F1" style="stroke:#181818;stroke-width:0.5;" rx="12.5" ry="12.5"/><text x="258.334" y="400.537" fill="#000" font-size="12" textLength="181.365">แสดง RECEIVED / PREPARING</text><rect x="469.699" y="378.08" width="168.348" height="35.094" fill="#F1F1F1" style="stroke:#181818;stroke-width:0.5;" rx="12.5" ry="12.5"/><text x="479.699" y="400.537" fill="#000" font-size="12" textLength="148.348">ปฏิเสธการอ่าน (403)</text><polygon points="451.445,419.174,463.445,431.174,451.445,443.174,439.445,431.174,451.445,419.174" fill="#F1F1F1" style="stroke:#181818;stroke-width:0.5;stroke-linejoin:miter;stroke-miterlimit:10;"/><polygon points="354.561,518.268,548.329,518.268,560.329,530.268,548.329,542.268,354.561,542.268,342.561,530.268,354.561,518.268" fill="#F1F1F1" style="stroke:#181818;stroke-width:0.5;stroke-linejoin:miter;stroke-miterlimit:10;"/><text x="354.561" y="534.769" fill="#000" font-size="11" textLength="193.768">role ถูกต้องและเป็น next state?</text><text x="293.061" y="527.851" fill="#000" font-size="11" textLength="49.5">อนุญาต</text><text x="560.329" y="527.851" fill="#000" font-size="11" textLength="49.5">ปฏิเสธ</text><rect x="258.553" y="552.268" width="148.016" height="35.094" fill="#F1F1F1" style="stroke:#181818;stroke-width:0.5;" rx="12.5" ry="12.5"/><text x="268.553" y="574.725" fill="#000" font-size="12" textLength="128.016">บันทึก PREPARING</text><rect x="429.82" y="552.268" width="281.018" height="35.094" fill="#F1F1F1" style="stroke:#181818;stroke-width:0.5;" rx="12.5" ry="12.5"/><text x="439.82" y="574.725" fill="#000" font-size="12" textLength="261.018">ปฏิเสธคำขอ; state เดิมไม่เปลี่ยน</text><polygon points="451.445,593.361,463.445,605.361,451.445,617.361,439.445,605.361,451.445,593.361" fill="#F1F1F1" style="stroke:#181818;stroke-width:0.5;stroke-linejoin:miter;stroke-miterlimit:10;"/><polygon points="354.561,747.549,548.329,747.549,560.329,759.549,548.329,771.549,354.561,771.549,342.561,759.549,354.561,747.549" fill="#F1F1F1" style="stroke:#181818;stroke-width:0.5;stroke-linejoin:miter;stroke-miterlimit:10;"/><text x="354.561" y="764.05" fill="#000" font-size="11" textLength="193.768">role ถูกต้องและเป็น next state?</text><text x="293.061" y="757.132" fill="#000" font-size="11" textLength="49.5">อนุญาต</text><text x="560.329" y="757.132" fill="#000" font-size="11" textLength="49.5">ปฏิเสธ</text><rect x="273.222" y="781.549" width="118.678" height="35.094" fill="#F1F1F1" style="stroke:#181818;stroke-width:0.5;" rx="12.5" ry="12.5"/><text x="283.222" y="804.006" fill="#000" font-size="12" textLength="98.678">บันทึก READY</text><rect x="429.82" y="781.549" width="281.018" height="35.094" fill="#F1F1F1" style="stroke:#181818;stroke-width:0.5;" rx="12.5" ry="12.5"/><text x="439.82" y="804.006" fill="#000" font-size="12" textLength="261.018">ปฏิเสธคำขอ; state เดิมไม่เปลี่ยน</text><polygon points="451.445,822.643,463.445,834.643,451.445,846.643,439.445,834.643,451.445,822.643" fill="#F1F1F1" style="stroke:#181818;stroke-width:0.5;stroke-linejoin:miter;stroke-miterlimit:10;"/><polygon points="388.326,921.736,514.563,921.736,526.563,933.736,514.563,945.736,388.326,945.736,376.326,933.736,388.326,921.736" fill="#F1F1F1" style="stroke:#181818;stroke-width:0.5;stroke-linejoin:miter;stroke-miterlimit:10;"/><text x="388.326" y="938.237" fill="#000" font-size="11" textLength="126.237">role = SERVICE_STAFF?</text><text x="326.826" y="931.319" fill="#000" font-size="11" textLength="49.5">อนุญาต</text><text x="526.563" y="931.319" fill="#000" font-size="11" textLength="49.5">ปฏิเสธ</text><rect x="293.844" y="955.736" width="140.686" height="35.094" fill="#F1F1F1" style="stroke:#181818;stroke-width:0.5;" rx="12.5" ry="12.5"/><text x="303.844" y="978.193" fill="#000" font-size="12" textLength="120.686">แสดง READY Orders</text><rect x="454.529" y="955.736" width="168.348" height="35.094" fill="#F1F1F1" style="stroke:#181818;stroke-width:0.5;" rx="12.5" ry="12.5"/><text x="464.529" y="978.193" fill="#000" font-size="12" textLength="148.348">ปฏิเสธการอ่าน (403)</text><polygon points="451.445,996.83,463.445,1008.83,451.445,1020.83,439.445,1008.83,451.445,996.83" fill="#F1F1F1" style="stroke:#181818;stroke-width:0.5;stroke-linejoin:miter;stroke-miterlimit:10;"/><polygon points="354.561,1206.111,548.329,1206.111,560.329,1218.111,548.329,1230.111,354.561,1230.111,342.561,1218.111,354.561,1206.111" fill="#F1F1F1" style="stroke:#181818;stroke-width:0.5;stroke-linejoin:miter;stroke-miterlimit:10;"/><text x="354.561" y="1222.612" fill="#000" font-size="11" textLength="193.768">role ถูกต้องและเป็น next state?</text><text x="293.061" y="1215.694" fill="#000" font-size="11" textLength="49.5">อนุญาต</text><text x="560.329" y="1215.694" fill="#000" font-size="11" textLength="49.5">ปฏิเสธ</text><rect x="269.22" y="1240.111" width="126.682" height="35.094" fill="#F1F1F1" style="stroke:#181818;stroke-width:0.5;" rx="12.5" ry="12.5"/><text x="279.22" y="1262.568" fill="#000" font-size="12" textLength="106.682">บันทึก SERVED</text><rect x="429.82" y="1240.111" width="281.018" height="35.094" fill="#F1F1F1" style="stroke:#181818;stroke-width:0.5;" rx="12.5" ry="12.5"/><text x="439.82" y="1262.568" fill="#000" font-size="12" textLength="261.018">ปฏิเสธคำขอ; state เดิมไม่เปลี่ยน</text><polygon points="451.445,1281.205,463.445,1293.205,451.445,1305.205,439.445,1293.205,451.445,1281.205" fill="#F1F1F1" style="stroke:#181818;stroke-width:0.5;stroke-linejoin:miter;stroke-miterlimit:10;"/><ellipse cx="451.445" cy="1336.205" rx="11" ry="11" fill="none" style="stroke:#222;stroke-width:1;"/><ellipse cx="451.445" cy="1336.205" rx="6" ry="6" fill="#222" style="stroke:#222;stroke-width:1;"/><line x1="242.334" y1="56.064" x2="242.334" y2="1347.205" style="stroke:#000;stroke-width:1.5;"/><rect x="790.013" y="288.986" width="166.033" height="35.094" fill="#F1F1F1" style="stroke:#181818;stroke-width:0.5;" rx="12.5" ry="12.5"/><text x="800.013" y="311.443" fill="#000" font-size="12" textLength="146.033">ขออ่าน Incoming Orders</text><rect x="720.837" y="463.174" width="304.385" height="35.094" fill="#F1F1F1" style="stroke:#181818;stroke-width:0.5;" rx="12.5" ry="12.5"/><text x="730.837" y="485.631" fill="#000" font-size="12" textLength="284.385">ขอเริ่มทำ Order (RECEIVED → PREPARING)</text><rect x="738.026" y="637.361" width="270.008" height="35.094" fill="#F1F1F1" style="stroke:#181818;stroke-width:0.5;" rx="12.5" ry="12.5"/><text x="748.026" y="659.818" fill="#000" font-size="12" textLength="250.008">ปรุงและจัดเตรียมอาหารตาม Order</text><rect x="756.339" y="692.455" width="233.381" height="35.094" fill="#F1F1F1" style="stroke:#181818;stroke-width:0.5;" rx="12.5" ry="12.5"/><text x="766.339" y="714.912" fill="#000" font-size="12" textLength="213.381">ขอเปลี่ยน PREPARING → READY</text><line x1="714.837" y1="56.064" x2="714.837" y2="1347.205" style="stroke:#000;stroke-width:1.5;"/><rect x="1101.899" y="866.643" width="158.686" height="35.094" fill="#F1F1F1" style="stroke:#181818;stroke-width:0.5;" rx="12.5" ry="12.5"/><text x="1111.899" y="889.1" fill="#000" font-size="12" textLength="138.686">ขออ่าน READY Orders</text><rect x="1085.232" y="1040.83" width="192.02" height="35.094" fill="#F1F1F1" style="stroke:#181818;stroke-width:0.5;" rx="12.5" ry="12.5"/><text x="1095.232" y="1063.287" fill="#000" font-size="12" textLength="172.02">ตรวจสอบ Order ที่ READY</text><rect x="1040.742" y="1095.924" width="281" height="35.094" fill="#F1F1F1" style="stroke:#181818;stroke-width:0.5;" rx="12.5" ry="12.5"/><text x="1050.742" y="1118.381" fill="#000" font-size="12" textLength="261">นำอาหารไปส่งมอบที่โต๊ะลูกค้า</text><rect x="1035.222" y="1151.018" width="292.039" height="35.094" fill="#F1F1F1" style="stroke:#181818;stroke-width:0.5;" rx="12.5" ry="12.5"/><text x="1045.222" y="1173.475" fill="#000" font-size="12" textLength="272.039">ขอยืนยันการเสิร์ฟ (READY → SERVED)</text><line x1="1029.222" y1="56.064" x2="1029.222" y2="1347.205" style="stroke:#000;stroke-width:1.5;"/><line x1="1331.261" y1="56.064" x2="1331.261" y2="1347.205" style="stroke:#000;stroke-width:1.5;"/><line x1="132.167" y1="103.705" x2="132.167" y2="123.705" style="stroke:#181818;stroke-width:1;"/><polygon points="128.167,113.705,132.167,123.705,136.167,113.705,132.167,117.705" fill="#181818" style="stroke:#181818;stroke-width:1;stroke-linejoin:miter;stroke-miterlimit:10;"/><line x1="451.445" y1="213.893" x2="451.445" y2="233.893" style="stroke:#181818;stroke-width:1;"/><polygon points="447.445,223.893,451.445,233.893,455.445,223.893,451.445,227.893" fill="#181818" style="stroke:#181818;stroke-width:1;stroke-linejoin:miter;stroke-miterlimit:10;"/><line x1="376.332" y1="356.08" x2="349.017" y2="356.08" style="stroke:#181818;stroke-width:1;"/><line x1="349.017" y1="356.08" x2="349.017" y2="378.08" style="stroke:#181818;stroke-width:1;"/><polygon points="345.017,368.08,349.017,378.08,353.017,368.08,349.017,372.08" fill="#181818" style="stroke:#181818;stroke-width:1;stroke-linejoin:miter;stroke-miterlimit:10;"/><line x1="526.558" y1="356.08" x2="553.873" y2="356.08" style="stroke:#181818;stroke-width:1;"/><line x1="553.873" y1="356.08" x2="553.873" y2="378.08" style="stroke:#181818;stroke-width:1;"/><polygon points="549.873,368.08,553.873,378.08,557.873,368.08,553.873,372.08" fill="#181818" style="stroke:#181818;stroke-width:1;stroke-linejoin:miter;stroke-miterlimit:10;"/><line x1="349.017" y1="413.174" x2="349.017" y2="431.174" style="stroke:#181818;stroke-width:1;"/><line x1="349.017" y1="431.174" x2="439.445" y2="431.174" style="stroke:#181818;stroke-width:1;"/><polygon points="429.445,427.174,439.445,431.174,429.445,435.174,433.445,431.174" fill="#181818" style="stroke:#181818;stroke-width:1;stroke-linejoin:miter;stroke-miterlimit:10;"/><line x1="553.873" y1="413.174" x2="553.873" y2="431.174" style="stroke:#181818;stroke-width:1;"/><line x1="553.873" y1="431.174" x2="463.445" y2="431.174" style="stroke:#181818;stroke-width:1;"/><polygon points="473.445,427.174,463.445,431.174,473.445,435.174,469.445,431.174" fill="#181818" style="stroke:#181818;stroke-width:1;stroke-linejoin:miter;stroke-miterlimit:10;"/><line x1="342.561" y1="530.268" x2="332.561" y2="530.268" style="stroke:#181818;stroke-width:1;"/><line x1="332.561" y1="530.268" x2="332.561" y2="552.268" style="stroke:#181818;stroke-width:1;"/><polygon points="328.561,542.268,332.561,552.268,336.561,542.268,332.561,546.268" fill="#181818" style="stroke:#181818;stroke-width:1;stroke-linejoin:miter;stroke-miterlimit:10;"/><line x1="560.329" y1="530.268" x2="570.329" y2="530.268" style="stroke:#181818;stroke-width:1;"/><line x1="570.329" y1="530.268" x2="570.329" y2="552.268" style="stroke:#181818;stroke-width:1;"/><polygon points="566.329,542.268,570.329,552.268,574.329,542.268,570.329,546.268" fill="#181818" style="stroke:#181818;stroke-width:1;stroke-linejoin:miter;stroke-miterlimit:10;"/><line x1="332.561" y1="587.361" x2="332.561" y2="605.361" style="stroke:#181818;stroke-width:1;"/><line x1="332.561" y1="605.361" x2="439.445" y2="605.361" style="stroke:#181818;stroke-width:1;"/><polygon points="429.445,601.361,439.445,605.361,429.445,609.361,433.445,605.361" fill="#181818" style="stroke:#181818;stroke-width:1;stroke-linejoin:miter;stroke-miterlimit:10;"/><line x1="570.329" y1="587.361" x2="570.329" y2="605.361" style="stroke:#181818;stroke-width:1;"/><line x1="570.329" y1="605.361" x2="463.445" y2="605.361" style="stroke:#181818;stroke-width:1;"/><polygon points="473.445,601.361,463.445,605.361,473.445,609.361,469.445,605.361" fill="#181818" style="stroke:#181818;stroke-width:1;stroke-linejoin:miter;stroke-miterlimit:10;"/><line x1="342.561" y1="759.549" x2="332.561" y2="759.549" style="stroke:#181818;stroke-width:1;"/><line x1="332.561" y1="759.549" x2="332.561" y2="781.549" style="stroke:#181818;stroke-width:1;"/><polygon points="328.561,771.549,332.561,781.549,336.561,771.549,332.561,775.549" fill="#181818" style="stroke:#181818;stroke-width:1;stroke-linejoin:miter;stroke-miterlimit:10;"/><line x1="560.329" y1="759.549" x2="570.329" y2="759.549" style="stroke:#181818;stroke-width:1;"/><line x1="570.329" y1="759.549" x2="570.329" y2="781.549" style="stroke:#181818;stroke-width:1;"/><polygon points="566.329,771.549,570.329,781.549,574.329,771.549,570.329,775.549" fill="#181818" style="stroke:#181818;stroke-width:1;stroke-linejoin:miter;stroke-miterlimit:10;"/><line x1="332.561" y1="816.643" x2="332.561" y2="834.643" style="stroke:#181818;stroke-width:1;"/><line x1="332.561" y1="834.643" x2="439.445" y2="834.643" style="stroke:#181818;stroke-width:1;"/><polygon points="429.445,830.643,439.445,834.643,429.445,838.643,433.445,834.643" fill="#181818" style="stroke:#181818;stroke-width:1;stroke-linejoin:miter;stroke-miterlimit:10;"/><line x1="570.329" y1="816.643" x2="570.329" y2="834.643" style="stroke:#181818;stroke-width:1;"/><line x1="570.329" y1="834.643" x2="463.445" y2="834.643" style="stroke:#181818;stroke-width:1;"/><polygon points="473.445,830.643,463.445,834.643,473.445,838.643,469.445,834.643" fill="#181818" style="stroke:#181818;stroke-width:1;stroke-linejoin:miter;stroke-miterlimit:10;"/><line x1="376.326" y1="933.736" x2="364.187" y2="933.736" style="stroke:#181818;stroke-width:1;"/><line x1="364.187" y1="933.736" x2="364.187" y2="955.736" style="stroke:#181818;stroke-width:1;"/><polygon points="360.187,945.736,364.187,955.736,368.187,945.736,364.187,949.736" fill="#181818" style="stroke:#181818;stroke-width:1;stroke-linejoin:miter;stroke-miterlimit:10;"/><line x1="526.563" y1="933.736" x2="538.703" y2="933.736" style="stroke:#181818;stroke-width:1;"/><line x1="538.703" y1="933.736" x2="538.703" y2="955.736" style="stroke:#181818;stroke-width:1;"/><polygon points="534.703,945.736,538.703,955.736,542.703,945.736,538.703,949.736" fill="#181818" style="stroke:#181818;stroke-width:1;stroke-linejoin:miter;stroke-miterlimit:10;"/><line x1="364.187" y1="990.83" x2="364.187" y2="1008.83" style="stroke:#181818;stroke-width:1;"/><line x1="364.187" y1="1008.83" x2="439.445" y2="1008.83" style="stroke:#181818;stroke-width:1;"/><polygon points="429.445,1004.83,439.445,1008.83,429.445,1012.83,433.445,1008.83" fill="#181818" style="stroke:#181818;stroke-width:1;stroke-linejoin:miter;stroke-miterlimit:10;"/><line x1="538.703" y1="990.83" x2="538.703" y2="1008.83" style="stroke:#181818;stroke-width:1;"/><line x1="538.703" y1="1008.83" x2="463.445" y2="1008.83" style="stroke:#181818;stroke-width:1;"/><polygon points="473.445,1004.83,463.445,1008.83,473.445,1012.83,469.445,1008.83" fill="#181818" style="stroke:#181818;stroke-width:1;stroke-linejoin:miter;stroke-miterlimit:10;"/><line x1="342.561" y1="1218.111" x2="332.561" y2="1218.111" style="stroke:#181818;stroke-width:1;"/><line x1="332.561" y1="1218.111" x2="332.561" y2="1240.111" style="stroke:#181818;stroke-width:1;"/><polygon points="328.561,1230.111,332.561,1240.111,336.561,1230.111,332.561,1234.111" fill="#181818" style="stroke:#181818;stroke-width:1;stroke-linejoin:miter;stroke-miterlimit:10;"/><line x1="560.329" y1="1218.111" x2="570.329" y2="1218.111" style="stroke:#181818;stroke-width:1;"/><line x1="570.329" y1="1218.111" x2="570.329" y2="1240.111" style="stroke:#181818;stroke-width:1;"/><polygon points="566.329,1230.111,570.329,1240.111,574.329,1230.111,570.329,1234.111" fill="#181818" style="stroke:#181818;stroke-width:1;stroke-linejoin:miter;stroke-miterlimit:10;"/><line x1="332.561" y1="1275.205" x2="332.561" y2="1293.205" style="stroke:#181818;stroke-width:1;"/><line x1="332.561" y1="1293.205" x2="439.445" y2="1293.205" style="stroke:#181818;stroke-width:1;"/><polygon points="429.445,1289.205,439.445,1293.205,429.445,1297.205,433.445,1293.205" fill="#181818" style="stroke:#181818;stroke-width:1;stroke-linejoin:miter;stroke-miterlimit:10;"/><line x1="570.329" y1="1275.205" x2="570.329" y2="1293.205" style="stroke:#181818;stroke-width:1;"/><line x1="570.329" y1="1293.205" x2="463.445" y2="1293.205" style="stroke:#181818;stroke-width:1;"/><polygon points="473.445,1289.205,463.445,1293.205,473.445,1297.205,469.445,1293.205" fill="#181818" style="stroke:#181818;stroke-width:1;stroke-linejoin:miter;stroke-miterlimit:10;"/><line x1="451.445" y1="1305.205" x2="451.445" y2="1325.205" style="stroke:#181818;stroke-width:1;"/><polygon points="447.445,1315.205,451.445,1325.205,455.445,1315.205,451.445,1319.205" fill="#181818" style="stroke:#181818;stroke-width:1;stroke-linejoin:miter;stroke-miterlimit:10;"/><line x1="873.03" y1="672.455" x2="873.03" y2="692.455" style="stroke:#181818;stroke-width:1;"/><polygon points="869.03,682.455,873.03,692.455,877.03,682.455,873.03,686.455" fill="#181818" style="stroke:#181818;stroke-width:1;stroke-linejoin:miter;stroke-miterlimit:10;"/><line x1="1181.242" y1="1075.924" x2="1181.242" y2="1095.924" style="stroke:#181818;stroke-width:1;"/><polygon points="1177.242,1085.924,1181.242,1095.924,1185.242,1085.924,1181.242,1089.924" fill="#181818" style="stroke:#181818;stroke-width:1;stroke-linejoin:miter;stroke-miterlimit:10;"/><line x1="1181.242" y1="1131.018" x2="1181.242" y2="1151.018" style="stroke:#181818;stroke-width:1;"/><polygon points="1177.242,1141.018,1181.242,1151.018,1185.242,1141.018,1181.242,1145.018" fill="#181818" style="stroke:#181818;stroke-width:1;stroke-linejoin:miter;stroke-miterlimit:10;"/><line x1="132.167" y1="158.799" x2="132.167" y2="163.799" style="stroke:#181818;stroke-width:1;"/><line x1="132.167" y1="163.799" x2="451.445" y2="163.799" style="stroke:#181818;stroke-width:1;"/><line x1="451.445" y1="163.799" x2="451.445" y2="178.799" style="stroke:#181818;stroke-width:1;"/><polygon points="447.445,168.799,451.445,178.799,455.445,168.799,451.445,172.799" fill="#181818" style="stroke:#181818;stroke-width:1;stroke-linejoin:miter;stroke-miterlimit:10;"/><line x1="451.445" y1="268.986" x2="451.445" y2="273.986" style="stroke:#181818;stroke-width:1;"/><line x1="451.445" y1="273.986" x2="873.03" y2="273.986" style="stroke:#181818;stroke-width:1;"/><line x1="873.03" y1="273.986" x2="873.03" y2="288.986" style="stroke:#181818;stroke-width:1;"/><polygon points="869.03,278.986,873.03,288.986,877.03,278.986,873.03,282.986" fill="#181818" style="stroke:#181818;stroke-width:1;stroke-linejoin:miter;stroke-miterlimit:10;"/><line x1="873.03" y1="324.08" x2="873.03" y2="329.08" style="stroke:#181818;stroke-width:1;"/><line x1="873.03" y1="329.08" x2="451.445" y2="329.08" style="stroke:#181818;stroke-width:1;"/><line x1="451.445" y1="329.08" x2="451.445" y2="344.08" style="stroke:#181818;stroke-width:1;"/><polygon points="447.445,334.08,451.445,344.08,455.445,334.08,451.445,338.08" fill="#181818" style="stroke:#181818;stroke-width:1;stroke-linejoin:miter;stroke-miterlimit:10;"/><line x1="451.445" y1="443.174" x2="451.445" y2="448.174" style="stroke:#181818;stroke-width:1;"/><line x1="451.445" y1="448.174" x2="873.03" y2="448.174" style="stroke:#181818;stroke-width:1;"/><line x1="873.03" y1="448.174" x2="873.03" y2="463.174" style="stroke:#181818;stroke-width:1;"/><polygon points="869.03,453.174,873.03,463.174,877.03,453.174,873.03,457.174" fill="#181818" style="stroke:#181818;stroke-width:1;stroke-linejoin:miter;stroke-miterlimit:10;"/><line x1="873.03" y1="498.268" x2="873.03" y2="503.268" style="stroke:#181818;stroke-width:1;"/><line x1="873.03" y1="503.268" x2="451.445" y2="503.268" style="stroke:#181818;stroke-width:1;"/><line x1="451.445" y1="503.268" x2="451.445" y2="518.268" style="stroke:#181818;stroke-width:1;"/><polygon points="447.445,508.268,451.445,518.268,455.445,508.268,451.445,512.268" fill="#181818" style="stroke:#181818;stroke-width:1;stroke-linejoin:miter;stroke-miterlimit:10;"/><line x1="451.445" y1="617.361" x2="451.445" y2="622.361" style="stroke:#181818;stroke-width:1;"/><line x1="451.445" y1="622.361" x2="873.03" y2="622.361" style="stroke:#181818;stroke-width:1;"/><line x1="873.03" y1="622.361" x2="873.03" y2="637.361" style="stroke:#181818;stroke-width:1;"/><polygon points="869.03,627.361,873.03,637.361,877.03,627.361,873.03,631.361" fill="#181818" style="stroke:#181818;stroke-width:1;stroke-linejoin:miter;stroke-miterlimit:10;"/><line x1="873.03" y1="727.549" x2="873.03" y2="732.549" style="stroke:#181818;stroke-width:1;"/><line x1="873.03" y1="732.549" x2="451.445" y2="732.549" style="stroke:#181818;stroke-width:1;"/><line x1="451.445" y1="732.549" x2="451.445" y2="747.549" style="stroke:#181818;stroke-width:1;"/><polygon points="447.445,737.549,451.445,747.549,455.445,737.549,451.445,741.549" fill="#181818" style="stroke:#181818;stroke-width:1;stroke-linejoin:miter;stroke-miterlimit:10;"/><line x1="451.445" y1="846.643" x2="451.445" y2="851.643" style="stroke:#181818;stroke-width:1;"/><line x1="451.445" y1="851.643" x2="1181.242" y2="851.643" style="stroke:#181818;stroke-width:1;"/><line x1="1181.242" y1="851.643" x2="1181.242" y2="866.643" style="stroke:#181818;stroke-width:1;"/><polygon points="1177.242,856.643,1181.242,866.643,1185.242,856.643,1181.242,860.643" fill="#181818" style="stroke:#181818;stroke-width:1;stroke-linejoin:miter;stroke-miterlimit:10;"/><line x1="1181.242" y1="901.736" x2="1181.242" y2="906.736" style="stroke:#181818;stroke-width:1;"/><line x1="1181.242" y1="906.736" x2="451.445" y2="906.736" style="stroke:#181818;stroke-width:1;"/><line x1="451.445" y1="906.736" x2="451.445" y2="921.736" style="stroke:#181818;stroke-width:1;"/><polygon points="447.445,911.736,451.445,921.736,455.445,911.736,451.445,915.736" fill="#181818" style="stroke:#181818;stroke-width:1;stroke-linejoin:miter;stroke-miterlimit:10;"/><line x1="451.445" y1="1020.83" x2="451.445" y2="1025.83" style="stroke:#181818;stroke-width:1;"/><line x1="451.445" y1="1025.83" x2="1181.242" y2="1025.83" style="stroke:#181818;stroke-width:1;"/><line x1="1181.242" y1="1025.83" x2="1181.242" y2="1040.83" style="stroke:#181818;stroke-width:1;"/><polygon points="1177.242,1030.83,1181.242,1040.83,1185.242,1030.83,1181.242,1034.83" fill="#181818" style="stroke:#181818;stroke-width:1;stroke-linejoin:miter;stroke-miterlimit:10;"/><line x1="1181.242" y1="1186.111" x2="1181.242" y2="1191.111" style="stroke:#181818;stroke-width:1;"/><line x1="1181.242" y1="1191.111" x2="451.445" y2="1191.111" style="stroke:#181818;stroke-width:1;"/><line x1="451.445" y1="1191.111" x2="451.445" y2="1206.111" style="stroke:#181818;stroke-width:1;"/><polygon points="447.445,1196.111,451.445,1206.111,455.445,1196.111,451.445,1200.111" fill="#181818" style="stroke:#181818;stroke-width:1;stroke-linejoin:miter;stroke-miterlimit:10;"/><text x="92.157" y="74.75" fill="#000" font-size="18" textLength="78.021">Customer</text><text x="448.58" y="74.75" fill="#000" font-size="18" textLength="60.012">System</text><text x="821" y="74.75" fill="#000" font-size="18" textLength="102.059">Kitchen Staff</text><text x="1129.221" y="74.75" fill="#000" font-size="18" textLength="102.041">Service Staff</text><?plantuml-src nLNHQXD157tVhxYFsGTfnOAIK4f8jheKQjsKWayIihDrORDRTYT58Gzj2IOjIa4IjOaWgHIX4b3RwkpV37w9S-zccvXe44MIXsKpS-VCEUUUcUKkznYikRpocFaB9HRkklus1A7DGd1gdkDwNfNv76v06AZ2icz3YPSvW-rQERGZoDXibtd13jXtbfp5spTrJQiNQX4FgYoiQn4lXrpBId4kuvOKJIaQKbpWN_4v7Hb8yKMAZ_HyByLR6bVl9_30oYcqqjE8isezGL4LyI5DD-4-aipXU8VW3WbErRnAralnISPx17f9e7sinB8JM0RBA1Zcbb74BORoKPdZq4u7n6imucBwbQ2Arj2kqJWnru4CcRCCQ-PcuPwn_gYqcLzTNT618sg6i1GT8SKBWkle6gXVLiRxHBYDSb92i00Rbh6HjyprkpcDUH53X9uKnwHZZrQyIH6c9gJOJwqSevzPMhobApJVTftV2vvqwxLgLY8OCjVqlZzxEIAe_z88Qa5CJ1B31zWQ57kMDgKduoOIyzaJ3X4cwW_i4briDCufPbyL_ZywbOGHfUSI3a2JRQnI-kC6FLj3maZ-YgmvLHnccTaZ6yLFeaMBkBS9h4C5LuJKdpe27Nhffm6VsQv9MYD7g56MaIy-d7EFXXpcrX-wr2firkacYhEFTicmjio2yPT7Unp-_npfQPL9o3vGyiw9Q7TucAatQ5NQcoo9k9XC8XhS6xkyawXshvVB-83ISqG1Fqlpr4ZkwDp8QjMGRxJ5QHgELD5GuoMzFvVY7Tuqw1Qc5pqtYlE-On8Mymkm-fZk_000?></g></svg>