<svg xmlns="http://www.w3.org/2000/svg" xmlns:xlink="http://www.w3.org/1999/xlink" contentStyleType="text/css" data-diagram-type="CLASS" height="838px" preserveAspectRatio="none" style="width:2162px;height:838px;background:#FFFDF9;" version="1.1" viewBox="0 0 2162 838" width="2162px" zoomAndPan="magnify"><title>Behavioral Template Method - actual Stock classes</title><defs/><g><rect fill="#FFFDF9" height="838" style="stroke:transparent;stroke-width:1;" width="2162" x="0" y="0"/><text fill="#000000" font-family="Tahoma" font-size="14" font-weight="bold" lengthAdjust="spacing" textLength="356.583" x="898.7085" y="24.0068">Behavioral Template Method - actual Stock classes</text><!--class StockTransactionTemplate--><g id="elem_StockTransactionTemplate"><rect codeLine="7" fill="#F1F1F1" height="98.6953" id="StockTransactionTemplate" rx="2.5" ry="2.5" style="stroke:#181818;stroke-width:0.5;" width="418.0342" x="580" y="559.8984"/><ellipse cx="703.3271" cy="575.8984" fill="#A9DCDF" rx="11" ry="11" style="stroke:#181818;stroke-width:1;"/><path d="M705.5146,577.6641 L701.374,577.6641 L700.9521,578.6953 L701.374,578.6953 Q701.9834,578.6953 702.249,578.9297 Q702.5146,579.1641 702.5146,579.5547 Q702.5146,579.9297 702.249,580.1641 Q701.9834,580.3984 701.374,580.3984 L699.0771,580.3984 Q698.4678,580.3984 698.2178,580.1641 Q697.9521,579.9297 697.9521,579.5391 Q697.9521,579.1641 698.2334,578.9297 Q698.499,578.6797 699.124,578.6953 L701.7959,572.0391 L700.6865,572.0391 Q700.0771,572.0391 699.8115,571.8047 Q699.5459,571.5703 699.5459,571.1797 Q699.5459,570.8047 699.8115,570.5703 Q700.0771,570.3359 700.6865,570.3359 L704.3584,570.3359 L707.749,578.6953 Q708.3428,578.6953 708.5303,578.8359 Q708.9209,579.1016 708.9209,579.5547 Q708.9209,579.9297 708.6553,580.1641 Q708.4053,580.3984 707.7959,580.3984 L705.499,580.3984 Q704.8896,580.3984 704.624,580.1641 Q704.3584,579.9297 704.3584,579.5391 Q704.3584,579.1641 704.624,578.9297 Q704.8896,578.6953 705.499,578.6953 L705.9209,578.6953 L705.5146,577.6641 Z M704.7959,575.9609 L703.4365,572.5859 L702.0615,575.9609 L704.7959,575.9609 Z " fill="#000000"/><text fill="#000000" font-family="Tahoma" font-size="14" font-style="italic" lengthAdjust="spacing" textLength="162.8799" x="723.8271" y="581.4561">StockTransactionTemplate</text><line style="stroke:#181818;stroke-width:0.5;" x1="581" x2="997.0342" y1="591.8984" y2="591.8984"/><line style="stroke:#181818;stroke-width:0.5;" x1="581" x2="997.0342" y1="599.8984" y2="599.8984"/><text fill="#000000" font-family="Tahoma" font-size="14" lengthAdjust="spacing" textLength="406.0342" x="586" y="617.9053">+{final} process(item, quantity, reason, actor) : StockTransaction</text><text fill="#000000" font-family="Tahoma" font-size="14" font-style="italic" lengthAdjust="spacing" textLength="238.8271" x="586" y="634.8037">#calculateDelta(quantity) : BigDecimal</text><text fill="#000000" font-family="Tahoma" font-size="14" font-style="italic" lengthAdjust="spacing" textLength="268.584" x="586" y="651.7021">#transactionType() : StockTransactionType</text></g><!--class StockTransactionProcessor--><g id="elem_StockTransactionProcessor"><rect codeLine="12" fill="#F1F1F1" height="64.8984" id="StockTransactionProcessor" rx="2.5" ry="2.5" style="stroke:#181818;stroke-width:0.5;" width="374.1953" x="707" y="397.8984"/><ellipse cx="807.5601" cy="413.8984" fill="#B4A7E5" rx="11" ry="11" style="stroke:#181818;stroke-width:1;"/><path d="M808.5132,410.5391 L808.5132,417.1953 L810.2319,417.1953 Q810.8413,417.1953 811.1069,417.4297 Q811.3726,417.6641 811.3726,418.0547 Q811.3726,418.4297 811.1069,418.6641 Q810.8413,418.8984 810.2319,418.8984 L805.0913,418.8984 Q804.4819,418.8984 804.2163,418.6641 Q803.9507,418.4297 803.9507,418.0391 Q803.9507,417.6641 804.2163,417.4297 Q804.4819,417.1953 805.0913,417.1953 L806.8101,417.1953 L806.8101,410.5391 L805.0913,410.5391 Q804.4819,410.5391 804.2163,410.3047 Q803.9507,410.0703 803.9507,409.6797 Q803.9507,409.3047 804.2163,409.0703 Q804.4819,408.8359 805.0913,408.8359 L810.2319,408.8359 Q810.8413,408.8359 811.1069,409.0703 Q811.3726,409.3047 811.3726,409.6797 Q811.3726,410.0703 811.1069,410.3047 Q810.8413,410.5391 810.2319,410.5391 L808.5132,410.5391 Z " fill="#000000"/><text fill="#000000" font-family="Tahoma" font-size="14" font-style="italic" lengthAdjust="spacing" textLength="164.5752" x="828.0601" y="419.4561">StockTransactionProcessor</text><line style="stroke:#181818;stroke-width:0.5;" x1="708" x2="1080.1953" y1="429.8984" y2="429.8984"/><line style="stroke:#181818;stroke-width:0.5;" x1="708" x2="1080.1953" y1="437.8984" y2="437.8984"/><text fill="#000000" font-family="Tahoma" font-size="14" lengthAdjust="spacing" textLength="362.1953" x="713" y="455.9053">+process(item, quantity, reason, actor) : StockTransaction</text></g><!--class StockInProcessor--><g id="elem_StockInProcessor"><rect codeLine="15" fill="#F1F1F1" height="48" id="StockInProcessor" rx="2.5" ry="2.5" style="stroke:#181818;stroke-width:0.5;" width="137.8818" x="6" y="739.8984"/><ellipse cx="21" cy="755.8984" fill="#ADD1B2" rx="11" ry="11" style="stroke:#181818;stroke-width:1;"/><path d="M23.7656,751.7734 Q23.9219,751.5547 24.1094,751.4453 Q24.2969,751.3359 24.5156,751.3359 Q24.8906,751.3359 25.125,751.6016 Q25.3594,751.8516 25.3594,752.4609 L25.3594,753.9141 Q25.3594,754.5234 25.125,754.7891 Q24.8906,755.0547 24.5156,755.0547 Q24.1719,755.0547 23.9688,754.8516 Q23.7656,754.6641 23.6563,754.1484 Q23.6094,753.7891 23.4219,753.6016 Q23.0938,753.2266 22.4844,753.0078 Q21.875,752.7891 21.25,752.7891 Q20.4844,752.7891 19.8438,753.1172 Q19.2188,753.4453 18.7188,754.1953 Q18.2344,754.9453 18.2344,755.9766 L18.2344,757.0703 Q18.2344,758.3047 19.125,759.1328 Q20.0156,759.9453 21.6094,759.9453 Q22.5469,759.9453 23.2031,759.6953 Q23.5938,759.5391 24.0156,759.1016 Q24.2813,758.8359 24.4219,758.7578 Q24.5781,758.6797 24.7813,758.6797 Q25.1094,758.6797 25.3594,758.9453 Q25.625,759.1953 25.625,759.5391 Q25.625,759.8828 25.2813,760.2891 Q24.7813,760.8672 23.9844,761.1953 Q22.9063,761.6484 21.6094,761.6484 Q20.0938,761.6484 18.8906,761.0234 Q17.9063,760.5234 17.2188,759.4609 Q16.5313,758.3828 16.5313,757.1016 L16.5313,755.9453 Q16.5313,754.6172 17.1406,753.4766 Q17.7656,752.3203 18.8594,751.7109 Q19.9531,751.0859 21.1875,751.0859 Q21.9219,751.0859 22.5625,751.2578 Q23.2188,751.4141 23.7656,751.7734 Z " fill="#000000"/><text fill="#000000" font-family="Tahoma" font-size="14" lengthAdjust="spacing" textLength="105.8818" x="35" y="761.4561">StockInProcessor</text><line style="stroke:#181818;stroke-width:0.5;" x1="7" x2="142.8818" y1="771.8984" y2="771.8984"/><line style="stroke:#181818;stroke-width:0.5;" x1="7" x2="142.8818" y1="779.8984" y2="779.8984"/></g><!--class StockAdjustmentProcessor--><g id="elem_StockAdjustmentProcessor"><rect codeLine="16" fill="#F1F1F1" height="48" id="StockAdjustmentProcessor" rx="2.5" ry="2.5" style="stroke:#181818;stroke-width:0.5;" width="195.2832" x="162.5" y="739.8984"/><ellipse cx="177.5" cy="755.8984" fill="#ADD1B2" rx="11" ry="11" style="stroke:#181818;stroke-width:1;"/><path d="M180.2656,751.7734 Q180.4219,751.5547 180.6094,751.4453 Q180.7969,751.3359 181.0156,751.3359 Q181.3906,751.3359 181.625,751.6016 Q181.8594,751.8516 181.8594,752.4609 L181.8594,753.9141 Q181.8594,754.5234 181.625,754.7891 Q181.3906,755.0547 181.0156,755.0547 Q180.6719,755.0547 180.4688,754.8516 Q180.2656,754.6641 180.1563,754.1484 Q180.1094,753.7891 179.9219,753.6016 Q179.5938,753.2266 178.9844,753.0078 Q178.375,752.7891 177.75,752.7891 Q176.9844,752.7891 176.3438,753.1172 Q175.7188,753.4453 175.2188,754.1953 Q174.7344,754.9453 174.7344,755.9766 L174.7344,757.0703 Q174.7344,758.3047 175.625,759.1328 Q176.5156,759.9453 178.1094,759.9453 Q179.0469,759.9453 179.7031,759.6953 Q180.0938,759.5391 180.5156,759.1016 Q180.7813,758.8359 180.9219,758.7578 Q181.0781,758.6797 181.2813,758.6797 Q181.6094,758.6797 181.8594,758.9453 Q182.125,759.1953 182.125,759.5391 Q182.125,759.8828 181.7813,760.2891 Q181.2813,760.8672 180.4844,761.1953 Q179.4063,761.6484 178.1094,761.6484 Q176.5938,761.6484 175.3906,761.0234 Q174.4063,760.5234 173.7188,759.4609 Q173.0313,758.3828 173.0313,757.1016 L173.0313,755.9453 Q173.0313,754.6172 173.6406,753.4766 Q174.2656,752.3203 175.3594,751.7109 Q176.4531,751.0859 177.6875,751.0859 Q178.4219,751.0859 179.0625,751.2578 Q179.7188,751.4141 180.2656,751.7734 Z " fill="#000000"/><text fill="#000000" font-family="Tahoma" font-size="14" lengthAdjust="spacing" textLength="163.2832" x="191.5" y="761.4561">StockAdjustmentProcessor</text><line style="stroke:#181818;stroke-width:0.5;" x1="163.5" x2="356.7832" y1="771.8984" y2="771.8984"/><line style="stroke:#181818;stroke-width:0.5;" x1="163.5" x2="356.7832" y1="779.8984" y2="779.8984"/></g><!--class StockService--><g id="elem_StockService"><rect codeLine="17" fill="#F1F1F1" height="166.2891" id="StockService" rx="2.5" ry="2.5" style="stroke:#181818;stroke-width:0.5;" width="305.7471" x="1082" y="92.3984"/><ellipse cx="1191.7578" cy="108.3984" fill="#ADD1B2" rx="11" ry="11" style="stroke:#181818;stroke-width:1;"/><path d="M1194.5234,104.2734 Q1194.6797,104.0547 1194.8672,103.9453 Q1195.0547,103.8359 1195.2734,103.8359 Q1195.6484,103.8359 1195.8828,104.1016 Q1196.1172,104.3516 1196.1172,104.9609 L1196.1172,106.4141 Q1196.1172,107.0234 1195.8828,107.2891 Q1195.6484,107.5547 1195.2734,107.5547 Q1194.9297,107.5547 1194.7266,107.3516 Q1194.5234,107.1641 1194.4141,106.6484 Q1194.3672,106.2891 1194.1797,106.1016 Q1193.8516,105.7266 1193.2422,105.5078 Q1192.6328,105.2891 1192.0078,105.2891 Q1191.2422,105.2891 1190.6016,105.6172 Q1189.9766,105.9453 1189.4766,106.6953 Q1188.9922,107.4453 1188.9922,108.4766 L1188.9922,109.5703 Q1188.9922,110.8047 1189.8828,111.6328 Q1190.7734,112.4453 1192.3672,112.4453 Q1193.3047,112.4453 1193.9609,112.1953 Q1194.3516,112.0391 1194.7734,111.6016 Q1195.0391,111.3359 1195.1797,111.2578 Q1195.3359,111.1797 1195.5391,111.1797 Q1195.8672,111.1797 1196.1172,111.4453 Q1196.3828,111.6953 1196.3828,112.0391 Q1196.3828,112.3828 1196.0391,112.7891 Q1195.5391,113.3672 1194.7422,113.6953 Q1193.6641,114.1484 1192.3672,114.1484 Q1190.8516,114.1484 1189.6484,113.5234 Q1188.6641,113.0234 1187.9766,111.9609 Q1187.2891,110.8828 1187.2891,109.6016 L1187.2891,108.4453 Q1187.2891,107.1172 1187.8984,105.9766 Q1188.5234,104.8203 1189.6172,104.2109 Q1190.7109,103.5859 1191.9453,103.5859 Q1192.6797,103.5859 1193.3203,103.7578 Q1193.9766,103.9141 1194.5234,104.2734 Z " fill="#000000"/><text fill="#000000" font-family="Tahoma" font-size="14" lengthAdjust="spacing" textLength="77.7314" x="1212.2578" y="113.9561">StockService</text><line style="stroke:#181818;stroke-width:0.5;" x1="1083" x2="1386.7471" y1="124.3984" y2="124.3984"/><line style="stroke:#181818;stroke-width:0.5;" x1="1083" x2="1386.7471" y1="132.3984" y2="132.3984"/><text fill="#000000" font-family="Tahoma" font-size="14" lengthAdjust="spacing" textLength="269.7871" x="1088" y="150.4053">+createItem(request) : StockItemResponse</text><text fill="#000000" font-family="Tahoma" font-size="14" lengthAdjust="spacing" textLength="293.7471" x="1088" y="167.3037">+updateItem(id, request) : StockItemResponse</text><text fill="#000000" font-family="Tahoma" font-size="14" lengthAdjust="spacing" textLength="267.1826" x="1088" y="184.2021">+setActive(id, active) : StockItemResponse</text><text fill="#000000" font-family="Tahoma" font-size="14" lengthAdjust="spacing" textLength="75.8242" x="1088" y="201.1006">+overview()</text><text fill="#000000" font-family="Tahoma" font-size="14" lengthAdjust="spacing" textLength="171.459" x="1088" y="217.999">+stockIn(id, request, actor)</text><text fill="#000000" font-family="Tahoma" font-size="14" lengthAdjust="spacing" textLength="164.2334" x="1088" y="234.8975">+adjust(id, request, actor)</text><text fill="#000000" font-family="Tahoma" font-size="14" lengthAdjust="spacing" textLength="102.4297" x="1088" y="251.7959">+history(itemId)</text></g><!--class StockItem--><g id="elem_StockItem"><rect codeLine="26" fill="#F1F1F1" height="250.7813" id="StockItem" rx="2.5" ry="2.5" style="stroke:#181818;stroke-width:0.5;" width="318.4824" x="1837" y="49.8984"/><ellipse cx="1960.7168" cy="65.8984" fill="#ADD1B2" rx="11" ry="11" style="stroke:#181818;stroke-width:1;"/><path d="M1963.4824,61.7734 Q1963.6387,61.5547 1963.8262,61.4453 Q1964.0137,61.3359 1964.2324,61.3359 Q1964.6074,61.3359 1964.8418,61.6016 Q1965.0762,61.8516 1965.0762,62.4609 L1965.0762,63.9141 Q1965.0762,64.5234 1964.8418,64.7891 Q1964.6074,65.0547 1964.2324,65.0547 Q1963.8887,65.0547 1963.6855,64.8516 Q1963.4824,64.6641 1963.373,64.1484 Q1963.3262,63.7891 1963.1387,63.6016 Q1962.8105,63.2266 1962.2012,63.0078 Q1961.5918,62.7891 1960.9668,62.7891 Q1960.2012,62.7891 1959.5605,63.1172 Q1958.9355,63.4453 1958.4355,64.1953 Q1957.9512,64.9453 1957.9512,65.9766 L1957.9512,67.0703 Q1957.9512,68.3047 1958.8418,69.1328 Q1959.7324,69.9453 1961.3262,69.9453 Q1962.2637,69.9453 1962.9199,69.6953 Q1963.3105,69.5391 1963.7324,69.1016 Q1963.998,68.8359 1964.1387,68.7578 Q1964.2949,68.6797 1964.498,68.6797 Q1964.8262,68.6797 1965.0762,68.9453 Q1965.3418,69.1953 1965.3418,69.5391 Q1965.3418,69.8828 1964.998,70.2891 Q1964.498,70.8672 1963.7012,71.1953 Q1962.623,71.6484 1961.3262,71.6484 Q1959.8105,71.6484 1958.6074,71.0234 Q1957.623,70.5234 1956.9355,69.4609 Q1956.248,68.3828 1956.248,67.1016 L1956.248,65.9453 Q1956.248,64.6172 1956.8574,63.4766 Q1957.4824,62.3203 1958.5762,61.7109 Q1959.6699,61.0859 1960.9043,61.0859 Q1961.6387,61.0859 1962.2793,61.2578 Q1962.9355,61.4141 1963.4824,61.7734 Z " fill="#000000"/><text fill="#000000" font-family="Tahoma" font-size="14" lengthAdjust="spacing" textLength="62.5488" x="1981.2168" y="71.4561">StockItem</text><line style="stroke:#181818;stroke-width:0.5;" x1="1838" x2="2154.4824" y1="81.8984" y2="81.8984"/><text fill="#000000" font-family="Tahoma" font-size="14" lengthAdjust="spacing" textLength="70.998" x="1843" y="99.9053">sku : String</text><text fill="#000000" font-family="Tahoma" font-size="14" lengthAdjust="spacing" textLength="84.2529" x="1843" y="116.8037">name : String</text><text fill="#000000" font-family="Tahoma" font-size="14" lengthAdjust="spacing" textLength="73.4658" x="1843" y="133.7021">unit : String</text><text fill="#000000" font-family="Tahoma" font-size="14" lengthAdjust="spacing" textLength="131.9541" x="1843" y="150.6006">quantity : BigDecimal</text><text fill="#000000" font-family="Tahoma" font-size="14" lengthAdjust="spacing" textLength="197.415" x="1843" y="167.499">lowStockThreshold : BigDecimal</text><line style="stroke:#181818;stroke-width:0.5;" x1="1838" x2="2154.4824" y1="174.3906" y2="174.3906"/><text fill="#000000" font-family="Tahoma" font-size="14" lengthAdjust="spacing" textLength="243.585" x="1843" y="192.3975">openingTargetStock : BigDecimal (V15)</text><text fill="#000000" font-family="Tahoma" font-size="14" lengthAdjust="spacing" textLength="137.1289" x="1843" y="209.2959">active : boolean (V15)</text><text fill="#000000" font-family="Tahoma" font-size="14" lengthAdjust="spacing" textLength="306.4824" x="1843" y="226.1943">+updateDetails(sku, name, unit, threshold) : void</text><text fill="#000000" font-family="Tahoma" font-size="14" lengthAdjust="spacing" textLength="231.5879" x="1843" y="243.0928">+updateOpeningTarget(target) : void</text><text fill="#000000" font-family="Tahoma" font-size="14" lengthAdjust="spacing" textLength="177.7549" x="1843" y="259.9912">+changeActive(active) : void</text><text fill="#000000" font-family="Tahoma" font-size="14" lengthAdjust="spacing" textLength="173.5508" x="1843" y="276.8896">+getShortfall() : BigDecimal</text><text fill="#000000" font-family="Tahoma" font-size="14" lengthAdjust="spacing" textLength="155.5449" x="1843" y="293.7881">+applyDelta(delta) : void</text></g><!--class StockTransaction--><g id="elem_StockTransaction"><rect codeLine="40" fill="#F1F1F1" height="149.3906" id="StockTransaction" rx="2.5" ry="2.5" style="stroke:#181818;stroke-width:0.5;" width="309.4248" x="1841.5" y="355.8984"/><ellipse cx="1939.3428" cy="371.8984" fill="#ADD1B2" rx="11" ry="11" style="stroke:#181818;stroke-width:1;"/><path d="M1942.1084,367.7734 Q1942.2646,367.5547 1942.4521,367.4453 Q1942.6396,367.3359 1942.8584,367.3359 Q1943.2334,367.3359 1943.4678,367.6016 Q1943.7021,367.8516 1943.7021,368.4609 L1943.7021,369.9141 Q1943.7021,370.5234 1943.4678,370.7891 Q1943.2334,371.0547 1942.8584,371.0547 Q1942.5146,371.0547 1942.3115,370.8516 Q1942.1084,370.6641 1941.999,370.1484 Q1941.9521,369.7891 1941.7646,369.6016 Q1941.4365,369.2266 1940.8271,369.0078 Q1940.2178,368.7891 1939.5928,368.7891 Q1938.8271,368.7891 1938.1865,369.1172 Q1937.5615,369.4453 1937.0615,370.1953 Q1936.5771,370.9453 1936.5771,371.9766 L1936.5771,373.0703 Q1936.5771,374.3047 1937.4678,375.1328 Q1938.3584,375.9453 1939.9521,375.9453 Q1940.8896,375.9453 1941.5459,375.6953 Q1941.9365,375.5391 1942.3584,375.1016 Q1942.624,374.8359 1942.7646,374.7578 Q1942.9209,374.6797 1943.124,374.6797 Q1943.4521,374.6797 1943.7021,374.9453 Q1943.9678,375.1953 1943.9678,375.5391 Q1943.9678,375.8828 1943.624,376.2891 Q1943.124,376.8672 1942.3271,377.1953 Q1941.249,377.6484 1939.9521,377.6484 Q1938.4365,377.6484 1937.2334,377.0234 Q1936.249,376.5234 1935.5615,375.4609 Q1934.874,374.3828 1934.874,373.1016 L1934.874,371.9453 Q1934.874,370.6172 1935.4834,369.4766 Q1936.1084,368.3203 1937.2021,367.7109 Q1938.2959,367.0859 1939.5303,367.0859 Q1940.2646,367.0859 1940.9053,367.2578 Q1941.5615,367.4141 1942.1084,367.7734 Z " fill="#000000"/><text fill="#000000" font-family="Tahoma" font-size="14" lengthAdjust="spacing" textLength="105.2393" x="1959.8428" y="377.4561">StockTransaction</text><line style="stroke:#181818;stroke-width:0.5;" x1="1842.5" x2="2149.9248" y1="387.8984" y2="387.8984"/><text fill="#000000" font-family="Tahoma" font-size="14" lengthAdjust="spacing" textLength="247.6797" x="1847.5" y="405.9053">transactionType : StockTransactionType</text><text fill="#000000" font-family="Tahoma" font-size="14" lengthAdjust="spacing" textLength="164.0488" x="1847.5" y="422.8037">quantityDelta : BigDecimal</text><text fill="#000000" font-family="Tahoma" font-size="14" lengthAdjust="spacing" textLength="158.9355" x="1847.5" y="439.7021">balanceAfter : BigDecimal</text><text fill="#000000" font-family="Tahoma" font-size="14" lengthAdjust="spacing" textLength="91.3896" x="1847.5" y="456.6006">reason : String</text><text fill="#000000" font-family="Tahoma" font-size="14" lengthAdjust="spacing" textLength="116.5869" x="1847.5" y="473.499">createdAt : Instant</text><line style="stroke:#181818;stroke-width:0.5;" x1="1842.5" x2="2149.9248" y1="480.3906" y2="480.3906"/><text fill="#000000" font-family="Tahoma" font-size="14" lengthAdjust="spacing" textLength="297.4248" x="1847.5" y="498.3975">orderId : Long (nullable except CONSUMPTION)</text></g><!--class StockItemRepository--><g id="elem_StockItemRepository"><rect codeLine="48" fill="#F1F1F1" height="48" id="StockItemRepository" rx="2.5" ry="2.5" style="stroke:#181818;stroke-width:0.5;" width="159.6953" x="1678" y="739.8984"/><ellipse cx="1693" cy="755.8984" fill="#B4A7E5" rx="11" ry="11" style="stroke:#181818;stroke-width:1;"/><path d="M1693.9531,752.5391 L1693.9531,759.1953 L1695.6719,759.1953 Q1696.2813,759.1953 1696.5469,759.4297 Q1696.8125,759.6641 1696.8125,760.0547 Q1696.8125,760.4297 1696.5469,760.6641 Q1696.2813,760.8984 1695.6719,760.8984 L1690.5313,760.8984 Q1689.9219,760.8984 1689.6563,760.6641 Q1689.3906,760.4297 1689.3906,760.0391 Q1689.3906,759.6641 1689.6563,759.4297 Q1689.9219,759.1953 1690.5313,759.1953 L1692.25,759.1953 L1692.25,752.5391 L1690.5313,752.5391 Q1689.9219,752.5391 1689.6563,752.3047 Q1689.3906,752.0703 1689.3906,751.6797 Q1689.3906,751.3047 1689.6563,751.0703 Q1689.9219,750.8359 1690.5313,750.8359 L1695.6719,750.8359 Q1696.2813,750.8359 1696.5469,751.0703 Q1696.8125,751.3047 1696.8125,751.6797 Q1696.8125,752.0703 1696.5469,752.3047 Q1696.2813,752.5391 1695.6719,752.5391 L1693.9531,752.5391 Z " fill="#000000"/><text fill="#000000" font-family="Tahoma" font-size="14" font-style="italic" lengthAdjust="spacing" textLength="127.6953" x="1707" y="761.4561">StockItemRepository</text><line style="stroke:#181818;stroke-width:0.5;" x1="1679" x2="1836.6953" y1="771.8984" y2="771.8984"/><line style="stroke:#181818;stroke-width:0.5;" x1="1679" x2="1836.6953" y1="779.8984" y2="779.8984"/></g><!--class StockTransactionRepository--><g id="elem_StockTransactionRepository"><rect codeLine="49" fill="#F1F1F1" height="48" id="StockTransactionRepository" rx="2.5" ry="2.5" style="stroke:#181818;stroke-width:0.5;" width="202.3857" x="376" y="739.8984"/><ellipse cx="391" cy="755.8984" fill="#B4A7E5" rx="11" ry="11" style="stroke:#181818;stroke-width:1;"/><path d="M391.9531,752.5391 L391.9531,759.1953 L393.6719,759.1953 Q394.2813,759.1953 394.5469,759.4297 Q394.8125,759.6641 394.8125,760.0547 Q394.8125,760.4297 394.5469,760.6641 Q394.2813,760.8984 393.6719,760.8984 L388.5313,760.8984 Q387.9219,760.8984 387.6563,760.6641 Q387.3906,760.4297 387.3906,760.0391 Q387.3906,759.6641 387.6563,759.4297 Q387.9219,759.1953 388.5313,759.1953 L390.25,759.1953 L390.25,752.5391 L388.5313,752.5391 Q387.9219,752.5391 387.6563,752.3047 Q387.3906,752.0703 387.3906,751.6797 Q387.3906,751.3047 387.6563,751.0703 Q387.9219,750.8359 388.5313,750.8359 L393.6719,750.8359 Q394.2813,750.8359 394.5469,751.0703 Q394.8125,751.3047 394.8125,751.6797 Q394.8125,752.0703 394.5469,752.3047 Q394.2813,752.5391 393.6719,752.5391 L391.9531,752.5391 Z " fill="#000000"/><text fill="#000000" font-family="Tahoma" font-size="14" font-style="italic" lengthAdjust="spacing" textLength="170.3857" x="405" y="761.4561">StockTransactionRepository</text><line style="stroke:#181818;stroke-width:0.5;" x1="377" x2="577.3857" y1="771.8984" y2="771.8984"/><line style="stroke:#181818;stroke-width:0.5;" x1="377" x2="577.3857" y1="779.8984" y2="779.8984"/></g><!--class UserAccountRepository--><g id="elem_UserAccountRepository"><rect codeLine="50" fill="#F1F1F1" height="48" id="UserAccountRepository" rx="2.5" ry="2.5" style="stroke:#181818;stroke-width:0.5;" width="174.2012" x="596" y="739.8984"/><ellipse cx="611" cy="755.8984" fill="#B4A7E5" rx="11" ry="11" style="stroke:#181818;stroke-width:1;"/><path d="M611.9531,752.5391 L611.9531,759.1953 L613.6719,759.1953 Q614.2813,759.1953 614.5469,759.4297 Q614.8125,759.6641 614.8125,760.0547 Q614.8125,760.4297 614.5469,760.6641 Q614.2813,760.8984 613.6719,760.8984 L608.5313,760.8984 Q607.9219,760.8984 607.6563,760.6641 Q607.3906,760.4297 607.3906,760.0391 Q607.3906,759.6641 607.6563,759.4297 Q607.9219,759.1953 608.5313,759.1953 L610.25,759.1953 L610.25,752.5391 L608.5313,752.5391 Q607.9219,752.5391 607.6563,752.3047 Q607.3906,752.0703 607.3906,751.6797 Q607.3906,751.3047 607.6563,751.0703 Q607.9219,750.8359 608.5313,750.8359 L613.6719,750.8359 Q614.2813,750.8359 614.5469,751.0703 Q614.8125,751.3047 614.8125,751.6797 Q614.8125,752.0703 614.5469,752.3047 Q614.2813,752.5391 613.6719,752.5391 L611.9531,752.5391 Z " fill="#000000"/><text fill="#000000" font-family="Tahoma" font-size="14" font-style="italic" lengthAdjust="spacing" textLength="142.2012" x="625" y="761.4561">UserAccountRepository</text><line style="stroke:#181818;stroke-width:0.5;" x1="597" x2="769.2012" y1="771.8984" y2="771.8984"/><line style="stroke:#181818;stroke-width:0.5;" x1="597" x2="769.2012" y1="779.8984" y2="779.8984"/></g><!--class StockConsumptionProcessor--><g id="elem_StockConsumptionProcessor"><rect codeLine="51" fill="#F1F1F1" height="48" id="StockConsumptionProcessor" rx="2.5" ry="2.5" style="stroke:#181818;stroke-width:0.5;" width="205.5098" x="1454" y="739.8984"/><ellipse cx="1469" cy="755.8984" fill="#ADD1B2" rx="11" ry="11" style="stroke:#181818;stroke-width:1;"/><path d="M1471.7656,751.7734 Q1471.9219,751.5547 1472.1094,751.4453 Q1472.2969,751.3359 1472.5156,751.3359 Q1472.8906,751.3359 1473.125,751.6016 Q1473.3594,751.8516 1473.3594,752.4609 L1473.3594,753.9141 Q1473.3594,754.5234 1473.125,754.7891 Q1472.8906,755.0547 1472.5156,755.0547 Q1472.1719,755.0547 1471.9688,754.8516 Q1471.7656,754.6641 1471.6563,754.1484 Q1471.6094,753.7891 1471.4219,753.6016 Q1471.0938,753.2266 1470.4844,753.0078 Q1469.875,752.7891 1469.25,752.7891 Q1468.4844,752.7891 1467.8438,753.1172 Q1467.2188,753.4453 1466.7188,754.1953 Q1466.2344,754.9453 1466.2344,755.9766 L1466.2344,757.0703 Q1466.2344,758.3047 1467.125,759.1328 Q1468.0156,759.9453 1469.6094,759.9453 Q1470.5469,759.9453 1471.2031,759.6953 Q1471.5938,759.5391 1472.0156,759.1016 Q1472.2813,758.8359 1472.4219,758.7578 Q1472.5781,758.6797 1472.7813,758.6797 Q1473.1094,758.6797 1473.3594,758.9453 Q1473.625,759.1953 1473.625,759.5391 Q1473.625,759.8828 1473.2813,760.2891 Q1472.7813,760.8672 1471.9844,761.1953 Q1470.9063,761.6484 1469.6094,761.6484 Q1468.0938,761.6484 1466.8906,761.0234 Q1465.9063,760.5234 1465.2188,759.4609 Q1464.5313,758.3828 1464.5313,757.1016 L1464.5313,755.9453 Q1464.5313,754.6172 1465.1406,753.4766 Q1465.7656,752.3203 1466.8594,751.7109 Q1467.9531,751.0859 1469.1875,751.0859 Q1469.9219,751.0859 1470.5625,751.2578 Q1471.2188,751.4141 1471.7656,751.7734 Z " fill="#000000"/><text fill="#000000" font-family="Tahoma" font-size="14" lengthAdjust="spacing" textLength="173.5098" x="1483" y="761.4561">StockConsumptionProcessor</text><line style="stroke:#181818;stroke-width:0.5;" x1="1455" x2="1658.5098" y1="771.8984" y2="771.8984"/><line style="stroke:#181818;stroke-width:0.5;" x1="1455" x2="1658.5098" y1="779.8984" y2="779.8984"/></g><!--class StockConsumptionTransactionProcessor--><g id="elem_StockConsumptionTransactionProcessor"><rect codeLine="52" fill="#F1F1F1" height="48" id="StockConsumptionTransactionProcessor" rx="2.5" ry="2.5" style="stroke:#181818;stroke-width:0.5;" width="277.2324" x="1427.5" y="585.3984"/><ellipse cx="1442.5" cy="601.3984" fill="#B4A7E5" rx="11" ry="11" style="stroke:#181818;stroke-width:1;"/><path d="M1443.4531,598.0391 L1443.4531,604.6953 L1445.1719,604.6953 Q1445.7813,604.6953 1446.0469,604.9297 Q1446.3125,605.1641 1446.3125,605.5547 Q1446.3125,605.9297 1446.0469,606.1641 Q1445.7813,606.3984 1445.1719,606.3984 L1440.0313,606.3984 Q1439.4219,606.3984 1439.1563,606.1641 Q1438.8906,605.9297 1438.8906,605.5391 Q1438.8906,605.1641 1439.1563,604.9297 Q1439.4219,604.6953 1440.0313,604.6953 L1441.75,604.6953 L1441.75,598.0391 L1440.0313,598.0391 Q1439.4219,598.0391 1439.1563,597.8047 Q1438.8906,597.5703 1438.8906,597.1797 Q1438.8906,596.8047 1439.1563,596.5703 Q1439.4219,596.3359 1440.0313,596.3359 L1445.1719,596.3359 Q1445.7813,596.3359 1446.0469,596.5703 Q1446.3125,596.8047 1446.3125,597.1797 Q1446.3125,597.5703 1446.0469,597.8047 Q1445.7813,598.0391 1445.1719,598.0391 L1443.4531,598.0391 Z " fill="#000000"/><text fill="#000000" font-family="Tahoma" font-size="14" font-style="italic" lengthAdjust="spacing" textLength="245.2324" x="1456.5" y="606.9561">StockConsumptionTransactionProcessor</text><line style="stroke:#181818;stroke-width:0.5;" x1="1428.5" x2="1703.7324" y1="617.3984" y2="617.3984"/><line style="stroke:#181818;stroke-width:0.5;" x1="1428.5" x2="1703.7324" y1="625.3984" y2="625.3984"/></g><!--class OrderStockConsumptionService--><g id="elem_OrderStockConsumptionService"><rect codeLine="53" fill="#F1F1F1" height="48" id="OrderStockConsumptionService" rx="2.5" ry="2.5" style="stroke:#181818;stroke-width:0.5;" width="225.4912" x="1584.5" y="151.3984"/><ellipse cx="1599.5" cy="167.3984" fill="#B4A7E5" rx="11" ry="11" style="stroke:#181818;stroke-width:1;"/><path d="M1600.4531,164.0391 L1600.4531,170.6953 L1602.1719,170.6953 Q1602.7813,170.6953 1603.0469,170.9297 Q1603.3125,171.1641 1603.3125,171.5547 Q1603.3125,171.9297 1603.0469,172.1641 Q1602.7813,172.3984 1602.1719,172.3984 L1597.0313,172.3984 Q1596.4219,172.3984 1596.1563,172.1641 Q1595.8906,171.9297 1595.8906,171.5391 Q1595.8906,171.1641 1596.1563,170.9297 Q1596.4219,170.6953 1597.0313,170.6953 L1598.75,170.6953 L1598.75,164.0391 L1597.0313,164.0391 Q1596.4219,164.0391 1596.1563,163.8047 Q1595.8906,163.5703 1595.8906,163.1797 Q1595.8906,162.8047 1596.1563,162.5703 Q1596.4219,162.3359 1597.0313,162.3359 L1602.1719,162.3359 Q1602.7813,162.3359 1603.0469,162.5703 Q1603.3125,162.8047 1603.3125,163.1797 Q1603.3125,163.5703 1603.0469,163.8047 Q1602.7813,164.0391 1602.1719,164.0391 L1600.4531,164.0391 Z " fill="#000000"/><text fill="#000000" font-family="Tahoma" font-size="14" font-style="italic" lengthAdjust="spacing" textLength="193.4912" x="1613.5" y="172.9561">OrderStockConsumptionService</text><line style="stroke:#181818;stroke-width:0.5;" x1="1585.5" x2="1808.9912" y1="183.3984" y2="183.3984"/><line style="stroke:#181818;stroke-width:0.5;" x1="1585.5" x2="1808.9912" y1="191.3984" y2="191.3984"/></g><!--class OrderStockConsumptionServiceImpl--><g id="elem_OrderStockConsumptionServiceImpl"><rect codeLine="54" fill="#F1F1F1" height="48" id="OrderStockConsumptionServiceImpl" rx="2.5" ry="2.5" style="stroke:#181818;stroke-width:0.5;" width="253.4092" x="1570.5" y="406.3984"/><ellipse cx="1585.5" cy="422.3984" fill="#ADD1B2" rx="11" ry="11" style="stroke:#181818;stroke-width:1;"/><path d="M1588.2656,418.2734 Q1588.4219,418.0547 1588.6094,417.9453 Q1588.7969,417.8359 1589.0156,417.8359 Q1589.3906,417.8359 1589.625,418.1016 Q1589.8594,418.3516 1589.8594,418.9609 L1589.8594,420.4141 Q1589.8594,421.0234 1589.625,421.2891 Q1589.3906,421.5547 1589.0156,421.5547 Q1588.6719,421.5547 1588.4688,421.3516 Q1588.2656,421.1641 1588.1563,420.6484 Q1588.1094,420.2891 1587.9219,420.1016 Q1587.5938,419.7266 1586.9844,419.5078 Q1586.375,419.2891 1585.75,419.2891 Q1584.9844,419.2891 1584.3438,419.6172 Q1583.7188,419.9453 1583.2188,420.6953 Q1582.7344,421.4453 1582.7344,422.4766 L1582.7344,423.5703 Q1582.7344,424.8047 1583.625,425.6328 Q1584.5156,426.4453 1586.1094,426.4453 Q1587.0469,426.4453 1587.7031,426.1953 Q1588.0938,426.0391 1588.5156,425.6016 Q1588.7813,425.3359 1588.9219,425.2578 Q1589.0781,425.1797 1589.2813,425.1797 Q1589.6094,425.1797 1589.8594,425.4453 Q1590.125,425.6953 1590.125,426.0391 Q1590.125,426.3828 1589.7813,426.7891 Q1589.2813,427.3672 1588.4844,427.6953 Q1587.4063,428.1484 1586.1094,428.1484 Q1584.5938,428.1484 1583.3906,427.5234 Q1582.4063,427.0234 1581.7188,425.9609 Q1581.0313,424.8828 1581.0313,423.6016 L1581.0313,422.4453 Q1581.0313,421.1172 1581.6406,419.9766 Q1582.2656,418.8203 1583.3594,418.2109 Q1584.4531,417.5859 1585.6875,417.5859 Q1586.4219,417.5859 1587.0625,417.7578 Q1587.7188,417.9141 1588.2656,418.2734 Z " fill="#000000"/><text fill="#000000" font-family="Tahoma" font-size="14" lengthAdjust="spacing" textLength="221.4092" x="1599.5" y="427.9561">OrderStockConsumptionServiceImpl</text><line style="stroke:#181818;stroke-width:0.5;" x1="1571.5" x2="1822.9092" y1="438.3984" y2="438.3984"/><line style="stroke:#181818;stroke-width:0.5;" x1="1571.5" x2="1822.9092" y1="446.3984" y2="446.3984"/></g><g id="elem_GMN30"><path d="M788,695.8984 L788,831.4297 A0,0 0 0 0 788,831.4297 L1435.5835,831.4297 A0,0 0 0 0 1435.5835,831.4297 L1435.5835,705.8984 L1425.5835,695.8984 L973.8464,695.8984 L892.0873,659.0697 L965.8464,695.8984 L788,695.8984 A0,0 0 0 0 788,695.8984 " fill="#FEFFDD" style="stroke:#181818;stroke-width:0.5;"/><path d="M1425.5835,695.8984 L1425.5835,705.8984 L1435.5835,705.8984 L1425.5835,695.8984 " fill="#FEFFDD" style="stroke:#181818;stroke-width:0.5;"/><text fill="#000000" font-family="Tahoma" font-size="13" lengthAdjust="spacing" textLength="436.7632" x="794" y="713.9048">final workflow: actor -&gt; active guard (409) -&gt; delta -&gt; nonnegative balance</text><text fill="#000000" font-family="Tahoma" font-size="13" lengthAdjust="spacing" textLength="259.8857" x="794" y="729.5962">-&gt; apply/save -&gt; audit actor/reason/balance.</text><text fill="#000000" font-family="Tahoma" font-size="13" lengthAdjust="spacing" textLength="393.377" x="794" y="745.2876">Transaction belongs to StockService or Fulfillment, not the template.</text><text fill="#000000" font-family="Tahoma" font-size="13" lengthAdjust="spacing" textLength="602.71" x="794" y="760.979">Consumption uses processWithOrder final workflow; order_id / negative delta / unique order-stock audit.</text><text fill="#000000" font-family="Tahoma" font-size="13" lengthAdjust="spacing" textLength="430.8091" x="794" y="776.6704">Types: IN / ADJUSTMENT / CONSUMPTION. Adjustment uses signed delta.</text><text fill="#000000" font-family="Tahoma" font-size="13" lengthAdjust="spacing" textLength="626.5835" x="794" y="792.3618">openingTargetStock/active implemented by V15; shortfall = max(target - quantity, 0), derived, not persisted.</text><text fill="#000000" font-family="Tahoma" font-size="13" lengthAdjust="spacing" textLength="499.897" x="794" y="808.0532">Manager-only item create/update/active; inactive item rejects stock-in/adjust with 409.</text><text fill="#000000" font-family="Tahoma" font-size="13" lengthAdjust="spacing" textLength="519.27" x="794" y="823.7446">SKU and unit are locked once transactions exist; recipe/snapshot references also lock unit.</text></g><polygon fill="transparent" points="998.1032,638.3955,1015.1564,646.7136,1016.7366,634.8181,998.1032,638.3955" style="stroke:#181818;stroke-width:1;"/><path d="M1015.9465,640.7658 C1108.4425,653.0532 1200.6992,665.1766 1300,677.8984 C1364.4126,686.1506 1383.5924,674.7752 1445,695.8984 C1474.5677,706.0693 1504.8037,724.7441 1526.3953,739.799 " fill="transparent" style="stroke:#181818;stroke-width:1;"/><polygon fill="transparent" points="1564.6331,633.5599,1557.5831,651.1752,1569.5622,651.8821,1564.6331,633.5599" style="stroke:#181818;stroke-width:1;"/><path d="M1563.5726,651.5286 C1561.881,680.1918 1560.0773,710.7556 1558.3798,739.519 " fill="transparent" style="stroke:#181818;stroke-width:1;stroke-dasharray:7.0,7.0;"/><polygon fill="transparent" points="1697,199.7466,1691,217.7466,1703,217.7466,1697,199.7466" style="stroke:#181818;stroke-width:1;"/><path d="M1697,217.7466 C1697,265.9441 1697,357.9575 1697,406.1067 " fill="transparent" style="stroke:#181818;stroke-width:1;stroke-dasharray:7.0,7.0;"/><polygon fill="#181818" points="1583.1302,585.2531,1591.6995,580.3985,1586.1047,581.2341,1585.2691,575.6393,1583.1302,585.2531" style="stroke:#181818;stroke-width:1;"/><path d="M1679.874,454.5381 C1654.768,488.46 1611.808,546.5052 1586.6996,580.4303 " fill="transparent" style="stroke:#181818;stroke-width:1;"/><polygon fill="#181818" points="1753.706,739.5627,1756.0111,729.9875,1752.8011,734.6453,1748.1432,731.4352,1753.706,739.5627" style="stroke:#181818;stroke-width:1;"/><path d="M1701.241,454.4457 C1712.3996,515.0864 1741.4017,672.6963 1752.6201,733.6618 " fill="transparent" style="stroke:#181818;stroke-width:1;"/><text fill="#000000" font-family="Tahoma" font-size="13" lengthAdjust="spacing" textLength="114.5815" x="1741" y="614.9048">stock IDs ascending</text><polygon fill="transparent" points="579.9324,625.6478,561.4743,621.255,562.5302,633.2084,579.9324,625.6478" style="stroke:#181818;stroke-width:1;"/><path d="M562.0023,627.2317 C406.7133,640.9491 227.3964,662.5271 153,695.8984 C130.5226,705.9809 109.6127,724.6627 95.1121,739.7427 " fill="transparent" style="stroke:#181818;stroke-width:1;"/><polygon fill="transparent" points="579.9774,637.4261,561.1814,634.8361,563.3866,646.6317,579.9774,637.4261" style="stroke:#181818;stroke-width:1;"/><path d="M562.284,640.7339 C492.9553,653.6948 434.0859,669.1292 367,695.8984 C339.3147,706.9457 310.8468,725.1644 290.2413,739.8171 " fill="transparent" style="stroke:#181818;stroke-width:1;"/><polygon fill="transparent" points="875.2281,463.0425,860.8841,475.4623,871.2048,481.5847,875.2281,463.0425" style="stroke:#181818;stroke-width:1;"/><path d="M866.0445,478.5235 C850.1178,505.3713 836.1931,528.8443 817.9066,559.6701 " fill="transparent" style="stroke:#181818;stroke-width:1;stroke-dasharray:7.0,7.0;"/><polygon fill="#181818" points="936.7067,397.7128,946.3179,395.5626,940.7222,394.7336,941.5512,389.1378,936.7067,397.7128" style="stroke:#181818;stroke-width:1;"/><path d="M1124.2871,258.5403 C1060.3057,306.0103 988.2819,359.4473 941.5253,394.1378 " fill="transparent" style="stroke:#181818;stroke-width:1;"/><text fill="#000000" font-family="Tahoma" font-size="13" lengthAdjust="spacing" textLength="203.8486" x="1036" y="333.9048">qualified IN / ADJUSTMENT policies</text><polygon fill="#181818" points="1734.4006,739.8754,1730.3478,730.8991,1730.6696,736.5468,1725.0219,736.8686,1734.4006,739.8754" style="stroke:#181818;stroke-width:1;"/><path d="M1241.3339,258.4226 C1254.4802,367.9945 1294.7793,559.7997 1418,658.8984 C1505.8697,729.5666 1564.9578,652.4211 1669,695.8984 C1693.6259,706.1892 1713.0873,720.8602 1729.9234,735.8811 " fill="transparent" style="stroke:#181818;stroke-width:1;"/><text fill="#000000" font-family="Tahoma" font-size="13" lengthAdjust="spacing" textLength="136.208" x="1325" y="537.9048">lock row before process</text><polygon fill="#181818" points="1735.4017,739.8275,1731.503,730.7832,1731.7283,736.4355,1726.0759,736.6608,1735.4017,739.8275" style="stroke:#181818;stroke-width:1;"/><path d="M998.1324,638.7547 C1103.5027,652.2286 1233.3489,667.6 1350,677.8984 C1420.7266,684.1425 1602.3233,671.4967 1669,695.8984 C1694.4271,705.204 1714.2526,720.2991 1730.9936,735.7571 " fill="transparent" style="stroke:#181818;stroke-width:1;"/><polygon fill="#181818" points="511.9119,739.8215,521.6492,738.3438,516.1245,737.1283,517.3401,731.6036,511.9119,739.8215" style="stroke:#181818;stroke-width:1;"/><path d="M666.1688,658.987 C639.7201,670.3893 612.1615,682.9986 587,695.8984 C561.1324,709.1602 538.2257,722.9987 516.9671,736.5896 " fill="transparent" style="stroke:#181818;stroke-width:1;"/><polygon fill="#181818" points="699.0658,739.7849,707.4871,734.6777,701.9196,735.6792,700.9181,730.1118,699.0658,739.7849" style="stroke:#181818;stroke-width:1;"/><path d="M755.1695,659.0697 C736.3869,686.0919 717.3165,713.528 702.4903,734.8581 " fill="transparent" style="stroke:#181818;stroke-width:1;"/><path d="M1996,301.0455 C1996,319.7549 1996,338.5184 1996,355.6985 " fill="transparent" style="stroke:#181818;stroke-width:1;"/><text fill="#000000" font-family="Tahoma" font-size="13" lengthAdjust="spacing" textLength="22.0645" x="1973" y="352.7048">0..*</text><text fill="#000000" font-family="Tahoma" font-size="13" lengthAdjust="spacing" textLength="7.0967" x="1988" y="315.0518">1</text><!--SRC=[dLPBSzis4BxpLsoT2nthuSoqXzXjPnIhcb5JsvbARe-T5RcI48C00u1MLCV_lGk2aYYAKZozs2BszUrYTp_ya1jSP0WIrxfmO3Dog32oZqBbQ303kyHKhuHQm1obfPeaaMZjm3aZPeMZSQBLHFnBS5bJcM7ok32wKEcDbjh0cz5eD1ozhscaDCT2kf5MxWupWYakTOQH4quIVA0bFWbjKCAKiboY8xWbjzGfT04JLx1WudJo6B2GZN1cdM59E0Z2gK5b-KnejVNo7C75yrmeb2-G6vsGjR5mb7NWIu6AewyxO0YjLXqVI9jpk3hm5i6Rvqt05qXG9eLtFYJfCDxuyOOVn698YSXGxfku6h9rJd5R42-8NYAX79av9dIWy2d0v-hwfFv_CYzHhMRZdTlwyI3zN5YNaNAjuWcP9v64wYOSaRk2OSI6lXHatJQgF_oJRAuLznDS57cwqHIfHtfIsv8RCE0dAfMn_7bCLpzvGBIApxrXoAiUOrCEbcAPsH7XKh2nMPT57QVdZLBneS_OFXOb3CEp4e7opRpxB9HmjS_DlJHwG-fLk9Qb8RlKCct8TKwAxQTe5kH2uzSL8FxhtK-CDnI5HJEj9Q7Qd5UL7lA82sbZ1jmfSNPAU1rmcx2-dazQf5kJ-thWs9N_Qah94jM2gclPNKabzLYNsZZU7p9kZiC5vhbSXv59_T-juLwHQutgQwrDIcRio_E7viqKgq9AdF76eAy9vGvkxkyc3xUVfkFxEywxCMR7XcnxAoMQ1iuPIbG93UOyXWrH6AtQxORMJmV-niVAya9rXnCSMZNNLlZMEZ7VhKeFbimWINYpkfgyLh0R7e4Yo_SMH3D8JQTjdzJKxtszcpRLj5THJwcCUUj6HtVnpz-wtHEWNmELVVHw9toS0XTilml_UmhGxVxwkhA-tjD-Zt0tbJiCnaCBQ1DIgM-tLzHrt2pdQVMsBN-STNQbR_4QxV72Dh5MHrT-0AMO2qfXV0Tz60n_VvXCRt-xcqAkfKW44toxluD2ILyderSmexasjE7uuzaVSVKAW_PHFMdNFhqxDZbxTyPwS7RPwxqzEsHgfTdFJ3kdCz3puxM7ye43AsqUvqmjLu7GW05K3B4eqAGG_tZv_joVbllN_r1QALfWgLCjlgWqyxkwRv6F_LUHCgcLFljX1_OhvLu4zOKz8ybRseBJ-yy4nZ8gv5n8wNkDkKWxvY02LoN0RceJ0WK_y3ON-RTmotAE6ZbU1shuHwJSFziSGc9zJtDCxK6b6sQfJCBZPGQmLmTzrwzJIGzsan7GMB5GtAsb_ruRF_UhIWlEYBmTQy_Mm7nypI_hYXJX5yZmQqMh_BBTlTekpplitB27D9Gd9sFvCK8fHxlbX_g24z5Ahi4_JIhYwGVEha9V0nUe0k5r37scnDcmIhf2zSFB1rPSKU1EOCUJZm-0AWsF5kJfyTF4m3LVRPrCBTCjWxbcdud8gMyLvfoKu-yv6M9jtbFIwZ2DtbilugNb4w7_0000]--></g></svg>