<svg xmlns="http://www.w3.org/2000/svg" xmlns:xlink="http://www.w3.org/1999/xlink" contentStyleType="text/css" data-diagram-type="DESCRIPTION" height="764px" preserveAspectRatio="none" style="width:2454px;height:764px;background:#FFFDF9;" version="1.1" viewBox="0 0 2454 764" width="2454px" zoomAndPan="magnify"><title>Runtime component layers - V19 menu-stock integration (10 Oct 2026)</title><defs/><g><rect fill="#FFFDF9" height="764" style="stroke:transparent;stroke-width:1;" width="2454" x="0" y="0"/><text fill="#000000" font-family="Tahoma" font-size="14" font-weight="bold" lengthAdjust="spacing" textLength="502.6602" x="968.1699" y="24.0068">Runtime component layers - V19 menu-stock integration (10 Oct 2026)</text><!--cluster Spring Boot REST application--><g id="cluster_Spring Boot REST application"><path d="M16.5,150.8984 L222.332,150.8984 A3.75,3.75 0 0 1 224.832,153.3984 L231.832,173.7969 L1271.5,173.7969 A2.5,2.5 0 0 1 1274,176.2969 L1274,755.3984 A2.5,2.5 0 0 1 1271.5,757.8984 L16.5,757.8984 A2.5,2.5 0 0 1 14,755.3984 L14,153.3984 A2.5,2.5 0 0 1 16.5,150.8984 " fill="transparent" style="stroke:#000000;stroke-width:1.5;"/><line style="stroke:#000000;stroke-width:1.5;" x1="14" x2="231.832" y1="173.7969" y2="173.7969"/><text fill="#000000" font-family="Tahoma" font-size="14" font-weight="bold" lengthAdjust="spacing" textLength="204.832" x="18" y="166.9053">Spring Boot REST application</text></g><!--entity Web--><g id="elem_Web"><rect fill="#F1F1F1" height="63.7969" rx="2.5" ry="2.5" style="stroke:#181818;stroke-width:0.5;" width="268.9697" x="484.5" y="41.8984"/><rect fill="#F1F1F1" height="10" style="stroke:#181818;stroke-width:0.5;" width="15" x="733.4697" y="46.8984"/><rect fill="#F1F1F1" height="2" style="stroke:#181818;stroke-width:0.5;" width="4" x="731.4697" y="48.8984"/><rect fill="#F1F1F1" height="2" style="stroke:#181818;stroke-width:0.5;" width="4" x="731.4697" y="52.8984"/><text fill="#000000" font-family="Tahoma" font-size="14" lengthAdjust="spacing" textLength="208.209" x="499.5" y="75.9053">React views / shared components</text><text fill="#000000" font-family="Tahoma" font-size="14" lengthAdjust="spacing" textLength="228.9697" x="499.5" y="92.8037">Customer / Staff / Kitchen / Manager</text></g><!--entity DB--><g id="elem_DB"><path d="M1282,687.8984 C1282,677.8984 1389.2275,677.8984 1389.2275,677.8984 C1389.2275,677.8984 1496.4551,677.8984 1496.4551,687.8984 L1496.4551,730.6953 C1496.4551,740.6953 1389.2275,740.6953 1389.2275,740.6953 C1389.2275,740.6953 1282,740.6953 1282,730.6953 L1282,687.8984 " fill="#F1F1F1" style="stroke:#181818;stroke-width:0.5;"/><path d="M1282,687.8984 C1282,697.8984 1389.2275,697.8984 1389.2275,697.8984 C1389.2275,697.8984 1496.4551,697.8984 1496.4551,687.8984 " fill="transparent" style="stroke:#181818;stroke-width:0.5;"/><text fill="#000000" font-family="Tahoma" font-size="14" lengthAdjust="spacing" textLength="71.0732" x="1292" y="715.9053">PostgreSQL</text><text fill="#000000" font-family="Tahoma" font-size="14" lengthAdjust="spacing" textLength="194.4551" x="1292" y="732.8037">Supabase Session Pooler + SSL</text></g><!--entity Fly--><g id="elem_Fly"><rect fill="#F1F1F1" height="63.7969" rx="2.5" ry="2.5" style="stroke:#181818;stroke-width:0.5;" width="224.625" x="1879.5" y="516.3984"/><rect fill="#F1F1F1" height="10" style="stroke:#181818;stroke-width:0.5;" width="15" x="2084.125" y="521.3984"/><rect fill="#F1F1F1" height="2" style="stroke:#181818;stroke-width:0.5;" width="4" x="2082.125" y="523.3984"/><rect fill="#F1F1F1" height="2" style="stroke:#181818;stroke-width:0.5;" width="4" x="2082.125" y="527.3984"/><text fill="#000000" font-family="Tahoma" font-size="14" lengthAdjust="spacing" textLength="42.1846" x="1894.5" y="550.4053">Flyway</text><text fill="#000000" font-family="Tahoma" font-size="14" lengthAdjust="spacing" textLength="184.625" x="1894.5" y="567.3037">common + postgresql V1-V19</text></g><g id="elem_GMN22"><path d="M1514,672.8984 L1514,745.6641 A0,0 0 0 0 1514,745.6641 L1904.4653,745.6641 A0,0 0 0 0 1904.4653,745.6641 L1904.4653,682.8984 L1894.4653,672.8984 L1536.5758,672.8984 L704.6342,612.2622 L1528.5758,672.8984 L1514,672.8984 A0,0 0 0 0 1514,672.8984 " fill="#FEFFDD" style="stroke:#181818;stroke-width:0.5;"/><path d="M1894.4653,672.8984 L1894.4653,682.8984 L1904.4653,682.8984 L1894.4653,672.8984 " fill="#FEFFDD" style="stroke:#181818;stroke-width:0.5;"/><text fill="#000000" font-family="Tahoma" font-size="13" lengthAdjust="spacing" textLength="369.4653" x="1520" y="690.9048">Ordering -&gt; SessionContextProvider -&gt; customer/session access</text><text fill="#000000" font-family="Tahoma" font-size="13" lengthAdjust="spacing" textLength="366.1519" x="1520" y="706.5962">Billing -&gt; DiningSessionBillingReader -&gt; opening-price snapshot</text><text fill="#000000" font-family="Tahoma" font-size="13" lengthAdjust="spacing" textLength="311.5493" x="1520" y="722.2876">Close -&gt; PaymentStatusLookup -&gt; same-session PAID</text><text fill="#000000" font-family="Tahoma" font-size="13" lengthAdjust="spacing" textLength="356.0591" x="1520" y="737.979">Runtime: database/session. Fixtures: explicit demo/tests only.</text></g><g id="elem_GMN25"><path d="M1922,672.8984 L1922,745.6641 A0,0 0 0 0 1922,745.6641 L2447.9307,745.6641 A0,0 0 0 0 2447.9307,745.6641 L2447.9307,682.8984 L2437.9307,672.8984 L1983.9763,672.8984 L1266.2216,570.712 L1975.9763,672.8984 L1922,672.8984 A0,0 0 0 0 1922,672.8984 " fill="#FEFFDD" style="stroke:#181818;stroke-width:0.5;"/><path d="M2437.9307,672.8984 L2437.9307,682.8984 L2447.9307,682.8984 L2437.9307,672.8984 " fill="#FEFFDD" style="stroke:#181818;stroke-width:0.5;"/><text fill="#000000" font-family="Tahoma" font-size="13" lengthAdjust="spacing" textLength="410.3125" x="1928" y="690.9048">Shared UserSessionKeys removes the service-to-controller dependency.</text><text fill="#000000" font-family="Tahoma" font-size="13" lengthAdjust="spacing" textLength="409.7856" x="1928" y="706.5962">Session collaborations use verifier / reader / payment-lookup contracts.</text><text fill="#000000" font-family="Tahoma" font-size="13" lengthAdjust="spacing" textLength="504.9307" x="1928" y="722.2876">The inspected services use constructor injection; JPA and domain dependencies remain.</text><text fill="#000000" font-family="Tahoma" font-size="13" lengthAdjust="spacing" textLength="403.6602" x="1928" y="737.979">Public deployment and Final release still require their own acceptance.</text></g><!--entity C--><g id="elem_C"><rect fill="#F1F1F1" height="63.7969" rx="2.5" ry="2.5" style="stroke:#181818;stroke-width:0.5;" width="290.9814" x="473.5" y="177.8984"/><rect fill="#F1F1F1" height="10" style="stroke:#181818;stroke-width:0.5;" width="15" x="744.4814" y="182.8984"/><rect fill="#F1F1F1" height="2" style="stroke:#181818;stroke-width:0.5;" width="4" x="742.4814" y="184.8984"/><rect fill="#F1F1F1" height="2" style="stroke:#181818;stroke-width:0.5;" width="4" x="742.4814" y="188.8984"/><text fill="#000000" font-family="Tahoma" font-size="14" lengthAdjust="spacing" textLength="66.2061" x="488.5" y="211.9053">Controllers</text><text fill="#000000" font-family="Tahoma" font-size="14" lengthAdjust="spacing" textLength="250.9814" x="488.5" y="228.8037">HTTP / Bean Validation / response DTOs</text></g><!--entity S--><g id="elem_S"><rect fill="#F1F1F1" height="131.3906" rx="2.5" ry="2.5" style="stroke:#181818;stroke-width:0.5;" width="646.2178" x="296" y="296.8984"/><rect fill="#F1F1F1" height="10" style="stroke:#181818;stroke-width:0.5;" width="15" x="922.2178" y="301.8984"/><rect fill="#F1F1F1" height="2" style="stroke:#181818;stroke-width:0.5;" width="4" x="920.2178" y="303.8984"/><rect fill="#F1F1F1" height="2" style="stroke:#181818;stroke-width:0.5;" width="4" x="920.2178" y="307.8984"/><text fill="#000000" font-family="Tahoma" font-size="14" lengthAdjust="spacing" textLength="120.6543" x="311" y="330.9053">Application services</text><text fill="#000000" font-family="Tahoma" font-size="14" lengthAdjust="spacing" textLength="457.1191" x="311" y="347.8037">Table/Session: DiningSessionServiceImpl / CustomerSessionAccessService</text><text fill="#000000" font-family="Tahoma" font-size="14" lengthAdjust="spacing" textLength="466.0811" x="311" y="364.7021">Catalog/Ordering: MenuCatalogServiceImpl / CustomerOrderingServiceImpl</text><text fill="#000000" font-family="Tahoma" font-size="14" lengthAdjust="spacing" textLength="561.6201" x="311" y="381.6006">Fulfillment: OrderFulfillmentServiceImpl / OrderStateResolver / RegistryOrderStateResolver</text><text fill="#000000" font-family="Tahoma" font-size="14" lengthAdjust="spacing" textLength="477.0117" x="311" y="398.499">Billing/Payment: BillingEngine / PaymentServiceImpl / CustomerBillingService</text><text fill="#000000" font-family="Tahoma" font-size="14" lengthAdjust="spacing" textLength="606.2178" x="311" y="415.3975">Auth/Stock: AuthService / StockService / StockTransactionTemplate / StockConsumptionProcessor</text></g><!--entity Contracts--><g id="elem_Contracts"><rect fill="#F1F1F1" height="131.3906" rx="2.5" ry="2.5" style="stroke:#181818;stroke-width:0.5;" width="396.9795" x="307.5" y="482.8984"/><rect fill="#F1F1F1" height="10" style="stroke:#181818;stroke-width:0.5;" width="15" x="684.4795" y="487.8984"/><rect fill="#F1F1F1" height="2" style="stroke:#181818;stroke-width:0.5;" width="4" x="682.4795" y="489.8984"/><rect fill="#F1F1F1" height="2" style="stroke:#181818;stroke-width:0.5;" width="4" x="682.4795" y="493.8984"/><text fill="#000000" font-family="Tahoma" font-size="14" lengthAdjust="spacing" textLength="144.8193" x="322.5" y="516.9053">Cross-module contracts</text><text fill="#000000" font-family="Tahoma" font-size="14" lengthAdjust="spacing" textLength="144.4434" x="322.5" y="533.8037">SessionContextProvider</text><text fill="#000000" font-family="Tahoma" font-size="14" lengthAdjust="spacing" textLength="165.6689" x="322.5" y="550.7021">DiningSessionBillingReader</text><text fill="#000000" font-family="Tahoma" font-size="14" lengthAdjust="spacing" textLength="136.9102" x="322.5" y="567.6006">PaymentStatusLookup</text><text fill="#000000" font-family="Tahoma" font-size="14" lengthAdjust="spacing" textLength="242.2793" x="322.5" y="584.499">BillCalculator / CustomerSessionVerifier</text><text fill="#000000" font-family="Tahoma" font-size="14" lengthAdjust="spacing" textLength="356.9795" x="322.5" y="601.3975">MenuStockUsageService / OrderStockConsumptionService</text></g><!--entity Auth--><g id="elem_Auth"><rect fill="#F1F1F1" height="80.6953" rx="2.5" ry="2.5" style="stroke:#181818;stroke-width:0.5;" width="352.4023" x="914" y="507.8984"/><rect fill="#F1F1F1" height="10" style="stroke:#181818;stroke-width:0.5;" width="15" x="1246.4023" y="512.8984"/><rect fill="#F1F1F1" height="2" style="stroke:#181818;stroke-width:0.5;" width="4" x="1244.4023" y="514.8984"/><rect fill="#F1F1F1" height="2" style="stroke:#181818;stroke-width:0.5;" width="4" x="1244.4023" y="518.8984"/><text fill="#000000" font-family="Tahoma" font-size="14" lengthAdjust="spacing" textLength="152.1133" x="929" y="541.9053">Session access providers</text><text fill="#000000" font-family="Tahoma" font-size="14" lengthAdjust="spacing" textLength="312.4023" x="929" y="558.8037">UserContextProvider / SessionUserContextProvider</text><text fill="#000000" font-family="Tahoma" font-size="14" lengthAdjust="spacing" textLength="222.4551" x="929" y="575.7021">Staff / Fulfillment / Payment / Menu</text></g><!--entity M--><g id="elem_M"><rect fill="#F1F1F1" height="80.6953" rx="2.5" ry="2.5" style="stroke:#181818;stroke-width:0.5;" width="173.4512" x="722.5" y="507.8984"/><rect fill="#F1F1F1" height="10" style="stroke:#181818;stroke-width:0.5;" width="15" x="875.9512" y="512.8984"/><rect fill="#F1F1F1" height="2" style="stroke:#181818;stroke-width:0.5;" width="4" x="873.9512" y="514.8984"/><rect fill="#F1F1F1" height="2" style="stroke:#181818;stroke-width:0.5;" width="4" x="873.9512" y="518.8984"/><text fill="#000000" font-family="Tahoma" font-size="14" lengthAdjust="spacing" textLength="85.1963" x="737.5" y="541.9053">DTO mappers</text><text fill="#000000" font-family="Tahoma" font-size="14" lengthAdjust="spacing" textLength="133.4512" x="737.5" y="558.8037">Table / DiningSession</text><text fill="#000000" font-family="Tahoma" font-size="14" lengthAdjust="spacing" textLength="114.2764" x="737.5" y="575.7021">Catalog / Ordering</text></g><!--entity Repo--><g id="elem_Repo"><rect fill="#F1F1F1" height="63.7969" rx="2.5" ry="2.5" style="stroke:#181818;stroke-width:0.5;" width="267.0693" x="22.5" y="516.3984"/><rect fill="#F1F1F1" height="10" style="stroke:#181818;stroke-width:0.5;" width="15" x="269.5693" y="521.3984"/><rect fill="#F1F1F1" height="2" style="stroke:#181818;stroke-width:0.5;" width="4" x="267.5693" y="523.3984"/><rect fill="#F1F1F1" height="2" style="stroke:#181818;stroke-width:0.5;" width="4" x="267.5693" y="527.3984"/><text fill="#000000" font-family="Tahoma" font-size="14" lengthAdjust="spacing" textLength="174.6172" x="37.5" y="550.4053">Spring Data JPA repositories</text><text fill="#000000" font-family="Tahoma" font-size="14" lengthAdjust="spacing" textLength="227.0693" x="37.5" y="567.3037">Entity queries / pessimistic row locks</text></g><!--entity E--><g id="elem_E"><rect fill="#F1F1F1" height="80.6953" rx="2.5" ry="2.5" style="stroke:#181818;stroke-width:0.5;" width="202.1553" x="55" y="668.8984"/><rect fill="#F1F1F1" height="10" style="stroke:#181818;stroke-width:0.5;" width="15" x="237.1553" y="673.8984"/><rect fill="#F1F1F1" height="2" style="stroke:#181818;stroke-width:0.5;" width="4" x="235.1553" y="675.8984"/><rect fill="#F1F1F1" height="2" style="stroke:#181818;stroke-width:0.5;" width="4" x="235.1553" y="679.8984"/><text fill="#000000" font-family="Tahoma" font-size="14" lengthAdjust="spacing" textLength="96.1406" x="70" y="702.9053">Domain entities</text><text fill="#000000" font-family="Tahoma" font-size="14" lengthAdjust="spacing" textLength="162.1553" x="70" y="719.8037">Tables / Sessions / Orders</text><text fill="#000000" font-family="Tahoma" font-size="14" lengthAdjust="spacing" textLength="155.7158" x="70" y="736.7021">Payments / Users / Stock</text></g><polygon fill="#181818" points="619,177.5237,623,168.5237,619,172.5237,615,168.5237,619,177.5237" style="stroke:#181818;stroke-width:1;"/><path d="M619,105.9775 C619,127.4709 619,149.9665 619,171.5237 " fill="transparent" style="stroke:#181818;stroke-width:1;"/><text fill="#000000" font-family="Tahoma" font-size="13" lengthAdjust="spacing" textLength="252.4272" x="621" y="138.9048">JSON / staff login session / customer cookie</text><polygon fill="#181818" points="619,296.7404,623,287.7404,619,291.7404,615,287.7404,619,296.7404" style="stroke:#181818;stroke-width:1;"/><path d="M619,242.0821 C619,257.9242 619,271.7896 619,290.7404 " fill="transparent" style="stroke:#181818;stroke-width:1;"/><text fill="#000000" font-family="Tahoma" font-size="13" lengthAdjust="spacing" textLength="55.2246" x="621" y="274.9048">use cases</text><polygon fill="#181818" points="222.0421,516.2414,231.8903,516.1239,226.5866,514.1563,228.5542,508.8527,222.0421,516.2414" style="stroke:#181818;stroke-width:1;"/><path d="M438.5958,428.0351 C392.5078,445.2372 343.2122,464.2413 298,482.8984 C272.9706,493.227 251.2813,502.8263 227.4955,513.7393 " fill="transparent" style="stroke:#181818;stroke-width:1;"/><text fill="#000000" font-family="Tahoma" font-size="13" lengthAdjust="spacing" textLength="123.8301" x="388" y="460.9048">transactions / queries</text><polygon fill="#181818" points="1312.5044,677.8293,1305.1129,671.3204,1307.7333,676.3337,1302.72,678.9541,1312.5044,677.8293" style="stroke:#181818;stroke-width:1;"/><path d="M211.9922,580.4517 C237.4651,593.0861 268.4646,606.4449 298,613.8984 C532.5398,673.0869 599.4675,637.6975 841,650.8984 C938.0486,656.2026 1182.5837,650.3971 1278,668.8984 C1289.3456,671.0984 1295.3646,672.4566 1306.7791,676.0346 " fill="transparent" style="stroke:#181818;stroke-width:1;"/><text fill="#000000" font-family="Tahoma" font-size="13" lengthAdjust="spacing" textLength="29.7007" x="843" y="646.9048">JDBC</text><polygon fill="#181818" points="156,668.6806,160,659.6806,156,663.6806,152,659.6806,156,668.6806" style="stroke:#181818;stroke-width:1;"/><path d="M156,580.4327 C156,605.6473 156,635.38 156,662.6806 " fill="transparent" style="stroke:#181818;stroke-width:1;"/><text fill="#000000" font-family="Tahoma" font-size="13" lengthAdjust="spacing" textLength="73.9565" x="158" y="646.9048">JPA mapping</text><polygon fill="#181818" points="545.7759,482.6305,553.8944,477.0546,548.3925,478.3699,547.0773,472.868,545.7759,482.6305" style="stroke:#181818;stroke-width:1;"/><path d="M579.3193,428.0112 C568.4448,445.7183 559.7957,459.802 548.9159,477.5177 " fill="transparent" style="stroke:#181818;stroke-width:1;stroke-dasharray:7.0,7.0;"/><text fill="#000000" font-family="Tahoma" font-size="13" lengthAdjust="spacing" textLength="124.3506" x="568" y="460.9048">provider collaboration</text><polygon fill="#181818" points="1009.9843,507.7929,1003.5909,500.3013,1005.4736,505.6357,1000.1393,507.5184,1009.9843,507.7929" style="stroke:#181818;stroke-width:1;"/><path d="M822.1235,427.9444 C838.4034,433.7907 854.5271,439.8095 870,445.8984 C917.1658,464.4594 963.2601,485.4467 1004.5715,505.2042 " fill="transparent" style="stroke:#181818;stroke-width:1;"/><text fill="#000000" font-family="Tahoma" font-size="13" lengthAdjust="spacing" textLength="98.4839" x="915" y="460.9048">API authorization</text><polygon fill="#181818" points="768.1705,507.8583,764.488,498.7238,764.5787,504.3799,758.9226,504.4707,768.1705,507.8583" style="stroke:#181818;stroke-width:1;"/><path d="M685.7197,428.0112 C713.2,454.6237 739.8438,480.4261 763.8604,503.6843 " fill="transparent" style="stroke:#181818;stroke-width:1;"/><text fill="#000000" font-family="Tahoma" font-size="13" lengthAdjust="spacing" textLength="142.6699" x="722" y="460.9048">public response mapping</text><polygon fill="#181818" points="1476.1477,677.8096,1485.9414,678.8508,1480.9058,676.2733,1483.4834,671.2378,1476.1477,677.8096" style="stroke:#181818;stroke-width:1;"/><path d="M1879.0668,574.1569 C1779.8824,596.6018 1632.0103,631.7683 1505,668.8984 C1495.6069,671.6444 1491.5539,672.8354 1481.8575,675.9661 " fill="transparent" style="stroke:#181818;stroke-width:1;"/><text fill="#000000" font-family="Tahoma" font-size="13" lengthAdjust="spacing" textLength="158.4058" x="1639" y="646.9048">schema version / checksum</text><!--SRC=[TLPDSnit3Btlhq3LIpiPMKaEdOaoanbzM5CdTgng5UVY2xMY9DPSSaroPIkT_lS-aBkIrd5FaW0Gm0CU0FrIER4j1Mbni7KWNyeWZCZyWpALSA8alnDh-wJCbZP2UtccMOdYOUjiRTOJgwsZNsUpsNJsuSnYBJUYrc5cJVWgIabBiREbo88AMjAYDa51MDYoiaQQm3b8vwbFT-y-K2bDtVV15W-aJ91R9uAoXdvxzvPkYq3ltxx_u_Sis8g2fPKDmIASSh9Wg-paixUG0kPx9Pyy3HYDa-jJJ7zl9ZMYbD91cmUnsU3pYmh5JXfykq4njjBrI7ZwBbTP1SmGK2-l7DTaR6sWnMM-955LMXKnoHxzavt1was0trcj0UxU_BbSpk5uB8MXEw7LEk4Qa9CU3xoawVBMnu2JZfVHAG1vwVQga72t52ij1xdq7l8XJPL1MitFF5bTbPM6_nPdenmLUEyR4rH11A7jTd3hrfAH3Ua63MYahpjgJS-qzsPMwutI6jqBGueMPvAkdwX5oODSI6_rFhPW8RVA1tVuMNblnd23U8EvE2J_ZU3IR9MHUDmeNa-tCJuY7jLXDyYPO4FYxuqYqW325p-NJXWl8hkM4ewHMAj2UtrTLgoQEyjLjOamUPS5pdhVB-swranwK0BkqC6c7qmI-HpWOQ_MZBRJoYPva3dgMg2eJ-slhNsegrIUYT15ZUIi-xdZT-ZMHl5pRcrC_Pi7cKz8cw9tCJNgnCWsxGwonZ-9I2cg6WZ0zWr4VG6CgvRiNr6Y6iq8dh7cr5WUIAGUK-6MTRB0s529AOo1urZ0l5F48yjRg515NpTTE6cqfx2bp_CH1hEoNg6aYWVk4bih7EYnblmRdYfsNeAqgY1ddqYZV6b-5tZOJH7RJncIx48TfzUVIkBRpFonnopYIlcMRj7rPVPlXiqXLW8BepUtFcoTpF-wHW7hAadRhiojnUQXDvJdr_7jT7o-7sVwy2GEzmQY4jPlg4hE_AF67kvZ5ST7CCkm0AdV_qGJ6jBd_FOhxzFOBfHKyL9A0GTKj2kr03MLp2RnMOvdDH8ha9tFyYZZ4a4SJjF5E9lYPb7BPjCnXvoE9oVH9KlG7MuvsWL_5nUVJWI5jkKXij1Qh6ow84rWfWziHlCh4lYAvluuLz_m-tgbkQVjNcuZeHIdf3mE1SudzbEBVIVH_xhCZCMAQ2wJtPoFJiizugAyElsiQOiuy9tnojgjnpR_loDOQol9wZxuZF7sHbH-PqD64sq11mQlh14MUzpgVXjrFhgQPksn7b9BkZQh2vgfvr2ZI4EIptoXLC3TB-qWI8ysMACF5vaqQ-9wl2nA6k8y7MLcUGFbYpnu5BwqUqn7sCdsuFM3xHV7QueuGBYMfa288zyxtVQHSVjcyyKhAz8IgXBslawmZmiPdfO8g8oly6S2QRMtDd4NBeEh2rwmoloT_cvyZ4GKmBXE0txCYpS4O406j_F49oYrJUkCdyoK4Hf6MlBGOeje_lLOuxyC8rUEx5FgVOL_PeKy5VC_]--></g></svg>