<svg xmlns="http://www.w3.org/2000/svg" xmlns:xlink="http://www.w3.org/1999/xlink" contentStyleType="text/css" data-diagram-type="SEQUENCE" height="1360px" preserveAspectRatio="none" style="width:1813px;height:1360px;background:#FFFFFF;" version="1.1" viewBox="0 0 1813 1360" width="1813px" zoomAndPan="magnify"><title>Bill request -&gt; Payment -&gt; explicit close (actual locks)</title><defs/><g><text fill="#000000" font-family="Tahoma" font-size="14" font-weight="bold" lengthAdjust="spacing" textLength="384.6309" x="712.9141" y="29.0068">Bill request -&gt; Payment -&gt; explicit close (actual locks)</text><rect fill="transparent" height="179.1484" style="stroke:#000000;stroke-width:1.5;" width="1577.459" x="214.3301" y="182.1797"/><rect fill="transparent" height="179.1484" style="stroke:#000000;stroke-width:1.5;" width="1415.4414" x="376.3477" y="636.2422"/><rect fill="transparent" height="181.8398" style="stroke:#000000;stroke-width:1.5;" width="449.5903" x="1342.1987" y="940.1563"/><g><title>Customer</title><rect fill="transparent" height="1159.6563" width="8" x="33.4595" y="119.7969"/><line style="stroke:#181818;stroke-width:0.5;stroke-dasharray:5.0,5.0;" x1="37" x2="37" y1="119.7969" y2="1279.4531"/></g><g><title>SERVICE_STAFF</title><rect fill="transparent" height="1159.6563" width="8" x="129.3169" y="119.7969"/><line style="stroke:#181818;stroke-width:0.5;stroke-dasharray:5.0,5.0;" x1="132.9189" x2="132.9189" y1="119.7969" y2="1279.4531"/></g><g><title>CustomerBillingService</title><rect fill="transparent" height="1159.6563" width="8" x="293.1934" y="119.7969"/><line style="stroke:#181818;stroke-width:0.5;stroke-dasharray:5.0,5.0;" x1="296.3301" x2="296.3301" y1="119.7969" y2="1279.4531"/></g><g><title>BillingPreviewService / BillingEngine</title><rect fill="transparent" height="1159.6563" width="8" x="496.0181" y="119.7969"/><line style="stroke:#181818;stroke-width:0.5;stroke-dasharray:5.0,5.0;" x1="499.3477" x2="499.3477" y1="119.7969" y2="1279.4531"/></g><g><title>DatabaseBillingContextProvider</title><rect fill="transparent" height="1159.6563" width="8" x="812.6206" y="119.7969"/><line style="stroke:#181818;stroke-width:0.5;stroke-dasharray:5.0,5.0;" x1="816.4492" x2="816.4492" y1="119.7969" y2="1279.4531"/></g><g><title>PaymentServiceImpl</title><rect fill="transparent" height="1159.6563" width="8" x="1068" y="119.7969"/><line style="stroke:#181818;stroke-width:0.5;stroke-dasharray:5.0,5.0;" x1="1071.106" x2="1071.106" y1="119.7969" y2="1279.4531"/></g><g><title>DiningSessionServiceImpl</title><rect fill="transparent" height="1159.6563" width="8" x="1430.0239" y="119.7969"/><line style="stroke:#181818;stroke-width:0.5;stroke-dasharray:5.0,5.0;" x1="1433.1987" x2="1433.1987" y1="119.7969" y2="1279.4531"/></g><g><title>DatabasePaymentStatusLookup</title><rect fill="transparent" height="1159.6563" width="8" x="1627.5444" y="119.7969"/><line style="stroke:#181818;stroke-width:0.5;stroke-dasharray:5.0,5.0;" x1="1631.2998" x2="1631.2998" y1="119.7969" y2="1279.4531"/></g><g><title>DB</title><rect fill="transparent" height="1159.6563" width="8" x="1759.7891" y="119.7969"/><line style="stroke:#181818;stroke-width:0.5;stroke-dasharray:5.0,5.0;" x1="1763.7891" x2="1763.7891" y1="119.7969" y2="1279.4531"/></g><text fill="#000000" font-family="Tahoma" font-size="14" lengthAdjust="spacing" textLength="58.9189" x="5" y="116.9053">Customer</text><ellipse cx="37.4595" cy="51.3984" fill="#E2E2F0" rx="8" ry="8" style="stroke:#181818;stroke-width:0.5;"/><path d="M37.4595,59.3984 L37.4595,86.3984 M24.4595,67.3984 L50.4595,67.3984 M37.4595,86.3984 L24.4595,101.3984 M37.4595,86.3984 L50.4595,101.3984 " fill="transparent" style="stroke:#181818;stroke-width:0.5;"/><text fill="#000000" font-family="Tahoma" font-size="14" lengthAdjust="spacing" textLength="58.9189" x="5" y="1292.46">Customer</text><ellipse cx="37.4595" cy="1303.8516" fill="#E2E2F0" rx="8" ry="8" style="stroke:#181818;stroke-width:0.5;"/><path d="M37.4595,1311.8516 L37.4595,1338.8516 M24.4595,1319.8516 L50.4595,1319.8516 M37.4595,1338.8516 L24.4595,1353.8516 M37.4595,1338.8516 L50.4595,1353.8516 " fill="transparent" style="stroke:#181818;stroke-width:0.5;"/><text fill="#000000" font-family="Tahoma" font-size="14" lengthAdjust="spacing" textLength="100.7959" x="79.9189" y="116.9053">SERVICE_STAFF</text><ellipse cx="133.3169" cy="51.3984" fill="#E2E2F0" rx="8" ry="8" style="stroke:#181818;stroke-width:0.5;"/><path d="M133.3169,59.3984 L133.3169,86.3984 M120.3169,67.3984 L146.3169,67.3984 M133.3169,86.3984 L120.3169,101.3984 M133.3169,86.3984 L146.3169,101.3984 " fill="transparent" style="stroke:#181818;stroke-width:0.5;"/><text fill="#000000" font-family="Tahoma" font-size="14" lengthAdjust="spacing" textLength="100.7959" x="79.9189" y="1292.46">SERVICE_STAFF</text><ellipse cx="133.3169" cy="1303.8516" fill="#E2E2F0" rx="8" ry="8" style="stroke:#181818;stroke-width:0.5;"/><path d="M133.3169,1311.8516 L133.3169,1338.8516 M120.3169,1319.8516 L146.3169,1319.8516 M133.3169,1338.8516 L120.3169,1353.8516 M133.3169,1338.8516 L146.3169,1353.8516 " fill="transparent" style="stroke:#181818;stroke-width:0.5;"/><text fill="#000000" font-family="Tahoma" font-size="14" lengthAdjust="spacing" textLength="139.7266" x="224.3301" y="116.9053">CustomerBillingService</text><ellipse cx="297.1934" cy="86.8984" fill="#E2E2F0" rx="12" ry="12" style="stroke:#181818;stroke-width:0.5;"/><polygon fill="#181818" points="293.1934,74.8984,299.1934,69.8984,297.1934,74.8984,299.1934,79.8984,293.1934,74.8984" style="stroke:#181818;stroke-width:1;"/><text fill="#000000" font-family="Tahoma" font-size="14" lengthAdjust="spacing" textLength="139.7266" x="224.3301" y="1292.46">CustomerBillingService</text><ellipse cx="297.1934" cy="1311.3516" fill="#E2E2F0" rx="12" ry="12" style="stroke:#181818;stroke-width:0.5;"/><polygon fill="#181818" points="293.1934,1299.3516,299.1934,1294.3516,297.1934,1299.3516,299.1934,1304.3516,293.1934,1299.3516" style="stroke:#181818;stroke-width:1;"/><text fill="#000000" font-family="Tahoma" font-size="14" lengthAdjust="spacing" textLength="221.3408" x="386.3477" y="116.9053">BillingPreviewService / BillingEngine</text><ellipse cx="500.0181" cy="86.8984" fill="#E2E2F0" rx="12" ry="12" style="stroke:#181818;stroke-width:0.5;"/><polygon fill="#181818" points="496.0181,74.8984,502.0181,69.8984,500.0181,74.8984,502.0181,79.8984,496.0181,74.8984" style="stroke:#181818;stroke-width:1;"/><text fill="#000000" font-family="Tahoma" font-size="14" lengthAdjust="spacing" textLength="221.3408" x="386.3477" y="1292.46">BillingPreviewService / BillingEngine</text><ellipse cx="500.0181" cy="1311.3516" fill="#E2E2F0" rx="12" ry="12" style="stroke:#181818;stroke-width:0.5;"/><polygon fill="#181818" points="496.0181,1299.3516,502.0181,1294.3516,500.0181,1299.3516,502.0181,1304.3516,496.0181,1299.3516" style="stroke:#181818;stroke-width:1;"/><rect fill="#E2E2F0" height="47.7969" rx="2.5" ry="2.5" style="stroke:#181818;stroke-width:0.5;" width="206.3428" x="713.4492" y="71"/><text fill="#000000" font-family="Tahoma" font-size="14" lengthAdjust="spacing" textLength="192.3428" x="720.4492" y="92.0068">DatabaseBillingContextProvider</text><text fill="#000000" font-family="Tahoma" font-size="14" lengthAdjust="spacing" textLength="165.6689" x="733.7861" y="108.9053">DiningSessionBillingReader</text><rect fill="#E2E2F0" height="47.7969" rx="2.5" ry="2.5" style="stroke:#181818;stroke-width:0.5;" width="206.3428" x="713.4492" y="1278.4531"/><text fill="#000000" font-family="Tahoma" font-size="14" lengthAdjust="spacing" textLength="192.3428" x="720.4492" y="1299.46">DatabaseBillingContextProvider</text><text fill="#000000" font-family="Tahoma" font-size="14" lengthAdjust="spacing" textLength="165.6689" x="733.7861" y="1316.3584">DiningSessionBillingReader</text><text fill="#000000" font-family="Tahoma" font-size="14" lengthAdjust="spacing" textLength="125.7881" x="1006.106" y="116.9053">PaymentServiceImpl</text><ellipse cx="1072" cy="86.8984" fill="#E2E2F0" rx="12" ry="12" style="stroke:#181818;stroke-width:0.5;"/><polygon fill="#181818" points="1068,74.8984,1074,69.8984,1072,74.8984,1074,79.8984,1068,74.8984" style="stroke:#181818;stroke-width:1;"/><text fill="#000000" font-family="Tahoma" font-size="14" lengthAdjust="spacing" textLength="125.7881" x="1006.106" y="1292.46">PaymentServiceImpl</text><ellipse cx="1072" cy="1311.3516" fill="#E2E2F0" rx="12" ry="12" style="stroke:#181818;stroke-width:0.5;"/><polygon fill="#181818" points="1068,1299.3516,1074,1294.3516,1072,1299.3516,1074,1304.3516,1068,1299.3516" style="stroke:#181818;stroke-width:1;"/><text fill="#000000" font-family="Tahoma" font-size="14" lengthAdjust="spacing" textLength="157.6504" x="1352.1987" y="116.9053">DiningSessionServiceImpl</text><ellipse cx="1434.0239" cy="86.8984" fill="#E2E2F0" rx="12" ry="12" style="stroke:#181818;stroke-width:0.5;"/><polygon fill="#181818" points="1430.0239,74.8984,1436.0239,69.8984,1434.0239,74.8984,1436.0239,79.8984,1430.0239,74.8984" style="stroke:#181818;stroke-width:1;"/><text fill="#000000" font-family="Tahoma" font-size="14" lengthAdjust="spacing" textLength="157.6504" x="1352.1987" y="1292.46">DiningSessionServiceImpl</text><ellipse cx="1434.0239" cy="1311.3516" fill="#E2E2F0" rx="12" ry="12" style="stroke:#181818;stroke-width:0.5;"/><polygon fill="#181818" points="1430.0239,1299.3516,1436.0239,1294.3516,1434.0239,1299.3516,1436.0239,1304.3516,1430.0239,1299.3516" style="stroke:#181818;stroke-width:1;"/><rect fill="#E2E2F0" height="30.8984" rx="2.5" ry="2.5" style="stroke:#181818;stroke-width:0.5;" width="208.4893" x="1527.2998" y="87.8984"/><text fill="#000000" font-family="Tahoma" font-size="14" lengthAdjust="spacing" textLength="194.4893" x="1534.2998" y="108.9053">DatabasePaymentStatusLookup</text><rect fill="#E2E2F0" height="30.8984" rx="2.5" ry="2.5" style="stroke:#181818;stroke-width:0.5;" width="208.4893" x="1527.2998" y="1278.4531"/><text fill="#000000" font-family="Tahoma" font-size="14" lengthAdjust="spacing" textLength="194.4893" x="1534.2998" y="1299.46">DatabasePaymentStatusLookup</text><text fill="#000000" font-family="Tahoma" font-size="14" lengthAdjust="spacing" textLength="17.7461" x="1751.916" y="116.9053">DB</text><path d="M1745.7891,66.8984 C1745.7891,56.8984 1763.7891,56.8984 1763.7891,56.8984 C1763.7891,56.8984 1781.7891,56.8984 1781.7891,66.8984 L1781.7891,92.8984 C1781.7891,102.8984 1763.7891,102.8984 1763.7891,102.8984 C1763.7891,102.8984 1745.7891,102.8984 1745.7891,92.8984 L1745.7891,66.8984 " fill="#E2E2F0" style="stroke:#181818;stroke-width:1.5;"/><path d="M1745.7891,66.8984 C1745.7891,76.8984 1763.7891,76.8984 1763.7891,76.8984 C1763.7891,76.8984 1781.7891,76.8984 1781.7891,66.8984 " fill="transparent" style="stroke:#181818;stroke-width:1.5;"/><text fill="#000000" font-family="Tahoma" font-size="14" lengthAdjust="spacing" textLength="17.7461" x="1751.916" y="1292.46">DB</text><path d="M1745.7891,1305.3516 C1745.7891,1295.3516 1763.7891,1295.3516 1763.7891,1295.3516 C1763.7891,1295.3516 1781.7891,1295.3516 1781.7891,1305.3516 L1781.7891,1331.3516 C1781.7891,1341.3516 1763.7891,1341.3516 1763.7891,1341.3516 C1763.7891,1341.3516 1745.7891,1341.3516 1745.7891,1331.3516 L1745.7891,1305.3516 " fill="#E2E2F0" style="stroke:#181818;stroke-width:1.5;"/><path d="M1745.7891,1305.3516 C1745.7891,1315.3516 1763.7891,1315.3516 1763.7891,1315.3516 C1763.7891,1315.3516 1781.7891,1315.3516 1781.7891,1305.3516 " fill="transparent" style="stroke:#181818;stroke-width:1.5;"/><polygon fill="#181818" points="285.1934,163.1797,295.1934,167.1797,285.1934,171.1797,289.1934,167.1797" style="stroke:#181818;stroke-width:1;"/><line style="stroke:#181818;stroke-width:1;" x1="37.4595" x2="291.1934" y1="167.1797" y2="167.1797"/><text fill="#000000" font-family="Tahoma" font-size="13" font-weight="bold" lengthAdjust="spacing" textLength="8.2773" x="44.4595" y="154.6489">1</text><text fill="#000000" font-family="Tahoma" font-size="13" lengthAdjust="spacing" textLength="223.4565" x="56.7368" y="146.8032">POST /dining-sessions/{id}/bill-request</text><text fill="#000000" font-family="Tahoma" font-size="13" lengthAdjust="spacing" textLength="145.209" x="56.7368" y="162.4946">customer cookie + Origin</text><path d="M214.3301,182.1797 L456.1265,182.1797 L456.1265,189.8711 L446.1265,199.8711 L214.3301,199.8711 L214.3301,182.1797 " fill="#EEEEEE" style="stroke:#000000;stroke-width:1.5;"/><rect fill="transparent" height="179.1484" style="stroke:#000000;stroke-width:1.5;" width="1577.459" x="214.3301" y="182.1797"/><text fill="#000000" font-family="Tahoma" font-size="13" font-weight="bold" lengthAdjust="spacing" textLength="196.7964" x="229.3301" y="196.186">transaction / session row lock</text><polygon fill="#181818" points="1751.7891,217.5625,1761.7891,221.5625,1751.7891,225.5625,1755.7891,221.5625" style="stroke:#181818;stroke-width:1;"/><line style="stroke:#181818;stroke-width:1;" x1="297.1934" x2="1757.7891" y1="221.5625" y2="221.5625"/><text fill="#000000" font-family="Tahoma" font-size="13" font-weight="bold" lengthAdjust="spacing" textLength="8.2773" x="304.1934" y="216.8774">2</text><text fill="#000000" font-family="Tahoma" font-size="13" lengthAdjust="spacing" textLength="187.0527" x="316.4707" y="216.8774">findByIdForUpdate / refresh lock</text><line style="stroke:#181818;stroke-width:1;" x1="297.1934" x2="339.1934" y1="251.2539" y2="251.2539"/><line style="stroke:#181818;stroke-width:1;" x1="339.1934" x2="339.1934" y1="251.2539" y2="264.2539"/><line style="stroke:#181818;stroke-width:1;" x1="298.1934" x2="339.1934" y1="264.2539" y2="264.2539"/><polygon fill="#181818" points="308.1934,260.2539,298.1934,264.2539,308.1934,268.2539,304.1934,264.2539" style="stroke:#181818;stroke-width:1;"/><text fill="#000000" font-family="Tahoma" font-size="13" font-weight="bold" lengthAdjust="spacing" textLength="8.2773" x="304.1934" y="246.5688">3</text><text fill="#000000" font-family="Tahoma" font-size="13" lengthAdjust="spacing" textLength="176.5474" x="316.4707" y="246.5688">recheck credential and ACTIVE</text><polygon fill="#181818" points="1751.7891,289.9453,1761.7891,293.9453,1751.7891,297.9453,1755.7891,293.9453" style="stroke:#181818;stroke-width:1;"/><line style="stroke:#181818;stroke-width:1;" x1="297.1934" x2="1757.7891" y1="293.9453" y2="293.9453"/><text fill="#000000" font-family="Tahoma" font-size="13" font-weight="bold" lengthAdjust="spacing" textLength="8.2773" x="304.1934" y="289.2603">4</text><text fill="#000000" font-family="Tahoma" font-size="13" lengthAdjust="spacing" textLength="230.0581" x="316.4707" y="289.2603">requestBill() sets bill_requested_at once</text><polygon fill="#181818" points="804.6206,319.6367,814.6206,323.6367,804.6206,327.6367,808.6206,323.6367" style="stroke:#181818;stroke-width:1;"/><line style="stroke:#181818;stroke-width:1;" x1="297.1934" x2="810.6206" y1="323.6367" y2="323.6367"/><text fill="#000000" font-family="Tahoma" font-size="13" font-weight="bold" lengthAdjust="spacing" textLength="8.2773" x="304.1934" y="318.9517">5</text><text fill="#000000" font-family="Tahoma" font-size="13" lengthAdjust="spacing" textLength="201.1318" x="316.4707" y="318.9517">trusted opening snapshot + counts</text><polygon fill="#181818" points="488.0181,349.3281,498.0181,353.3281,488.0181,357.3281,492.0181,353.3281" style="stroke:#181818;stroke-width:1;"/><line style="stroke:#181818;stroke-width:1;" x1="297.1934" x2="494.0181" y1="353.3281" y2="353.3281"/><text fill="#000000" font-family="Tahoma" font-size="13" font-weight="bold" lengthAdjust="spacing" textLength="8.2773" x="304.1934" y="348.6431">6</text><text fill="#000000" font-family="Tahoma" font-size="13" lengthAdjust="spacing" textLength="102.2607" x="316.4707" y="348.6431">calculate(context)</text><polygon fill="#181818" points="48.4595,386.0195,38.4595,390.0195,48.4595,394.0195,44.4595,390.0195" style="stroke:#181818;stroke-width:1;"/><line style="stroke:#181818;stroke-width:1;stroke-dasharray:2.0,2.0;" x1="42.4595" x2="296.1934" y1="390.0195" y2="390.0195"/><text fill="#000000" font-family="Tahoma" font-size="13" font-weight="bold" lengthAdjust="spacing" textLength="8.2773" x="54.4595" y="385.3345">7</text><text fill="#000000" font-family="Tahoma" font-size="13" lengthAdjust="spacing" textLength="159.7896" x="66.7368" y="385.3345">REQUESTED + BillSummary</text><path d="M254,403.0195 L254,444.0195 L1806,444.0195 L1806,413.0195 L1796,403.0195 L254,403.0195 " fill="#FEFFDD" style="stroke:#181818;stroke-width:0.5;"/><path d="M1796,403.0195 L1796,413.0195 L1806,413.0195 L1796,403.0195 " fill="#FEFFDD" style="stroke:#181818;stroke-width:0.5;"/><text fill="#000000" font-family="Tahoma" font-size="13" lengthAdjust="spacing" textLength="323.2671" x="816.0537" y="421.0259">Same lock as Order/Payment/close. Later Orders -&gt;409.</text><text fill="#000000" font-family="Tahoma" font-size="13" lengthAdjust="spacing" textLength="419.3516" x="816.0537" y="436.7173">Repeated bill request keeps original timestamp; session remains ACTIVE.</text><polygon fill="#181818" points="488.0181,482.7852,498.0181,486.7852,488.0181,490.7852,492.0181,486.7852" style="stroke:#181818;stroke-width:1;"/><line style="stroke:#181818;stroke-width:1;" x1="133.3169" x2="494.0181" y1="486.7852" y2="486.7852"/><text fill="#000000" font-family="Tahoma" font-size="13" font-weight="bold" lengthAdjust="spacing" textLength="8.2773" x="140.3169" y="474.2544">8</text><text fill="#000000" font-family="Tahoma" font-size="13" lengthAdjust="spacing" textLength="193.4702" x="152.5942" y="466.4087">POST /billing/preview {sessionId}</text><text fill="#000000" font-family="Tahoma" font-size="13" lengthAdjust="spacing" textLength="165.5596" x="152.5942" y="482.1001">SERVICE_STAFF login cookie</text><polygon fill="#181818" points="804.6206,512.4766,814.6206,516.4766,804.6206,520.4766,808.6206,516.4766" style="stroke:#181818;stroke-width:1;"/><line style="stroke:#181818;stroke-width:1;" x1="500.0181" x2="810.6206" y1="516.4766" y2="516.4766"/><text fill="#000000" font-family="Tahoma" font-size="13" font-weight="bold" lengthAdjust="spacing" textLength="8.2773" x="507.0181" y="511.7915">9</text><text fill="#000000" font-family="Tahoma" font-size="13" lengthAdjust="spacing" textLength="280.3252" x="519.2954" y="511.7915">snapshot context (not browser-supplied amount)</text><polygon fill="#181818" points="144.3169,542.168,134.3169,546.168,144.3169,550.168,140.3169,546.168" style="stroke:#181818;stroke-width:1;"/><line style="stroke:#181818;stroke-width:1;stroke-dasharray:2.0,2.0;" x1="138.3169" x2="499.0181" y1="546.168" y2="546.168"/><text fill="#000000" font-family="Tahoma" font-size="13" font-weight="bold" lengthAdjust="spacing" textLength="16.5547" x="150.3169" y="541.4829">10</text><text fill="#000000" font-family="Tahoma" font-size="13" lengthAdjust="spacing" textLength="122.4019" x="170.8716" y="541.4829">rounded BillSummary</text><polygon fill="#181818" points="1060,587.5508,1070,591.5508,1060,595.5508,1064,591.5508" style="stroke:#181818;stroke-width:1;"/><line style="stroke:#181818;stroke-width:1;" x1="133.3169" x2="1066" y1="591.5508" y2="591.5508"/><text fill="#000000" font-family="Tahoma" font-size="13" font-weight="bold" lengthAdjust="spacing" textLength="16.5547" x="140.3169" y="579.02">11</text><text fill="#000000" font-family="Tahoma" font-size="13" lengthAdjust="spacing" textLength="211.561" x="160.8716" y="571.1743">GET /payments/sessions/{sessionId}</text><text fill="#000000" font-family="Tahoma" font-size="13" lengthAdjust="spacing" textLength="206.248" x="160.8716" y="586.8657">check existing payment before retry</text><polygon fill="#181818" points="1060,617.2422,1070,621.2422,1060,625.2422,1064,621.2422" style="stroke:#181818;stroke-width:1;"/><line style="stroke:#181818;stroke-width:1;" x1="133.3169" x2="1066" y1="621.2422" y2="621.2422"/><text fill="#000000" font-family="Tahoma" font-size="13" font-weight="bold" lengthAdjust="spacing" textLength="16.5547" x="140.3169" y="616.5571">12</text><text fill="#000000" font-family="Tahoma" font-size="13" lengthAdjust="spacing" textLength="262.4692" x="160.8716" y="616.5571">POST /payments {sessionId,paymentMethod}</text><path d="M376.3477,636.2422 L717.6372,636.2422 L717.6372,643.9336 L707.6372,653.9336 L376.3477,653.9336 L376.3477,636.2422 " fill="#EEEEEE" style="stroke:#000000;stroke-width:1.5;"/><rect fill="transparent" height="179.1484" style="stroke:#000000;stroke-width:1.5;" width="1415.4414" x="376.3477" y="636.2422"/><text fill="#000000" font-family="Tahoma" font-size="13" font-weight="bold" lengthAdjust="spacing" textLength="296.2896" x="391.3477" y="650.2485">payment transaction / same session row lock</text><polygon fill="#181818" points="1751.7891,671.625,1761.7891,675.625,1751.7891,679.625,1755.7891,675.625" style="stroke:#181818;stroke-width:1;"/><line style="stroke:#181818;stroke-width:1;" x1="1072" x2="1757.7891" y1="675.625" y2="675.625"/><text fill="#000000" font-family="Tahoma" font-size="13" font-weight="bold" lengthAdjust="spacing" textLength="16.5547" x="1079" y="670.9399">13</text><text fill="#000000" font-family="Tahoma" font-size="13" lengthAdjust="spacing" textLength="137.7188" x="1099.5547" y="670.9399">lock and refresh session</text><line style="stroke:#181818;stroke-width:1;" x1="1072" x2="1114" y1="705.3164" y2="705.3164"/><line style="stroke:#181818;stroke-width:1;" x1="1114" x2="1114" y1="705.3164" y2="718.3164"/><line style="stroke:#181818;stroke-width:1;" x1="1073" x2="1114" y1="718.3164" y2="718.3164"/><polygon fill="#181818" points="1083,714.3164,1073,718.3164,1083,722.3164,1079,718.3164" style="stroke:#181818;stroke-width:1;"/><text fill="#000000" font-family="Tahoma" font-size="13" font-weight="bold" lengthAdjust="spacing" textLength="16.5547" x="1079" y="700.6313">14</text><text fill="#000000" font-family="Tahoma" font-size="13" lengthAdjust="spacing" textLength="327.4692" x="1099.5547" y="700.6313">require ACTIVE + billRequestedAt + no existing payment</text><polygon fill="#181818" points="827.6206,744.0078,817.6206,748.0078,827.6206,752.0078,823.6206,748.0078" style="stroke:#181818;stroke-width:1;"/><line style="stroke:#181818;stroke-width:1;" x1="821.6206" x2="1071" y1="748.0078" y2="748.0078"/><text fill="#000000" font-family="Tahoma" font-size="13" font-weight="bold" lengthAdjust="spacing" textLength="16.5547" x="833.6206" y="743.3228">15</text><text fill="#000000" font-family="Tahoma" font-size="13" lengthAdjust="spacing" textLength="210.8247" x="854.1753" y="743.3228">findBySessionId; require matching id</text><polygon fill="#181818" points="511.0181,773.6992,501.0181,777.6992,511.0181,781.6992,507.0181,777.6992" style="stroke:#181818;stroke-width:1;"/><line style="stroke:#181818;stroke-width:1;" x1="505.0181" x2="1071" y1="777.6992" y2="777.6992"/><text fill="#000000" font-family="Tahoma" font-size="13" font-weight="bold" lengthAdjust="spacing" textLength="16.5547" x="517.0181" y="773.0142">16</text><text fill="#000000" font-family="Tahoma" font-size="13" lengthAdjust="spacing" textLength="166.0801" x="537.5728" y="773.0142">calculate total from snapshot</text><polygon fill="#181818" points="1751.7891,803.3906,1761.7891,807.3906,1751.7891,811.3906,1755.7891,807.3906" style="stroke:#181818;stroke-width:1;"/><line style="stroke:#181818;stroke-width:1;" x1="1072" x2="1757.7891" y1="807.3906" y2="807.3906"/><text fill="#000000" font-family="Tahoma" font-size="13" font-weight="bold" lengthAdjust="spacing" textLength="16.5547" x="1079" y="802.7056">17</text><text fill="#000000" font-family="Tahoma" font-size="13" lengthAdjust="spacing" textLength="276.4341" x="1099.5547" y="802.7056">insert PAID amount + paidAt; unique session_id</text><polygon fill="#181818" points="144.3169,840.082,134.3169,844.082,144.3169,848.082,140.3169,844.082" style="stroke:#181818;stroke-width:1;"/><line style="stroke:#181818;stroke-width:1;stroke-dasharray:2.0,2.0;" x1="138.3169" x2="1071" y1="844.082" y2="844.082"/><text fill="#000000" font-family="Tahoma" font-size="13" font-weight="bold" lengthAdjust="spacing" textLength="16.5547" x="150.3169" y="839.397">18</text><text fill="#000000" font-family="Tahoma" font-size="13" lengthAdjust="spacing" textLength="240.9888" x="170.8716" y="839.397">201 PaymentResult with recorded amount</text><path d="M1000,857.082 L1000,898.082 L1504,898.082 L1504,867.082 L1494,857.082 L1000,857.082 " fill="#FEFFDD" style="stroke:#181818;stroke-width:0.5;"/><path d="M1494,857.082 L1494,867.082 L1504,867.082 L1494,857.082 " fill="#FEFFDD" style="stroke:#181818;stroke-width:0.5;"/><text fill="#000000" font-family="Tahoma" font-size="13" lengthAdjust="spacing" textLength="272.6191" x="1067.2712" y="875.0884">PAID does not close; duplicate Payment -&gt;409.</text><text fill="#000000" font-family="Tahoma" font-size="13" lengthAdjust="spacing" textLength="361.2007" x="1067.2712" y="890.7798">If POST response lost, recover by GET; never auto-retry POST.</text><polygon fill="#181818" points="1422.0239,921.1563,1432.0239,925.1563,1422.0239,929.1563,1426.0239,925.1563" style="stroke:#181818;stroke-width:1;"/><line style="stroke:#181818;stroke-width:1;" x1="133.3169" x2="1428.0239" y1="925.1563" y2="925.1563"/><text fill="#000000" font-family="Tahoma" font-size="13" font-weight="bold" lengthAdjust="spacing" textLength="16.5547" x="140.3169" y="920.4712">19</text><text fill="#000000" font-family="Tahoma" font-size="13" lengthAdjust="spacing" textLength="188.354" x="160.8716" y="920.4712">POST /dining-sessions/{id}/close</text><path d="M1342.1987,940.1563 L1498.3589,940.1563 L1498.3589,947.8477 L1488.3589,957.8477 L1342.1987,957.8477 L1342.1987,940.1563 " fill="#EEEEEE" style="stroke:#000000;stroke-width:1.5;"/><rect fill="transparent" height="181.8398" style="stroke:#000000;stroke-width:1.5;" width="449.5903" x="1342.1987" y="940.1563"/><text fill="#000000" font-family="Tahoma" font-size="13" font-weight="bold" lengthAdjust="spacing" textLength="111.1602" x="1357.1987" y="954.1626">close transaction</text><polygon fill="#181818" points="1751.7891,975.5391,1761.7891,979.5391,1751.7891,983.5391,1755.7891,979.5391" style="stroke:#181818;stroke-width:1;"/><line style="stroke:#181818;stroke-width:1;" x1="1434.0239" x2="1757.7891" y1="979.5391" y2="979.5391"/><text fill="#000000" font-family="Tahoma" font-size="13" font-weight="bold" lengthAdjust="spacing" textLength="16.5547" x="1441.0239" y="974.854">20</text><text fill="#000000" font-family="Tahoma" font-size="13" lengthAdjust="spacing" textLength="115.248" x="1461.5786" y="974.854">lock ACTIVE session</text><polygon fill="#181818" points="1619.5444,1005.2305,1629.5444,1009.2305,1619.5444,1013.2305,1623.5444,1009.2305" style="stroke:#181818;stroke-width:1;"/><line style="stroke:#181818;stroke-width:1;" x1="1434.0239" x2="1625.5444" y1="1009.2305" y2="1009.2305"/><text fill="#000000" font-family="Tahoma" font-size="13" font-weight="bold" lengthAdjust="spacing" textLength="16.5547" x="1441.0239" y="1004.5454">21</text><text fill="#000000" font-family="Tahoma" font-size="13" lengthAdjust="spacing" textLength="152.9658" x="1461.5786" y="1004.5454">findPaymentForSession(id)</text><polygon fill="#181818" points="1751.7891,1034.9219,1761.7891,1038.9219,1751.7891,1042.9219,1755.7891,1038.9219" style="stroke:#181818;stroke-width:1;"/><line style="stroke:#181818;stroke-width:1;" x1="1631.5444" x2="1757.7891" y1="1038.9219" y2="1038.9219"/><text fill="#000000" font-family="Tahoma" font-size="13" font-weight="bold" lengthAdjust="spacing" textLength="16.5547" x="1638.5444" y="1034.2368">22</text><text fill="#000000" font-family="Tahoma" font-size="13" lengthAdjust="spacing" textLength="79.4409" x="1659.0991" y="1034.2368">read payment</text><polygon fill="#181818" points="1445.0239,1064.6133,1435.0239,1068.6133,1445.0239,1072.6133,1441.0239,1068.6133" style="stroke:#181818;stroke-width:1;"/><line style="stroke:#181818;stroke-width:1;stroke-dasharray:2.0,2.0;" x1="1439.0239" x2="1630.5444" y1="1068.6133" y2="1068.6133"/><text fill="#000000" font-family="Tahoma" font-size="13" font-weight="bold" lengthAdjust="spacing" textLength="16.5547" x="1451.0239" y="1063.9282">23</text><text fill="#000000" font-family="Tahoma" font-size="13" lengthAdjust="spacing" textLength="134.2212" x="1471.5786" y="1063.9282">same sessionId + PAID</text><polygon fill="#181818" points="1751.7891,1109.9961,1761.7891,1113.9961,1751.7891,1117.9961,1755.7891,1113.9961" style="stroke:#181818;stroke-width:1;"/><line style="stroke:#181818;stroke-width:1;" x1="1434.0239" x2="1757.7891" y1="1113.9961" y2="1113.9961"/><text fill="#000000" font-family="Tahoma" font-size="13" font-weight="bold" lengthAdjust="spacing" textLength="16.5547" x="1441.0239" y="1101.4653">24</text><text fill="#000000" font-family="Tahoma" font-size="13" lengthAdjust="spacing" textLength="159.8467" x="1461.5786" y="1093.6196">lock table / delete all grants</text><text fill="#000000" font-family="Tahoma" font-size="13" lengthAdjust="spacing" textLength="211.4531" x="1461.5786" y="1109.311">complete session + table AVAILABLE</text><polygon fill="#181818" points="144.3169,1146.6875,134.3169,1150.6875,144.3169,1154.6875,140.3169,1150.6875" style="stroke:#181818;stroke-width:1;"/><line style="stroke:#181818;stroke-width:1;stroke-dasharray:2.0,2.0;" x1="138.3169" x2="1433.0239" y1="1150.6875" y2="1150.6875"/><text fill="#000000" font-family="Tahoma" font-size="13" font-weight="bold" lengthAdjust="spacing" textLength="16.5547" x="150.3169" y="1146.0024">25</text><text fill="#000000" font-family="Tahoma" font-size="13" lengthAdjust="spacing" textLength="209.9741" x="170.8716" y="1146.0024">DiningSessionResponse COMPLETED</text><polygon fill="#181818" points="285.1934,1176.3789,295.1934,1180.3789,285.1934,1184.3789,289.1934,1180.3789" style="stroke:#181818;stroke-width:1;"/><line style="stroke:#181818;stroke-width:1;" x1="37.4595" x2="291.1934" y1="1180.3789" y2="1180.3789"/><text fill="#000000" font-family="Tahoma" font-size="13" font-weight="bold" lengthAdjust="spacing" textLength="16.5547" x="44.4595" y="1175.6938">26</text><text fill="#000000" font-family="Tahoma" font-size="13" lengthAdjust="spacing" textLength="177.8105" x="65.0142" y="1175.6938">GET /bill-status with old cookie</text><polygon fill="#181818" points="48.4595,1206.0703,38.4595,1210.0703,48.4595,1214.0703,44.4595,1210.0703" style="stroke:#181818;stroke-width:1;"/><line style="stroke:#181818;stroke-width:1;stroke-dasharray:2.0,2.0;" x1="42.4595" x2="296.1934" y1="1210.0703" y2="1210.0703"/><text fill="#000000" font-family="Tahoma" font-size="13" font-weight="bold" lengthAdjust="spacing" textLength="16.5547" x="54.4595" y="1205.3853">27</text><text fill="#000000" font-family="Tahoma" font-size="13" lengthAdjust="spacing" textLength="110.043" x="75.0142" y="1205.3853">rejected after close</text><path d="M254,1223.0703 L254,1264.0703 L1806,1264.0703 L1806,1233.0703 L1796,1223.0703 L254,1223.0703 " fill="#FEFFDD" style="stroke:#181818;stroke-width:0.5;"/><path d="M1796,1223.0703 L1796,1233.0703 L1806,1233.0703 L1796,1223.0703 " fill="#FEFFDD" style="stroke:#181818;stroke-width:0.5;"/><text fill="#000000" font-family="Tahoma" font-size="13" lengthAdjust="spacing" textLength="254.6616" x="811.02" y="1241.0767">Bill-status polling every5s while page visible.</text><text fill="#000000" font-family="Tahoma" font-size="13" lengthAdjust="spacing" textLength="429.4189" x="811.02" y="1256.7681">PAID response uses recorded amount; Final public regression still pending.</text><!--SRC=[TLNRRkCs47tNLmpo56EJU5kq3us10hwbC91jN3kRfm01BOvjDXAfabGkMEJVEyEBBCVODucSovavPuRkMUb6M563smjfNfNUmLPK3WlNtKZSYhRoDqRxlqMDS2_sfXQ5Lxv2cAYg0el_jUWyNFu9I_5UemwV-DPKgbGUoieuX7DH-bPKK9dosGqAqNgZstg3jg0BOs7QEc_gxdSzNpqiflEdzVtuvWQ4WxKNssrH4WfhgiwQynFeDTeNLIBRJIUTqLcwNLfyKVYQZOQGpkTwfpIUiHUV55Il9yIDe0BEPiABZN2ORASK4z_yqfeN9T4-wfdI8R5pokXaj491To4WVtP0KbSIW4NTL6n2fvt5KRHFTkdq25v6boDxuLjtQynpsx1B_2faieBPfCWTOsgc4xY6vTtw7eOo9BvqCOSR_b3oOxYXSYuJgu-wp9ubHLK8N-3EAkfSiRE6qdahj2FIo9rQcmA1DQ-1weAJKSePfzmgBIVl2tbZxFU6m34N5hSMtVx8EE2pMEwnV8RIegGI5Mb7Q0dZwVtYONuKDY5b4iu7XC0xu0gUqZdA9-71w1Ap5vD3VjwsV0kcGMu2E2qQjpUUAYnDgxtBza7brr2AgcmhWdrUHZKC2jIoO1i6dTjq3QlvFz_dw_lvZ2AnxxgjQs7V2ssePFD2DjF9HO2-vedYqfcrEqlg6IPAXs5ihk2MyjbuvGZBRr__k7hKAsnGCFHDV_wU4Hi79f13tVAgfbDHDwC3ArWBfLrgubKHXgfNOTJ49gfvsCIvWH_9VI4_7lNnO5Q6SYLX5278eRrTErEtu9pgXmqfmw6zT6r3-u5A43NtUf2yoJs28bhfN991luCTOEeIcVmr9xXDR9WR7aJS1nnLX6_AUIOvMSC6jyOYTSIVXerjo75xzL-ais_ezqP-f0d88JzD0bDxEWwS8Git4a-YpaEGp3kh28VvLOGriaQQOe9MMTnZrgis9nLsGH8TSVZMkPHH5xOMljopevATpsV5WpUU9BMrfkvuFQw5P8NMmtAyc2LA2LOZ5E4RGQiLeStbFL4Y7fpWtYFyrw-_v5MvGaTl3hmgl-T5OApibDAR8ZA-I0KnQvnQ6dJ0EWlZCmBPyYl45HoUfZX3YstacHhVa6Xu39s_2DauzkQTrJK2ZVp7pzLbq4fmwarEB__F5se0azGIdyEULeeknf4k4jkT97f6QT57JbDTj5EJnRcIWoBR77OaYQ1JHhuymjyNx48IUzpGdu2ZTwNYxIsnGkgj8BNig2BlQDuClLjycBN_9LcF7yQBs_7aTXx8xyBs173q2guoBzExRylREMtJqpSip7zuhLnu0QDWJ2NpIZhTpHR_nP9NfzZoOetCd2xcIIzeOy8-15R2- - -KPA-ed4Ri45wKKrGRoIcehzDIIyL_5ku8Ri9URjeDIP9kTpRrWEQM6aYl48bdT_K_]--></g></svg>