<svg xmlns="http://www.w3.org/2000/svg" xmlns:xlink="http://www.w3.org/1999/xlink" contentStyleType="text/css" data-diagram-type="DESCRIPTION" height="747px" preserveAspectRatio="none" style="width:2340px;height:747px;background:#FFFDF9;" version="1.1" viewBox="0 0 2340 747" width="2340px" zoomAndPan="magnify"><title>Runtime component layers - code baseline adc5798 (8 Oct 2026)</title><defs/><g><rect fill="#FFFDF9" height="747" style="stroke:transparent;stroke-width:1;" width="2340" x="0" y="0"/><text fill="#000000" font-family="Tahoma" font-size="14" font-weight="bold" lengthAdjust="spacing" textLength="456.9893" x="934.0054" y="24.0068">Runtime component layers - code baseline adc5798 (8 Oct 2026)</text><!--cluster Spring Boot REST application--><g id="cluster_Spring Boot REST application"><path d="M16.5,150.8984 L222.332,150.8984 A3.75,3.75 0 0 1 224.832,153.3984 L231.832,173.7969 L1157.5,173.7969 A2.5,2.5 0 0 1 1160,176.2969 L1160,738.3984 A2.5,2.5 0 0 1 1157.5,740.8984 L16.5,740.8984 A2.5,2.5 0 0 1 14,738.3984 L14,153.3984 A2.5,2.5 0 0 1 16.5,150.8984 " fill="transparent" style="stroke:#000000;stroke-width:1.5;"/><line style="stroke:#000000;stroke-width:1.5;" x1="14" x2="231.832" y1="173.7969" y2="173.7969"/><text fill="#000000" font-family="Tahoma" font-size="14" font-weight="bold" lengthAdjust="spacing" textLength="204.832" x="18" y="166.9053">Spring Boot REST application</text></g><!--entity Web--><g id="elem_Web"><rect fill="#F1F1F1" height="63.7969" rx="2.5" ry="2.5" style="stroke:#181818;stroke-width:0.5;" width="268.9697" x="413.5" y="41.8984"/><rect fill="#F1F1F1" height="10" style="stroke:#181818;stroke-width:0.5;" width="15" x="662.4697" y="46.8984"/><rect fill="#F1F1F1" height="2" style="stroke:#181818;stroke-width:0.5;" width="4" x="660.4697" y="48.8984"/><rect fill="#F1F1F1" height="2" style="stroke:#181818;stroke-width:0.5;" width="4" x="660.4697" y="52.8984"/><text fill="#000000" font-family="Tahoma" font-size="14" lengthAdjust="spacing" textLength="208.209" x="428.5" y="75.9053">React views / shared components</text><text fill="#000000" font-family="Tahoma" font-size="14" lengthAdjust="spacing" textLength="228.9697" x="428.5" y="92.8037">Customer / Staff / Kitchen / Manager</text></g><!--entity DB--><g id="elem_DB"><path d="M1168,670.8984 C1168,660.8984 1275.2275,660.8984 1275.2275,660.8984 C1275.2275,660.8984 1382.4551,660.8984 1382.4551,670.8984 L1382.4551,713.6953 C1382.4551,723.6953 1275.2275,723.6953 1275.2275,723.6953 C1275.2275,723.6953 1168,723.6953 1168,713.6953 L1168,670.8984 " fill="#F1F1F1" style="stroke:#181818;stroke-width:0.5;"/><path d="M1168,670.8984 C1168,680.8984 1275.2275,680.8984 1275.2275,680.8984 C1275.2275,680.8984 1382.4551,680.8984 1382.4551,670.8984 " fill="transparent" style="stroke:#181818;stroke-width:0.5;"/><text fill="#000000" font-family="Tahoma" font-size="14" lengthAdjust="spacing" textLength="71.0732" x="1178" y="698.9053">PostgreSQL</text><text fill="#000000" font-family="Tahoma" font-size="14" lengthAdjust="spacing" textLength="194.4551" x="1178" y="715.8037">Supabase Session Pooler + SSL</text></g><!--entity Fly--><g id="elem_Fly"><rect fill="#F1F1F1" height="63.7969" rx="2.5" ry="2.5" style="stroke:#181818;stroke-width:0.5;" width="224.625" x="1765.5" y="507.8984"/><rect fill="#F1F1F1" height="10" style="stroke:#181818;stroke-width:0.5;" width="15" x="1970.125" y="512.8984"/><rect fill="#F1F1F1" height="2" style="stroke:#181818;stroke-width:0.5;" width="4" x="1968.125" y="514.8984"/><rect fill="#F1F1F1" height="2" style="stroke:#181818;stroke-width:0.5;" width="4" x="1968.125" y="518.8984"/><text fill="#000000" font-family="Tahoma" font-size="14" lengthAdjust="spacing" textLength="42.1846" x="1780.5" y="541.9053">Flyway</text><text fill="#000000" font-family="Tahoma" font-size="14" lengthAdjust="spacing" textLength="184.625" x="1780.5" y="558.8037">common + postgresql V1-V15</text></g><g id="elem_GMN22"><path d="M1400,655.8984 L1400,728.6641 A0,0 0 0 0 1400,728.6641 L1790.4653,728.6641 A0,0 0 0 0 1790.4653,728.6641 L1790.4653,665.8984 L1780.4653,655.8984 L1418.9058,655.8984 L590.3664,595.0494 L1410.9058,655.8984 L1400,655.8984 A0,0 0 0 0 1400,655.8984 " fill="#FEFFDD" style="stroke:#181818;stroke-width:0.5;"/><path d="M1780.4653,655.8984 L1780.4653,665.8984 L1790.4653,665.8984 L1780.4653,655.8984 " fill="#FEFFDD" style="stroke:#181818;stroke-width:0.5;"/><text fill="#000000" font-family="Tahoma" font-size="13" lengthAdjust="spacing" textLength="369.4653" x="1406" y="673.9048">Ordering -&gt; SessionContextProvider -&gt; customer/session access</text><text fill="#000000" font-family="Tahoma" font-size="13" lengthAdjust="spacing" textLength="366.1519" x="1406" y="689.5962">Billing -&gt; DiningSessionBillingReader -&gt; opening-price snapshot</text><text fill="#000000" font-family="Tahoma" font-size="13" lengthAdjust="spacing" textLength="311.5493" x="1406" y="705.2876">Close -&gt; PaymentStatusLookup -&gt; same-session PAID</text><text fill="#000000" font-family="Tahoma" font-size="13" lengthAdjust="spacing" textLength="356.0591" x="1406" y="720.979">Runtime: database/session. Fixtures: explicit demo/tests only.</text></g><g id="elem_GMN25"><path d="M1808,655.8984 L1808,728.6641 A0,0 0 0 0 1808,728.6641 L2333.9307,728.6641 A0,0 0 0 0 2333.9307,728.6641 L2333.9307,665.8984 L2323.9307,655.8984 L1873.4924,655.8984 L1152.2855,559.2266 L1865.4924,655.8984 L1808,655.8984 A0,0 0 0 0 1808,655.8984 " fill="#FEFFDD" style="stroke:#181818;stroke-width:0.5;"/><path d="M2323.9307,655.8984 L2323.9307,665.8984 L2333.9307,665.8984 L2323.9307,655.8984 " fill="#FEFFDD" style="stroke:#181818;stroke-width:0.5;"/><text fill="#000000" font-family="Tahoma" font-size="13" lengthAdjust="spacing" textLength="410.3125" x="1814" y="673.9048">Shared UserSessionKeys removes the service-to-controller dependency.</text><text fill="#000000" font-family="Tahoma" font-size="13" lengthAdjust="spacing" textLength="409.7856" x="1814" y="689.5962">Session collaborations use verifier / reader / payment-lookup contracts.</text><text fill="#000000" font-family="Tahoma" font-size="13" lengthAdjust="spacing" textLength="504.9307" x="1814" y="705.2876">The inspected services use constructor injection; JPA and domain dependencies remain.</text><text fill="#000000" font-family="Tahoma" font-size="13" lengthAdjust="spacing" textLength="403.6602" x="1814" y="720.979">Public deployment and Final release still require their own acceptance.</text></g><!--entity C--><g id="elem_C"><rect fill="#F1F1F1" height="63.7969" rx="2.5" ry="2.5" style="stroke:#181818;stroke-width:0.5;" width="290.9814" x="402.5" y="177.8984"/><rect fill="#F1F1F1" height="10" style="stroke:#181818;stroke-width:0.5;" width="15" x="673.4814" y="182.8984"/><rect fill="#F1F1F1" height="2" style="stroke:#181818;stroke-width:0.5;" width="4" x="671.4814" y="184.8984"/><rect fill="#F1F1F1" height="2" style="stroke:#181818;stroke-width:0.5;" width="4" x="671.4814" y="188.8984"/><text fill="#000000" font-family="Tahoma" font-size="14" lengthAdjust="spacing" textLength="66.2061" x="417.5" y="211.9053">Controllers</text><text fill="#000000" font-family="Tahoma" font-size="14" lengthAdjust="spacing" textLength="250.9814" x="417.5" y="228.8037">HTTP / Bean Validation / response DTOs</text></g><!--entity S--><g id="elem_S"><rect fill="#F1F1F1" height="131.3906" rx="2.5" ry="2.5" style="stroke:#181818;stroke-width:0.5;" width="601.6201" x="247" y="296.8984"/><rect fill="#F1F1F1" height="10" style="stroke:#181818;stroke-width:0.5;" width="15" x="828.6201" y="301.8984"/><rect fill="#F1F1F1" height="2" style="stroke:#181818;stroke-width:0.5;" width="4" x="826.6201" y="303.8984"/><rect fill="#F1F1F1" height="2" style="stroke:#181818;stroke-width:0.5;" width="4" x="826.6201" y="307.8984"/><text fill="#000000" font-family="Tahoma" font-size="14" lengthAdjust="spacing" textLength="120.6543" x="262" y="330.9053">Application services</text><text fill="#000000" font-family="Tahoma" font-size="14" lengthAdjust="spacing" textLength="457.1191" x="262" y="347.8037">Table/Session: DiningSessionServiceImpl / CustomerSessionAccessService</text><text fill="#000000" font-family="Tahoma" font-size="14" lengthAdjust="spacing" textLength="466.0811" x="262" y="364.7021">Catalog/Ordering: MenuCatalogServiceImpl / CustomerOrderingServiceImpl</text><text fill="#000000" font-family="Tahoma" font-size="14" lengthAdjust="spacing" textLength="561.6201" x="262" y="381.6006">Fulfillment: OrderFulfillmentServiceImpl / OrderStateResolver / RegistryOrderStateResolver</text><text fill="#000000" font-family="Tahoma" font-size="14" lengthAdjust="spacing" textLength="477.0117" x="262" y="398.499">Billing/Payment: BillingEngine / PaymentServiceImpl / CustomerBillingService</text><text fill="#000000" font-family="Tahoma" font-size="14" lengthAdjust="spacing" textLength="418.6055" x="262" y="415.3975">Auth/Stock: AuthService / StockService / StockTransactionTemplate</text></g><!--entity Contracts--><g id="elem_Contracts"><rect fill="#F1F1F1" height="114.4922" rx="2.5" ry="2.5" style="stroke:#181818;stroke-width:0.5;" width="282.2793" x="308" y="482.8984"/><rect fill="#F1F1F1" height="10" style="stroke:#181818;stroke-width:0.5;" width="15" x="570.2793" y="487.8984"/><rect fill="#F1F1F1" height="2" style="stroke:#181818;stroke-width:0.5;" width="4" x="568.2793" y="489.8984"/><rect fill="#F1F1F1" height="2" style="stroke:#181818;stroke-width:0.5;" width="4" x="568.2793" y="493.8984"/><text fill="#000000" font-family="Tahoma" font-size="14" lengthAdjust="spacing" textLength="144.8193" x="323" y="516.9053">Cross-module contracts</text><text fill="#000000" font-family="Tahoma" font-size="14" lengthAdjust="spacing" textLength="144.4434" x="323" y="533.8037">SessionContextProvider</text><text fill="#000000" font-family="Tahoma" font-size="14" lengthAdjust="spacing" textLength="165.6689" x="323" y="550.7021">DiningSessionBillingReader</text><text fill="#000000" font-family="Tahoma" font-size="14" lengthAdjust="spacing" textLength="136.9102" x="323" y="567.6006">PaymentStatusLookup</text><text fill="#000000" font-family="Tahoma" font-size="14" lengthAdjust="spacing" textLength="242.2793" x="323" y="584.499">BillCalculator / CustomerSessionVerifier</text></g><!--entity Auth--><g id="elem_Auth"><rect fill="#F1F1F1" height="80.6953" rx="2.5" ry="2.5" style="stroke:#181818;stroke-width:0.5;" width="352.4023" x="800" y="499.3984"/><rect fill="#F1F1F1" height="10" style="stroke:#181818;stroke-width:0.5;" width="15" x="1132.4023" y="504.3984"/><rect fill="#F1F1F1" height="2" style="stroke:#181818;stroke-width:0.5;" width="4" x="1130.4023" y="506.3984"/><rect fill="#F1F1F1" height="2" style="stroke:#181818;stroke-width:0.5;" width="4" x="1130.4023" y="510.3984"/><text fill="#000000" font-family="Tahoma" font-size="14" lengthAdjust="spacing" textLength="152.1133" x="815" y="533.4053">Session access providers</text><text fill="#000000" font-family="Tahoma" font-size="14" lengthAdjust="spacing" textLength="312.4023" x="815" y="550.3037">UserContextProvider / SessionUserContextProvider</text><text fill="#000000" font-family="Tahoma" font-size="14" lengthAdjust="spacing" textLength="222.4551" x="815" y="567.2021">Staff / Fulfillment / Payment / Menu</text></g><!--entity M--><g id="elem_M"><rect fill="#F1F1F1" height="80.6953" rx="2.5" ry="2.5" style="stroke:#181818;stroke-width:0.5;" width="173.4512" x="608.5" y="499.3984"/><rect fill="#F1F1F1" height="10" style="stroke:#181818;stroke-width:0.5;" width="15" x="761.9512" y="504.3984"/><rect fill="#F1F1F1" height="2" style="stroke:#181818;stroke-width:0.5;" width="4" x="759.9512" y="506.3984"/><rect fill="#F1F1F1" height="2" style="stroke:#181818;stroke-width:0.5;" width="4" x="759.9512" y="510.3984"/><text fill="#000000" font-family="Tahoma" font-size="14" lengthAdjust="spacing" textLength="85.1963" x="623.5" y="533.4053">DTO mappers</text><text fill="#000000" font-family="Tahoma" font-size="14" lengthAdjust="spacing" textLength="133.4512" x="623.5" y="550.3037">Table / DiningSession</text><text fill="#000000" font-family="Tahoma" font-size="14" lengthAdjust="spacing" textLength="114.2764" x="623.5" y="567.2021">Catalog / Ordering</text></g><!--entity Repo--><g id="elem_Repo"><rect fill="#F1F1F1" height="63.7969" rx="2.5" ry="2.5" style="stroke:#181818;stroke-width:0.5;" width="267.0693" x="22.5" y="507.8984"/><rect fill="#F1F1F1" height="10" style="stroke:#181818;stroke-width:0.5;" width="15" x="269.5693" y="512.8984"/><rect fill="#F1F1F1" height="2" style="stroke:#181818;stroke-width:0.5;" width="4" x="267.5693" y="514.8984"/><rect fill="#F1F1F1" height="2" style="stroke:#181818;stroke-width:0.5;" width="4" x="267.5693" y="518.8984"/><text fill="#000000" font-family="Tahoma" font-size="14" lengthAdjust="spacing" textLength="174.6172" x="37.5" y="541.9053">Spring Data JPA repositories</text><text fill="#000000" font-family="Tahoma" font-size="14" lengthAdjust="spacing" textLength="227.0693" x="37.5" y="558.8037">Entity queries / pessimistic row locks</text></g><!--entity E--><g id="elem_E"><rect fill="#F1F1F1" height="80.6953" rx="2.5" ry="2.5" style="stroke:#181818;stroke-width:0.5;" width="202.1553" x="55" y="651.8984"/><rect fill="#F1F1F1" height="10" style="stroke:#181818;stroke-width:0.5;" width="15" x="237.1553" y="656.8984"/><rect fill="#F1F1F1" height="2" style="stroke:#181818;stroke-width:0.5;" width="4" x="235.1553" y="658.8984"/><rect fill="#F1F1F1" height="2" style="stroke:#181818;stroke-width:0.5;" width="4" x="235.1553" y="662.8984"/><text fill="#000000" font-family="Tahoma" font-size="14" lengthAdjust="spacing" textLength="96.1406" x="70" y="685.9053">Domain entities</text><text fill="#000000" font-family="Tahoma" font-size="14" lengthAdjust="spacing" textLength="162.1553" x="70" y="702.8037">Tables / Sessions / Orders</text><text fill="#000000" font-family="Tahoma" font-size="14" lengthAdjust="spacing" textLength="155.7158" x="70" y="719.7021">Payments / Users / Stock</text></g><polygon fill="#181818" points="548,177.5237,552,168.5237,548,172.5237,544,168.5237,548,177.5237" style="stroke:#181818;stroke-width:1;"/><path d="M548,105.9775 C548,127.4709 548,149.9665 548,171.5237 " fill="transparent" style="stroke:#181818;stroke-width:1;"/><text fill="#000000" font-family="Tahoma" font-size="13" lengthAdjust="spacing" textLength="252.4272" x="550" y="138.9048">JSON / staff login session / customer cookie</text><polygon fill="#181818" points="548,296.7404,552,287.7404,548,291.7404,544,287.7404,548,296.7404" style="stroke:#181818;stroke-width:1;"/><path d="M548,242.0821 C548,257.9242 548,271.7896 548,290.7404 " fill="transparent" style="stroke:#181818;stroke-width:1;"/><text fill="#000000" font-family="Tahoma" font-size="13" lengthAdjust="spacing" textLength="55.2246" x="550" y="274.9048">use cases</text><polygon fill="#181818" points="224.6158,507.7853,234.4644,507.7185,229.171,505.7236,231.1658,500.4302,224.6158,507.7853" style="stroke:#181818;stroke-width:1;"/><path d="M402.2544,427.9341 C388.6412,433.995 375.0589,440.0546 362,445.8984 C316.1544,466.4142 270.1206,487.1902 230.082,505.3113 " fill="transparent" style="stroke:#181818;stroke-width:1;"/><text fill="#000000" font-family="Tahoma" font-size="13" lengthAdjust="spacing" textLength="123.8301" x="364" y="460.9048">transactions / queries</text><polygon fill="#181818" points="1197.8523,660.8685,1190.4702,654.349,1193.0834,659.3661,1188.0663,661.9793,1197.8523,660.8685" style="stroke:#181818;stroke-width:1;"/><path d="M222.6666,571.946 C246.2822,581.6071 273.3615,591.2089 299,596.8984 C675.0721,680.354 786.6652,574.3515 1164,651.8984 C1175.1199,654.1837 1180.9127,655.5317 1192.1296,659.0656 " fill="transparent" style="stroke:#181818;stroke-width:1;"/><text fill="#000000" font-family="Tahoma" font-size="13" lengthAdjust="spacing" textLength="29.7007" x="1061" y="629.9048">JDBC</text><polygon fill="#181818" points="156,651.6533,160,642.6533,156,646.6533,152,642.6533,156,651.6533" style="stroke:#181818;stroke-width:1;"/><path d="M156,572.0821 C156,595.1565 156,620.766 156,645.6533 " fill="transparent" style="stroke:#181818;stroke-width:1;"/><text fill="#000000" font-family="Tahoma" font-size="13" lengthAdjust="spacing" textLength="73.9565" x="158" y="629.9048">JPA mapping</text><polygon fill="#181818" points="480.7098,482.6856,488.6156,476.8121,483.1664,478.3307,481.6478,472.8815,480.7098,482.6856" style="stroke:#181818;stroke-width:1;"/><path d="M511.4173,428.2495 C501.3375,446.1183 493.4373,460.1232 483.6577,477.4597 " fill="transparent" style="stroke:#181818;stroke-width:1;stroke-dasharray:7.0,7.0;"/><text fill="#000000" font-family="Tahoma" font-size="13" lengthAdjust="spacing" textLength="124.3506" x="501" y="460.9048">provider collaboration</text><polygon fill="#181818" points="904.9739,499.2252,898.915,491.4605,900.5621,496.8723,895.1503,498.5194,904.9739,499.2252" style="stroke:#181818;stroke-width:1;"/><path d="M749.8056,427.9659 C765.2031,433.755 780.4161,439.7583 795,445.8984 C832.1192,461.5265 866.7779,478.8545 899.6797,496.4017 " fill="transparent" style="stroke:#181818;stroke-width:1;"/><text fill="#000000" font-family="Tahoma" font-size="13" lengthAdjust="spacing" textLength="98.4839" x="838" y="460.9048">API authorization</text><polygon fill="#181818" points="670.0806,499.2634,668.4373,489.5526,667.316,495.0972,661.7714,493.976,670.0806,499.2634" style="stroke:#181818;stroke-width:1;"/><path d="M615.2933,428.0909 C620.7449,433.9864 626.0524,439.9715 631,445.8984 C644.9417,462.5998 655.508,477.3028 666.7631,494.264 " fill="transparent" style="stroke:#181818;stroke-width:1;"/><text fill="#000000" font-family="Tahoma" font-size="13" lengthAdjust="spacing" textLength="142.6699" x="647" y="460.9048">public response mapping</text><polygon fill="#181818" points="1361.4697,660.8551,1371.2608,661.9202,1366.2316,659.3304,1368.8213,654.3012,1361.4697,660.8551" style="stroke:#181818;stroke-width:1;"/><path d="M1765.4598,563.0778 C1666.211,583.4601 1518.0244,615.9009 1391,651.8984 C1381.3798,654.6247 1377.0964,655.8517 1367.184,659.0255 " fill="transparent" style="stroke:#181818;stroke-width:1;"/><text fill="#000000" font-family="Tahoma" font-size="13" lengthAdjust="spacing" textLength="158.4058" x="1525" y="629.9048">schema version / checksum</text><!--SRC=[TLRRSXit37tVhq3LbtOoifhCf4tKcSpeOasTsB6gLTqNlr2xaCIQIwv9hcorqt_l8NUfY-C-IG90N0uE07rNMx6f12cnDuqdLx4NMcJkGUfQM56HsuhIF4czeRLGZayqAr4yRAnfT3anobZwVZQRJMSVJonANej6-PdH_gkec9PYQogHUUaLqwBHNa9OcAeschKFER1rr8UePBXthAHc4cNn_fUF7-Y73tHRU7htqxkVVyoygSaRMXdl3G99ouMNHcT7Rxq52vZl93yv6eGwB9V7QEvUJng7nsoXpRrOh_7vHVfYonhVRW33XcsFXAC_UPNLg1O2wkMr3MYCZV6qkCoN9EfQoKA4y3tw9pifg3T1vTOeXRBkzM_BvHoEnomqtGabo_W44iiE3npJT7dhOi39cPVHCG0vjZjPCDmjnKhn86Vd81_IL6garVtCMwkhgbRmd-hibAC2xrrd0XI45yfi1hUsv53Pa6vODvtqTKV9z4HxhsUDMakbAgGyf6Xn8Zdt4xM0tFE2dL6xs885RwJpTl-jybwFuGRn1dEnR_rtWakz2GmPKATuFTtE-53ngF7RGUvDyJ2ayBrJH1f0-EBdqWhjH6JNak4OYSKUvUUTjiQvVcNAHWLAe-ruWYvrc0SYyBEVMxEJPQZeh5rTWY1irALYW47ZhervQEeMWebGHOC4ZFssgtVeo5fsX9sa1Cvox2n9H09GtIM3BFy0hLwa6CflxLzHegvkO4vwV6n361zmAAOI03xB0YId2ZCJ0qSIm_mCZWCd4rMWYhvkpijf1t4AM_ey7s6CQkCam95XF2wnNVoU7XiEl-6f3iuhK4mMPCqJAVIsdRO57fwdY2qbDN5m8G-pvewGk9IPEtGhY09IBl4ckhxC_iqmvo8iC-hDZVCRo_dlrm2mgLjfwihS6Em9UaDvVXtVJiUdssoczazYVwyXgc3zXkhMcNjKTFUsV_VsVNm4imphYlhzJpIX8NtERx-6xHVR1KXbM25jm04LQG4M89daR1AVvNZM8B42sRaiZx804SJ-E0kXpWxSB6g3sNGSGax7awFeCaZGdT1oj0l-BYu-7GaARU8Xib1Ah8oDcwuB7EW3cz7yYWI-ehb_dwflmljcfK9FqnPDaG35CIc7jOupXssIQjyo-jzKcJQUqnqnwzFHIToZ0CghSnmq2SI1EnklBEseOFF_qnwqfkQWxeFFM3jEYzfjZSzeeWpAWS4h2o687MvgFqMTZwwcMJggGqgaIrbTq4m- -mOW3OcVmpsH7lUvCWFF3cqmMkqlCjOb1JnUWj8ESTwUqC3ohfGll7S0lZ8xJ8VVSZfFVM_wnU7s8GugB5aN277W-rctNMJShjjXyIQATWdLRUrzrPPzMAtmj4H0gLsDqu-qqcLikGkNtZP5M9LI_zN-EVWr4b6Wnh8Ty4DUOKEW3CZWTjxo2KfbsdKMdioa5Wf6YiFGOekeyEknmJ-FKBcqP9xQtjVu1rNm4Sp_0000]--></g></svg>